<svg xmlns="http://www.w3.org/2000/svg" version="1.1" xmlns:xlink="http://www.w3.org/1999/xlink" xmlns:svgjs="http://svgjs.com/svgjs" width="1920" height="800" preserveAspectRatio="none" viewBox="0 0 1920 800"><g mask="url(&quot;#SvgjsMask32593&quot;)" fill="none"><rect width="1920" height="800" x="0" y="0" fill="url(#SvgjsLinearGradient32594)"></rect><path class="bg-svg1" d="M52.93 625.97L115.29 661.97L115.29 733.97L52.93 769.97L-9.43 733.97L-9.43 661.97zM177.64 -22.03L240 13.97L240 85.97L177.64 121.97L115.29 85.97L115.29 13.97zM240 301.97L302.35 337.97L302.35 409.97L240 445.97L177.64 409.97L177.64 337.97zM302.35 -22.03L364.71 13.97L364.71 85.97L302.35 121.97L240 85.97L240 13.97zM302.35 193.97L364.71 229.97L364.71 301.97L302.35 337.97L240 301.97L240 229.97zM364.71 301.97L427.06 337.97L427.06 409.97L364.71 445.97L302.35 409.97L302.35 337.97zM302.35 409.97L364.71 445.97L364.71 517.97L302.35 553.97L240 517.97L240 445.97zM364.71 733.97L427.06 769.97L427.06 841.97L364.71 877.97L302.35 841.97L302.35 769.97zM489.42 517.97L551.77 553.97L551.77 625.97L489.42 661.97L427.06 625.97L427.06 553.97zM551.77 -22.03L614.13 13.97L614.13 85.97L551.77 121.97L489.42 85.97L489.42 13.97zM614.13 301.97L676.49 337.97L676.49 409.97L614.13 445.97L551.77 409.97L551.77 337.97zM551.77 625.97L614.13 661.97L614.13 733.97L551.77 769.97L489.42 733.97L489.42 661.97zM738.84 733.97L801.2 769.97L801.2 841.97L738.84 877.97L676.49 841.97L676.49 769.97zM863.55 301.97L925.91 337.97L925.91 409.97L863.55 445.97L801.2 409.97L801.2 337.97zM863.55 517.97L925.91 553.97L925.91 625.97L863.55 661.97L801.2 625.97L801.2 553.97zM925.91 -22.03L988.26 13.97L988.26 85.97L925.91 121.97L863.55 85.97L863.55 13.97zM925.91 409.97L988.26 445.97L988.26 517.97L925.91 553.97L863.55 517.97L863.55 445.97zM988.26 733.97L1050.62 769.97L1050.62 841.97L988.26 877.97L925.91 841.97L925.91 769.97zM1112.98 85.97L1175.33 121.97L1175.33 193.97L1112.98 229.97L1050.62 193.97L1050.62 121.97zM1050.62 409.97L1112.98 445.97L1112.98 517.97L1050.62 553.97L988.26 517.97L988.26 445.97zM1175.33 193.97L1237.69 229.97L1237.69 301.97L1175.33 337.97L1112.98 301.97L1112.98 229.97zM1237.69 517.97L1300.04 553.97L1300.04 625.97L1237.69 661.97L1175.33 625.97L1175.33 553.97zM1300.04 -22.03L1362.4 13.97L1362.4 85.97L1300.04 121.97L1237.69 85.97L1237.69 13.97zM1300.04 409.97L1362.4 445.97L1362.4 517.97L1300.04 553.97L1237.69 517.97L1237.69 445.97zM1362.4 517.97L1424.75 553.97L1424.75 625.97L1362.4 661.97L1300.04 625.97L1300.04 553.97zM1362.4 733.97L1424.75 769.97L1424.75 841.97L1362.4 877.97L1300.04 841.97L1300.04 769.97zM1487.11 85.97L1549.46 121.97L1549.46 193.97L1487.11 229.97L1424.75 193.97L1424.75 121.97zM1424.75 193.97L1487.11 229.97L1487.11 301.97L1424.75 337.97L1362.4 301.97L1362.4 229.97zM1424.75 409.97L1487.11 445.97L1487.11 517.97L1424.75 553.97L1362.4 517.97L1362.4 445.97zM1424.75 625.97L1487.11 661.97L1487.11 733.97L1424.75 769.97L1362.4 733.97L1362.4 661.97zM1549.46 193.97L1611.82 229.97L1611.82 301.97L1549.46 337.97L1487.11 301.97L1487.11 229.97zM1549.46 625.97L1611.82 661.97L1611.82 733.97L1549.46 769.97L1487.11 733.97L1487.11 661.97zM1674.18 -22.03L1736.53 13.97L1736.53 85.97L1674.18 121.97L1611.82 85.97L1611.82 13.97zM1674.18 193.97L1736.53 229.97L1736.53 301.97L1674.18 337.97L1611.82 301.97L1611.82 229.97zM1736.53 301.97L1798.89 337.97L1798.89 409.97L1736.53 445.97L1674.18 409.97L1674.18 337.97zM1674.18 409.97L1736.53 445.97L1736.53 517.97L1674.18 553.97L1611.82 517.97L1611.82 445.97zM1736.53 733.97L1798.89 769.97L1798.89 841.97L1736.53 877.97L1674.18 841.97L1674.18 769.97zM1798.89 193.97L1861.24 229.97L1861.24 301.97L1798.89 337.97L1736.53 301.97L1736.53 229.97zM1798.89 625.97L1861.24 661.97L1861.24 733.97L1798.89 769.97L1736.53 733.97L1736.53 661.97zM1861.24 733.97L1923.6 769.97L1923.6 841.97L1861.24 877.97L1798.89 841.97L1798.89 769.97zM1923.6 193.97L1985.95 229.97L1985.95 301.97L1923.6 337.97L1861.24 301.97L1861.24 229.97zM1985.95 301.97L2048.31 337.97L2048.31 409.97L1985.95 445.97L1923.6 409.97L1923.6 337.97zM1985.95 733.97L2048.31 769.97L2048.31 841.97L1985.95 877.97L1923.6 841.97L1923.6 769.97z" stroke="url(#SvgjsLinearGradient32595)" stroke-width="2"></path><path class="bg-svg1" d="M45.73 625.97 a7.2 7.2 0 1 0 14.4 0 a7.2 7.2 0 1 0 -14.4 0zM108.09 661.97 a7.2 7.2 0 1 0 14.4 0 a7.2 7.2 0 1 0 -14.4 0zM108.09 733.97 a7.2 7.2 0 1 0 14.4 0 a7.2 7.2 0 1 0 -14.4 0zM45.73 769.97 a7.2 7.2 0 1 0 14.4 0 a7.2 7.2 0 1 0 -14.4 0zM-16.63 733.97 a7.2 7.2 0 1 0 14.4 0 a7.2 7.2 0 1 0 -14.4 0zM-16.63 661.97 a7.2 7.2 0 1 0 14.4 0 a7.2 7.2 0 1 0 -14.4 0zM170.44 -22.03 a7.2 7.2 0 1 0 14.4 0 a7.2 7.2 0 1 0 -14.4 0zM232.8 13.97 a7.2 7.2 0 1 0 14.4 0 a7.2 7.2 0 1 0 -14.4 0zM232.8 85.97 a7.2 7.2 0 1 0 14.4 0 a7.2 7.2 0 1 0 -14.4 0zM170.44 121.97 a7.2 7.2 0 1 0 14.4 0 a7.2 7.2 0 1 0 -14.4 0zM108.09 85.97 a7.2 7.2 0 1 0 14.4 0 a7.2 7.2 0 1 0 -14.4 0zM108.09 13.97 a7.2 7.2 0 1 0 14.4 0 a7.2 7.2 0 1 0 -14.4 0zM232.8 301.97 a7.2 7.2 0 1 0 14.4 0 a7.2 7.2 0 1 0 -14.4 0zM295.15 337.97 a7.2 7.2 0 1 0 14.4 0 a7.2 7.2 0 1 0 -14.4 0zM295.15 409.97 a7.2 7.2 0 1 0 14.4 0 a7.2 7.2 0 1 0 -14.4 0zM232.8 445.97 a7.2 7.2 0 1 0 14.4 0 a7.2 7.2 0 1 0 -14.4 0zM170.44 409.97 a7.2 7.2 0 1 0 14.4 0 a7.2 7.2 0 1 0 -14.4 0zM170.44 337.97 a7.2 7.2 0 1 0 14.4 0 a7.2 7.2 0 1 0 -14.4 0zM295.15 -22.03 a7.2 7.2 0 1 0 14.4 0 a7.2 7.2 0 1 0 -14.4 0zM357.51 13.97 a7.2 7.2 0 1 0 14.4 0 a7.2 7.2 0 1 0 -14.4 0zM357.51 85.97 a7.2 7.2 0 1 0 14.4 0 a7.2 7.2 0 1 0 -14.4 0zM295.15 121.97 a7.2 7.2 0 1 0 14.4 0 a7.2 7.2 0 1 0 -14.4 0zM295.15 193.97 a7.2 7.2 0 1 0 14.4 0 a7.2 7.2 0 1 0 -14.4 0zM357.51 229.97 a7.2 7.2 0 1 0 14.4 0 a7.2 7.2 0 1 0 -14.4 0zM357.51 301.97 a7.2 7.2 0 1 0 14.4 0 a7.2 7.2 0 1 0 -14.4 0zM232.8 229.97 a7.2 7.2 0 1 0 14.4 0 a7.2 7.2 0 1 0 -14.4 0zM419.86 337.97 a7.2 7.2 0 1 0 14.4 0 a7.2 7.2 0 1 0 -14.4 0zM419.86 409.97 a7.2 7.2 0 1 0 14.4 0 a7.2 7.2 0 1 0 -14.4 0zM357.51 445.97 a7.2 7.2 0 1 0 14.4 0 a7.2 7.2 0 1 0 -14.4 0zM357.51 517.97 a7.2 7.2 0 1 0 14.4 0 a7.2 7.2 0 1 0 -14.4 0zM295.15 553.97 a7.2 7.2 0 1 0 14.4 0 a7.2 7.2 0 1 0 -14.4 0zM232.8 517.97 a7.2 7.2 0 1 0 14.4 0 a7.2 7.2 0 1 0 -14.4 0zM357.51 733.97 a7.2 7.2 0 1 0 14.4 0 a7.2 7.2 0 1 0 -14.4 0zM419.86 769.97 a7.2 7.2 0 1 0 14.4 0 a7.2 7.2 0 1 0 -14.4 0zM419.86 841.97 a7.2 7.2 0 1 0 14.4 0 a7.2 7.2 0 1 0 -14.4 0zM357.51 877.97 a7.2 7.2 0 1 0 14.4 0 a7.2 7.2 0 1 0 -14.4 0zM295.15 841.97 a7.2 7.2 0 1 0 14.4 0 a7.2 7.2 0 1 0 -14.4 0zM295.15 769.97 a7.2 7.2 0 1 0 14.4 0 a7.2 7.2 0 1 0 -14.4 0zM482.22 517.97 a7.2 7.2 0 1 0 14.4 0 a7.2 7.2 0 1 0 -14.4 0zM544.57 553.97 a7.2 7.2 0 1 0 14.4 0 a7.2 7.2 0 1 0 -14.4 0zM544.57 625.97 a7.2 7.2 0 1 0 14.4 0 a7.2 7.2 0 1 0 -14.4 0zM482.22 661.97 a7.2 7.2 0 1 0 14.4 0 a7.2 7.2 0 1 0 -14.4 0zM419.86 625.97 a7.2 7.2 0 1 0 14.4 0 a7.2 7.2 0 1 0 -14.4 0zM419.86 553.97 a7.2 7.2 0 1 0 14.4 0 a7.2 7.2 0 1 0 -14.4 0zM544.57 -22.03 a7.2 7.2 0 1 0 14.4 0 a7.2 7.2 0 1 0 -14.4 0zM606.93 13.97 a7.2 7.2 0 1 0 14.4 0 a7.2 7.2 0 1 0 -14.4 0zM606.93 85.97 a7.2 7.2 0 1 0 14.4 0 a7.2 7.2 0 1 0 -14.4 0zM544.57 121.97 a7.2 7.2 0 1 0 14.4 0 a7.2 7.2 0 1 0 -14.4 0zM482.22 85.97 a7.2 7.2 0 1 0 14.4 0 a7.2 7.2 0 1 0 -14.4 0zM482.22 13.97 a7.2 7.2 0 1 0 14.4 0 a7.2 7.2 0 1 0 -14.4 0zM606.93 301.97 a7.2 7.2 0 1 0 14.4 0 a7.2 7.2 0 1 0 -14.4 0zM669.29 337.97 a7.2 7.2 0 1 0 14.4 0 a7.2 7.2 0 1 0 -14.4 0zM669.29 409.97 a7.2 7.2 0 1 0 14.4 0 a7.2 7.2 0 1 0 -14.4 0zM606.93 445.97 a7.2 7.2 0 1 0 14.4 0 a7.2 7.2 0 1 0 -14.4 0zM544.57 409.97 a7.2 7.2 0 1 0 14.4 0 a7.2 7.2 0 1 0 -14.4 0zM544.57 337.97 a7.2 7.2 0 1 0 14.4 0 a7.2 7.2 0 1 0 -14.4 0zM606.93 661.97 a7.2 7.2 0 1 0 14.4 0 a7.2 7.2 0 1 0 -14.4 0zM606.93 733.97 a7.2 7.2 0 1 0 14.4 0 a7.2 7.2 0 1 0 -14.4 0zM544.57 769.97 a7.2 7.2 0 1 0 14.4 0 a7.2 7.2 0 1 0 -14.4 0zM482.22 733.97 a7.2 7.2 0 1 0 14.4 0 a7.2 7.2 0 1 0 -14.4 0zM731.64 733.97 a7.2 7.2 0 1 0 14.4 0 a7.2 7.2 0 1 0 -14.4 0zM794 769.97 a7.2 7.2 0 1 0 14.4 0 a7.2 7.2 0 1 0 -14.4 0zM794 841.97 a7.2 7.2 0 1 0 14.4 0 a7.2 7.2 0 1 0 -14.4 0zM731.64 877.97 a7.2 7.2 0 1 0 14.4 0 a7.2 7.2 0 1 0 -14.4 0zM669.29 841.97 a7.2 7.2 0 1 0 14.4 0 a7.2 7.2 0 1 0 -14.4 0zM669.29 769.97 a7.2 7.2 0 1 0 14.4 0 a7.2 7.2 0 1 0 -14.4 0zM856.35 301.97 a7.2 7.2 0 1 0 14.4 0 a7.2 7.2 0 1 0 -14.4 0zM918.71 337.97 a7.2 7.2 0 1 0 14.4 0 a7.2 7.2 0 1 0 -14.4 0zM918.71 409.97 a7.2 7.2 0 1 0 14.4 0 a7.2 7.2 0 1 0 -14.4 0zM856.35 445.97 a7.2 7.2 0 1 0 14.4 0 a7.2 7.2 0 1 0 -14.4 0zM794 409.97 a7.2 7.2 0 1 0 14.4 0 a7.2 7.2 0 1 0 -14.4 0zM794 337.97 a7.2 7.2 0 1 0 14.4 0 a7.2 7.2 0 1 0 -14.4 0zM856.35 517.97 a7.2 7.2 0 1 0 14.4 0 a7.2 7.2 0 1 0 -14.4 0zM918.71 553.97 a7.2 7.2 0 1 0 14.4 0 a7.2 7.2 0 1 0 -14.4 0zM918.71 625.97 a7.2 7.2 0 1 0 14.4 0 a7.2 7.2 0 1 0 -14.4 0zM856.35 661.97 a7.2 7.2 0 1 0 14.4 0 a7.2 7.2 0 1 0 -14.4 0zM794 625.97 a7.2 7.2 0 1 0 14.4 0 a7.2 7.2 0 1 0 -14.4 0zM794 553.97 a7.2 7.2 0 1 0 14.4 0 a7.2 7.2 0 1 0 -14.4 0zM918.71 -22.03 a7.2 7.2 0 1 0 14.4 0 a7.2 7.2 0 1 0 -14.4 0zM981.06 13.97 a7.2 7.2 0 1 0 14.4 0 a7.2 7.2 0 1 0 -14.4 0zM981.06 85.97 a7.2 7.2 0 1 0 14.4 0 a7.2 7.2 0 1 0 -14.4 0zM918.71 121.97 a7.2 7.2 0 1 0 14.4 0 a7.2 7.2 0 1 0 -14.4 0zM856.35 85.97 a7.2 7.2 0 1 0 14.4 0 a7.2 7.2 0 1 0 -14.4 0zM856.35 13.97 a7.2 7.2 0 1 0 14.4 0 a7.2 7.2 0 1 0 -14.4 0zM981.06 445.97 a7.2 7.2 0 1 0 14.4 0 a7.2 7.2 0 1 0 -14.4 0zM981.06 517.97 a7.2 7.2 0 1 0 14.4 0 a7.2 7.2 0 1 0 -14.4 0zM981.06 733.97 a7.2 7.2 0 1 0 14.4 0 a7.2 7.2 0 1 0 -14.4 0zM1043.42 769.97 a7.2 7.2 0 1 0 14.4 0 a7.2 7.2 0 1 0 -14.4 0zM1043.42 841.97 a7.2 7.2 0 1 0 14.4 0 a7.2 7.2 0 1 0 -14.4 0zM981.06 877.97 a7.2 7.2 0 1 0 14.4 0 a7.2 7.2 0 1 0 -14.4 0zM918.71 841.97 a7.2 7.2 0 1 0 14.4 0 a7.2 7.2 0 1 0 -14.4 0zM918.71 769.97 a7.2 7.2 0 1 0 14.4 0 a7.2 7.2 0 1 0 -14.4 0zM1105.78 85.97 a7.2 7.2 0 1 0 14.4 0 a7.2 7.2 0 1 0 -14.4 0zM1168.13 121.97 a7.2 7.2 0 1 0 14.4 0 a7.2 7.2 0 1 0 -14.4 0zM1168.13 193.97 a7.2 7.2 0 1 0 14.4 0 a7.2 7.2 0 1 0 -14.4 0zM1105.78 229.97 a7.2 7.2 0 1 0 14.4 0 a7.2 7.2 0 1 0 -14.4 0zM1043.42 193.97 a7.2 7.2 0 1 0 14.4 0 a7.2 7.2 0 1 0 -14.4 0zM1043.42 121.97 a7.2 7.2 0 1 0 14.4 0 a7.2 7.2 0 1 0 -14.4 0zM1043.42 409.97 a7.2 7.2 0 1 0 14.4 0 a7.2 7.2 0 1 0 -14.4 0zM1105.78 445.97 a7.2 7.2 0 1 0 14.4 0 a7.2 7.2 0 1 0 -14.4 0zM1105.78 517.97 a7.2 7.2 0 1 0 14.4 0 a7.2 7.2 0 1 0 -14.4 0zM1043.42 553.97 a7.2 7.2 0 1 0 14.4 0 a7.2 7.2 0 1 0 -14.4 0zM1230.49 229.97 a7.2 7.2 0 1 0 14.4 0 a7.2 7.2 0 1 0 -14.4 0zM1230.49 301.97 a7.2 7.2 0 1 0 14.4 0 a7.2 7.2 0 1 0 -14.4 0zM1168.13 337.97 a7.2 7.2 0 1 0 14.4 0 a7.2 7.2 0 1 0 -14.4 0zM1105.78 301.97 a7.2 7.2 0 1 0 14.4 0 a7.2 7.2 0 1 0 -14.4 0zM1230.49 517.97 a7.2 7.2 0 1 0 14.4 0 a7.2 7.2 0 1 0 -14.4 0zM1292.84 553.97 a7.2 7.2 0 1 0 14.4 0 a7.2 7.2 0 1 0 -14.4 0zM1292.84 625.97 a7.2 7.2 0 1 0 14.4 0 a7.2 7.2 0 1 0 -14.4 0zM1230.49 661.97 a7.2 7.2 0 1 0 14.4 0 a7.2 7.2 0 1 0 -14.4 0zM1168.13 625.97 a7.2 7.2 0 1 0 14.4 0 a7.2 7.2 0 1 0 -14.4 0zM1168.13 553.97 a7.2 7.2 0 1 0 14.4 0 a7.2 7.2 0 1 0 -14.4 0zM1292.84 -22.03 a7.2 7.2 0 1 0 14.4 0 a7.2 7.2 0 1 0 -14.4 0zM1355.2 13.97 a7.2 7.2 0 1 0 14.4 0 a7.2 7.2 0 1 0 -14.4 0zM1355.2 85.97 a7.2 7.2 0 1 0 14.4 0 a7.2 7.2 0 1 0 -14.4 0zM1292.84 121.97 a7.2 7.2 0 1 0 14.4 0 a7.2 7.2 0 1 0 -14.4 0zM1230.49 85.97 a7.2 7.2 0 1 0 14.4 0 a7.2 7.2 0 1 0 -14.4 0zM1230.49 13.97 a7.2 7.2 0 1 0 14.4 0 a7.2 7.2 0 1 0 -14.4 0zM1292.84 409.97 a7.2 7.2 0 1 0 14.4 0 a7.2 7.2 0 1 0 -14.4 0zM1355.2 445.97 a7.2 7.2 0 1 0 14.4 0 a7.2 7.2 0 1 0 -14.4 0zM1355.2 517.97 a7.2 7.2 0 1 0 14.4 0 a7.2 7.2 0 1 0 -14.4 0zM1230.49 445.97 a7.2 7.2 0 1 0 14.4 0 a7.2 7.2 0 1 0 -14.4 0zM1417.55 553.97 a7.2 7.2 0 1 0 14.4 0 a7.2 7.2 0 1 0 -14.4 0zM1417.55 625.97 a7.2 7.2 0 1 0 14.4 0 a7.2 7.2 0 1 0 -14.4 0zM1355.2 661.97 a7.2 7.2 0 1 0 14.4 0 a7.2 7.2 0 1 0 -14.4 0zM1355.2 733.97 a7.2 7.2 0 1 0 14.4 0 a7.2 7.2 0 1 0 -14.4 0zM1417.55 769.97 a7.2 7.2 0 1 0 14.4 0 a7.2 7.2 0 1 0 -14.4 0zM1417.55 841.97 a7.2 7.2 0 1 0 14.4 0 a7.2 7.2 0 1 0 -14.4 0zM1355.2 877.97 a7.2 7.2 0 1 0 14.4 0 a7.2 7.2 0 1 0 -14.4 0zM1292.84 841.97 a7.2 7.2 0 1 0 14.4 0 a7.2 7.2 0 1 0 -14.4 0zM1292.84 769.97 a7.2 7.2 0 1 0 14.4 0 a7.2 7.2 0 1 0 -14.4 0zM1479.91 85.97 a7.2 7.2 0 1 0 14.4 0 a7.2 7.2 0 1 0 -14.4 0zM1542.26 121.97 a7.2 7.2 0 1 0 14.4 0 a7.2 7.2 0 1 0 -14.4 0zM1542.26 193.97 a7.2 7.2 0 1 0 14.4 0 a7.2 7.2 0 1 0 -14.4 0zM1479.91 229.97 a7.2 7.2 0 1 0 14.4 0 a7.2 7.2 0 1 0 -14.4 0zM1417.55 193.97 a7.2 7.2 0 1 0 14.4 0 a7.2 7.2 0 1 0 -14.4 0zM1417.55 121.97 a7.2 7.2 0 1 0 14.4 0 a7.2 7.2 0 1 0 -14.4 0zM1479.91 301.97 a7.2 7.2 0 1 0 14.4 0 a7.2 7.2 0 1 0 -14.4 0zM1417.55 337.97 a7.2 7.2 0 1 0 14.4 0 a7.2 7.2 0 1 0 -14.4 0zM1355.2 301.97 a7.2 7.2 0 1 0 14.4 0 a7.2 7.2 0 1 0 -14.4 0zM1355.2 229.97 a7.2 7.2 0 1 0 14.4 0 a7.2 7.2 0 1 0 -14.4 0zM1417.55 409.97 a7.2 7.2 0 1 0 14.4 0 a7.2 7.2 0 1 0 -14.4 0zM1479.91 445.97 a7.2 7.2 0 1 0 14.4 0 a7.2 7.2 0 1 0 -14.4 0zM1479.91 517.97 a7.2 7.2 0 1 0 14.4 0 a7.2 7.2 0 1 0 -14.4 0zM1479.91 661.97 a7.2 7.2 0 1 0 14.4 0 a7.2 7.2 0 1 0 -14.4 0zM1479.91 733.97 a7.2 7.2 0 1 0 14.4 0 a7.2 7.2 0 1 0 -14.4 0zM1604.62 229.97 a7.2 7.2 0 1 0 14.4 0 a7.2 7.2 0 1 0 -14.4 0zM1604.62 301.97 a7.2 7.2 0 1 0 14.4 0 a7.2 7.2 0 1 0 -14.4 0zM1542.26 337.97 a7.2 7.2 0 1 0 14.4 0 a7.2 7.2 0 1 0 -14.4 0zM1542.26 625.97 a7.2 7.2 0 1 0 14.4 0 a7.2 7.2 0 1 0 -14.4 0zM1604.62 661.97 a7.2 7.2 0 1 0 14.4 0 a7.2 7.2 0 1 0 -14.4 0zM1604.62 733.97 a7.2 7.2 0 1 0 14.4 0 a7.2 7.2 0 1 0 -14.4 0zM1542.26 769.97 a7.2 7.2 0 1 0 14.4 0 a7.2 7.2 0 1 0 -14.4 0zM1666.98 -22.03 a7.2 7.2 0 1 0 14.4 0 a7.2 7.2 0 1 0 -14.4 0zM1729.33 13.97 a7.2 7.2 0 1 0 14.4 0 a7.2 7.2 0 1 0 -14.4 0zM1729.33 85.97 a7.2 7.2 0 1 0 14.4 0 a7.2 7.2 0 1 0 -14.4 0zM1666.98 121.97 a7.2 7.2 0 1 0 14.4 0 a7.2 7.2 0 1 0 -14.4 0zM1604.62 85.97 a7.2 7.2 0 1 0 14.4 0 a7.2 7.2 0 1 0 -14.4 0zM1604.62 13.97 a7.2 7.2 0 1 0 14.4 0 a7.2 7.2 0 1 0 -14.4 0zM1666.98 193.97 a7.2 7.2 0 1 0 14.4 0 a7.2 7.2 0 1 0 -14.4 0zM1729.33 229.97 a7.2 7.2 0 1 0 14.4 0 a7.2 7.2 0 1 0 -14.4 0zM1729.33 301.97 a7.2 7.2 0 1 0 14.4 0 a7.2 7.2 0 1 0 -14.4 0zM1666.98 337.97 a7.2 7.2 0 1 0 14.4 0 a7.2 7.2 0 1 0 -14.4 0zM1791.69 337.97 a7.2 7.2 0 1 0 14.4 0 a7.2 7.2 0 1 0 -14.4 0zM1791.69 409.97 a7.2 7.2 0 1 0 14.4 0 a7.2 7.2 0 1 0 -14.4 0zM1729.33 445.97 a7.2 7.2 0 1 0 14.4 0 a7.2 7.2 0 1 0 -14.4 0zM1666.98 409.97 a7.2 7.2 0 1 0 14.4 0 a7.2 7.2 0 1 0 -14.4 0zM1729.33 517.97 a7.2 7.2 0 1 0 14.4 0 a7.2 7.2 0 1 0 -14.4 0zM1666.98 553.97 a7.2 7.2 0 1 0 14.4 0 a7.2 7.2 0 1 0 -14.4 0zM1604.62 517.97 a7.2 7.2 0 1 0 14.4 0 a7.2 7.2 0 1 0 -14.4 0zM1604.62 445.97 a7.2 7.2 0 1 0 14.4 0 a7.2 7.2 0 1 0 -14.4 0zM1729.33 733.97 a7.2 7.2 0 1 0 14.4 0 a7.2 7.2 0 1 0 -14.4 0zM1791.69 769.97 a7.2 7.2 0 1 0 14.4 0 a7.2 7.2 0 1 0 -14.4 0zM1791.69 841.97 a7.2 7.2 0 1 0 14.4 0 a7.2 7.2 0 1 0 -14.4 0zM1729.33 877.97 a7.2 7.2 0 1 0 14.4 0 a7.2 7.2 0 1 0 -14.4 0zM1666.98 841.97 a7.2 7.2 0 1 0 14.4 0 a7.2 7.2 0 1 0 -14.4 0zM1666.98 769.97 a7.2 7.2 0 1 0 14.4 0 a7.2 7.2 0 1 0 -14.4 0zM1791.69 193.97 a7.2 7.2 0 1 0 14.4 0 a7.2 7.2 0 1 0 -14.4 0zM1854.04 229.97 a7.2 7.2 0 1 0 14.4 0 a7.2 7.2 0 1 0 -14.4 0zM1854.04 301.97 a7.2 7.2 0 1 0 14.4 0 a7.2 7.2 0 1 0 -14.4 0zM1791.69 625.97 a7.2 7.2 0 1 0 14.4 0 a7.2 7.2 0 1 0 -14.4 0zM1854.04 661.97 a7.2 7.2 0 1 0 14.4 0 a7.2 7.2 0 1 0 -14.4 0zM1854.04 733.97 a7.2 7.2 0 1 0 14.4 0 a7.2 7.2 0 1 0 -14.4 0zM1729.33 661.97 a7.2 7.2 0 1 0 14.4 0 a7.2 7.2 0 1 0 -14.4 0zM1916.4 769.97 a7.2 7.2 0 1 0 14.4 0 a7.2 7.2 0 1 0 -14.4 0zM1916.4 841.97 a7.2 7.2 0 1 0 14.4 0 a7.2 7.2 0 1 0 -14.4 0zM1854.04 877.97 a7.2 7.2 0 1 0 14.4 0 a7.2 7.2 0 1 0 -14.4 0zM1916.4 193.97 a7.2 7.2 0 1 0 14.4 0 a7.2 7.2 0 1 0 -14.4 0zM1978.75 229.97 a7.2 7.2 0 1 0 14.4 0 a7.2 7.2 0 1 0 -14.4 0zM1978.75 301.97 a7.2 7.2 0 1 0 14.4 0 a7.2 7.2 0 1 0 -14.4 0zM1916.4 337.97 a7.2 7.2 0 1 0 14.4 0 a7.2 7.2 0 1 0 -14.4 0zM2041.11 337.97 a7.2 7.2 0 1 0 14.4 0 a7.2 7.2 0 1 0 -14.4 0zM2041.11 409.97 a7.2 7.2 0 1 0 14.4 0 a7.2 7.2 0 1 0 -14.4 0zM1978.75 445.97 a7.2 7.2 0 1 0 14.4 0 a7.2 7.2 0 1 0 -14.4 0zM1916.4 409.97 a7.2 7.2 0 1 0 14.4 0 a7.2 7.2 0 1 0 -14.4 0zM1978.75 733.97 a7.2 7.2 0 1 0 14.4 0 a7.2 7.2 0 1 0 -14.4 0zM2041.11 769.97 a7.2 7.2 0 1 0 14.4 0 a7.2 7.2 0 1 0 -14.4 0zM2041.11 841.97 a7.2 7.2 0 1 0 14.4 0 a7.2 7.2 0 1 0 -14.4 0zM1978.75 877.97 a7.2 7.2 0 1 0 14.4 0 a7.2 7.2 0 1 0 -14.4 0z" fill="url(#SvgjsLinearGradient32595)"></path><path d="M26.44 22.9L48.09 35.4L48.09 60.4L26.44 72.9L4.79 60.4L4.79 35.4zM26.44 172.9L48.09 185.4L48.09 210.4L26.44 222.9L4.79 210.4L4.79 185.4zM4.79 585.4L26.44 597.9L26.44 622.9L4.79 635.4L-16.86 622.9L-16.86 597.9zM26.44 622.9L48.09 635.4L48.09 660.4L26.44 672.9L4.79 660.4L4.79 635.4zM4.79 660.4L26.44 672.9L26.44 697.9L4.79 710.4L-16.86 697.9L-16.86 672.9zM4.79 735.4L26.44 747.9L26.44 772.9L4.79 785.4L-16.86 772.9L-16.86 747.9zM69.74 172.9L91.4 185.4L91.4 210.4L69.74 222.9L48.09 210.4L48.09 185.4zM69.74 322.9L91.4 335.4L91.4 360.4L69.74 372.9L48.09 360.4L48.09 335.4zM48.09 360.4L69.74 372.9L69.74 397.9L48.09 410.4L26.44 397.9L26.44 372.9zM69.74 547.9L91.4 560.4L91.4 585.4L69.74 597.9L48.09 585.4L48.09 560.4zM69.74 622.9L91.4 635.4L91.4 660.4L69.74 672.9L48.09 660.4L48.09 635.4zM69.74 697.9L91.4 710.4L91.4 735.4L69.74 747.9L48.09 735.4L48.09 710.4zM48.09 735.4L69.74 747.9L69.74 772.9L48.09 785.4L26.44 772.9L26.44 747.9zM69.74 772.9L91.4 785.4L91.4 810.4L69.74 822.9L48.09 810.4L48.09 785.4zM91.4 -14.6L113.05 -2.1L113.05 22.9L91.4 35.4L69.74 22.9L69.74 -2.1zM113.05 22.9L134.7 35.4L134.7 60.4L113.05 72.9L91.4 60.4L91.4 35.4zM91.4 60.4L113.05 72.9L113.05 97.9L91.4 110.4L69.74 97.9L69.74 72.9zM113.05 97.9L134.7 110.4L134.7 135.4L113.05 147.9L91.4 135.4L91.4 110.4zM113.05 172.9L134.7 185.4L134.7 210.4L113.05 222.9L91.4 210.4L91.4 185.4zM91.4 210.4L113.05 222.9L113.05 247.9L91.4 260.4L69.74 247.9L69.74 222.9zM91.4 285.4L113.05 297.9L113.05 322.9L91.4 335.4L69.74 322.9L69.74 297.9zM113.05 322.9L134.7 335.4L134.7 360.4L113.05 372.9L91.4 360.4L91.4 335.4zM91.4 360.4L113.05 372.9L113.05 397.9L91.4 410.4L69.74 397.9L69.74 372.9zM113.05 472.9L134.7 485.4L134.7 510.4L113.05 522.9L91.4 510.4L91.4 485.4zM91.4 585.4L113.05 597.9L113.05 622.9L91.4 635.4L69.74 622.9L69.74 597.9zM156.35 247.9L178 260.4L178 285.4L156.35 297.9L134.7 285.4L134.7 260.4zM156.35 322.9L178 335.4L178 360.4L156.35 372.9L134.7 360.4L134.7 335.4zM134.7 360.4L156.35 372.9L156.35 397.9L134.7 410.4L113.05 397.9L113.05 372.9zM134.7 435.4L156.35 447.9L156.35 472.9L134.7 485.4L113.05 472.9L113.05 447.9zM156.35 547.9L178 560.4L178 585.4L156.35 597.9L134.7 585.4L134.7 560.4zM134.7 585.4L156.35 597.9L156.35 622.9L134.7 635.4L113.05 622.9L113.05 597.9zM156.35 622.9L178 635.4L178 660.4L156.35 672.9L134.7 660.4L134.7 635.4zM156.35 697.9L178 710.4L178 735.4L156.35 747.9L134.7 735.4L134.7 710.4zM156.35 772.9L178 785.4L178 810.4L156.35 822.9L134.7 810.4L134.7 785.4zM178 60.4L199.65 72.9L199.65 97.9L178 110.4L156.35 97.9L156.35 72.9zM199.65 172.9L221.3 185.4L221.3 210.4L199.65 222.9L178 210.4L178 185.4zM199.65 397.9L221.3 410.4L221.3 435.4L199.65 447.9L178 435.4L178 410.4zM178 510.4L199.65 522.9L199.65 547.9L178 560.4L156.35 547.9L156.35 522.9zM199.65 547.9L221.3 560.4L221.3 585.4L199.65 597.9L178 585.4L178 560.4zM178 585.4L199.65 597.9L199.65 622.9L178 635.4L156.35 622.9L156.35 597.9zM178 660.4L199.65 672.9L199.65 697.9L178 710.4L156.35 697.9L156.35 672.9zM199.65 697.9L221.3 710.4L221.3 735.4L199.65 747.9L178 735.4L178 710.4zM199.65 772.9L221.3 785.4L221.3 810.4L199.65 822.9L178 810.4L178 785.4zM221.3 -14.6L242.95 -2.1L242.95 22.9L221.3 35.4L199.65 22.9L199.65 -2.1zM221.3 60.4L242.95 72.9L242.95 97.9L221.3 110.4L199.65 97.9L199.65 72.9zM242.95 97.9L264.61 110.4L264.61 135.4L242.95 147.9L221.3 135.4L221.3 110.4zM242.95 172.9L264.61 185.4L264.61 210.4L242.95 222.9L221.3 210.4L221.3 185.4zM242.95 247.9L264.61 260.4L264.61 285.4L242.95 297.9L221.3 285.4L221.3 260.4zM242.95 322.9L264.61 335.4L264.61 360.4L242.95 372.9L221.3 360.4L221.3 335.4zM242.95 547.9L264.61 560.4L264.61 585.4L242.95 597.9L221.3 585.4L221.3 560.4zM221.3 585.4L242.95 597.9L242.95 622.9L221.3 635.4L199.65 622.9L199.65 597.9zM264.61 -14.6L286.26 -2.1L286.26 22.9L264.61 35.4L242.95 22.9L242.95 -2.1zM286.26 247.9L307.91 260.4L307.91 285.4L286.26 297.9L264.61 285.4L264.61 260.4zM264.61 285.4L286.26 297.9L286.26 322.9L264.61 335.4L242.95 322.9L242.95 297.9zM264.61 435.4L286.26 447.9L286.26 472.9L264.61 485.4L242.95 472.9L242.95 447.9zM264.61 510.4L286.26 522.9L286.26 547.9L264.61 560.4L242.95 547.9L242.95 522.9zM286.26 547.9L307.91 560.4L307.91 585.4L286.26 597.9L264.61 585.4L264.61 560.4zM307.91 135.4L329.56 147.9L329.56 172.9L307.91 185.4L286.26 172.9L286.26 147.9zM329.56 172.9L351.21 185.4L351.21 210.4L329.56 222.9L307.91 210.4L307.91 185.4zM307.91 210.4L329.56 222.9L329.56 247.9L307.91 260.4L286.26 247.9L286.26 222.9zM307.91 285.4L329.56 297.9L329.56 322.9L307.91 335.4L286.26 322.9L286.26 297.9zM307.91 360.4L329.56 372.9L329.56 397.9L307.91 410.4L286.26 397.9L286.26 372.9zM329.56 472.9L351.21 485.4L351.21 510.4L329.56 522.9L307.91 510.4L307.91 485.4zM329.56 697.9L351.21 710.4L351.21 735.4L329.56 747.9L307.91 735.4L307.91 710.4zM351.21 -14.6L372.86 -2.1L372.86 22.9L351.21 35.4L329.56 22.9L329.56 -2.1zM351.21 60.4L372.86 72.9L372.86 97.9L351.21 110.4L329.56 97.9L329.56 72.9zM372.86 322.9L394.51 335.4L394.51 360.4L372.86 372.9L351.21 360.4L351.21 335.4zM372.86 472.9L394.51 485.4L394.51 510.4L372.86 522.9L351.21 510.4L351.21 485.4zM351.21 510.4L372.86 522.9L372.86 547.9L351.21 560.4L329.56 547.9L329.56 522.9zM351.21 585.4L372.86 597.9L372.86 622.9L351.21 635.4L329.56 622.9L329.56 597.9zM372.86 622.9L394.51 635.4L394.51 660.4L372.86 672.9L351.21 660.4L351.21 635.4zM351.21 660.4L372.86 672.9L372.86 697.9L351.21 710.4L329.56 697.9L329.56 672.9zM394.51 210.4L416.16 222.9L416.16 247.9L394.51 260.4L372.86 247.9L372.86 222.9zM416.16 247.9L437.82 260.4L437.82 285.4L416.16 297.9L394.51 285.4L394.51 260.4zM394.51 285.4L416.16 297.9L416.16 322.9L394.51 335.4L372.86 322.9L372.86 297.9zM394.51 435.4L416.16 447.9L416.16 472.9L394.51 485.4L372.86 472.9L372.86 447.9zM394.51 510.4L416.16 522.9L416.16 547.9L394.51 560.4L372.86 547.9L372.86 522.9zM394.51 585.4L416.16 597.9L416.16 622.9L394.51 635.4L372.86 622.9L372.86 597.9zM416.16 622.9L437.82 635.4L437.82 660.4L416.16 672.9L394.51 660.4L394.51 635.4zM416.16 697.9L437.82 710.4L437.82 735.4L416.16 747.9L394.51 735.4L394.51 710.4zM416.16 772.9L437.82 785.4L437.82 810.4L416.16 822.9L394.51 810.4L394.51 785.4zM459.47 22.9L481.12 35.4L481.12 60.4L459.47 72.9L437.82 60.4L437.82 35.4zM437.82 60.4L459.47 72.9L459.47 97.9L437.82 110.4L416.16 97.9L416.16 72.9zM437.82 210.4L459.47 222.9L459.47 247.9L437.82 260.4L416.16 247.9L416.16 222.9zM459.47 247.9L481.12 260.4L481.12 285.4L459.47 297.9L437.82 285.4L437.82 260.4zM459.47 322.9L481.12 335.4L481.12 360.4L459.47 372.9L437.82 360.4L437.82 335.4zM437.82 585.4L459.47 597.9L459.47 622.9L437.82 635.4L416.16 622.9L416.16 597.9zM459.47 622.9L481.12 635.4L481.12 660.4L459.47 672.9L437.82 660.4L437.82 635.4zM502.77 97.9L524.42 110.4L524.42 135.4L502.77 147.9L481.12 135.4L481.12 110.4zM481.12 210.4L502.77 222.9L502.77 247.9L481.12 260.4L459.47 247.9L459.47 222.9zM481.12 285.4L502.77 297.9L502.77 322.9L481.12 335.4L459.47 322.9L459.47 297.9zM502.77 322.9L524.42 335.4L524.42 360.4L502.77 372.9L481.12 360.4L481.12 335.4zM481.12 435.4L502.77 447.9L502.77 472.9L481.12 485.4L459.47 472.9L459.47 447.9zM502.77 472.9L524.42 485.4L524.42 510.4L502.77 522.9L481.12 510.4L481.12 485.4zM481.12 510.4L502.77 522.9L502.77 547.9L481.12 560.4L459.47 547.9L459.47 522.9zM502.77 697.9L524.42 710.4L524.42 735.4L502.77 747.9L481.12 735.4L481.12 710.4zM481.12 735.4L502.77 747.9L502.77 772.9L481.12 785.4L459.47 772.9L459.47 747.9zM502.77 772.9L524.42 785.4L524.42 810.4L502.77 822.9L481.12 810.4L481.12 785.4zM524.42 -14.6L546.07 -2.1L546.07 22.9L524.42 35.4L502.77 22.9L502.77 -2.1zM546.07 22.9L567.72 35.4L567.72 60.4L546.07 72.9L524.42 60.4L524.42 35.4zM546.07 97.9L567.72 110.4L567.72 135.4L546.07 147.9L524.42 135.4L524.42 110.4zM524.42 135.4L546.07 147.9L546.07 172.9L524.42 185.4L502.77 172.9L502.77 147.9zM524.42 285.4L546.07 297.9L546.07 322.9L524.42 335.4L502.77 322.9L502.77 297.9zM546.07 322.9L567.72 335.4L567.72 360.4L546.07 372.9L524.42 360.4L524.42 335.4zM546.07 547.9L567.72 560.4L567.72 585.4L546.07 597.9L524.42 585.4L524.42 560.4zM546.07 622.9L567.72 635.4L567.72 660.4L546.07 672.9L524.42 660.4L524.42 635.4zM524.42 660.4L546.07 672.9L546.07 697.9L524.42 710.4L502.77 697.9L502.77 672.9zM524.42 735.4L546.07 747.9L546.07 772.9L524.42 785.4L502.77 772.9L502.77 747.9zM546.07 772.9L567.72 785.4L567.72 810.4L546.07 822.9L524.42 810.4L524.42 785.4zM567.72 285.4L589.37 297.9L589.37 322.9L567.72 335.4L546.07 322.9L546.07 297.9zM589.37 322.9L611.02 335.4L611.02 360.4L589.37 372.9L567.72 360.4L567.72 335.4zM567.72 360.4L589.37 372.9L589.37 397.9L567.72 410.4L546.07 397.9L546.07 372.9zM589.37 397.9L611.02 410.4L611.02 435.4L589.37 447.9L567.72 435.4L567.72 410.4zM567.72 510.4L589.37 522.9L589.37 547.9L567.72 560.4L546.07 547.9L546.07 522.9zM589.37 547.9L611.02 560.4L611.02 585.4L589.37 597.9L567.72 585.4L567.72 560.4zM567.72 660.4L589.37 672.9L589.37 697.9L567.72 710.4L546.07 697.9L546.07 672.9zM589.37 697.9L611.02 710.4L611.02 735.4L589.37 747.9L567.72 735.4L567.72 710.4zM567.72 735.4L589.37 747.9L589.37 772.9L567.72 785.4L546.07 772.9L546.07 747.9zM589.37 772.9L611.02 785.4L611.02 810.4L589.37 822.9L567.72 810.4L567.72 785.4zM611.02 -14.6L632.68 -2.1L632.68 22.9L611.02 35.4L589.37 22.9L589.37 -2.1zM611.02 60.4L632.68 72.9L632.68 97.9L611.02 110.4L589.37 97.9L589.37 72.9zM611.02 135.4L632.68 147.9L632.68 172.9L611.02 185.4L589.37 172.9L589.37 147.9zM632.68 172.9L654.33 185.4L654.33 210.4L632.68 222.9L611.02 210.4L611.02 185.4zM611.02 285.4L632.68 297.9L632.68 322.9L611.02 335.4L589.37 322.9L589.37 297.9zM632.68 397.9L654.33 410.4L654.33 435.4L632.68 447.9L611.02 435.4L611.02 410.4zM611.02 510.4L632.68 522.9L632.68 547.9L611.02 560.4L589.37 547.9L589.37 522.9zM632.68 547.9L654.33 560.4L654.33 585.4L632.68 597.9L611.02 585.4L611.02 560.4zM611.02 660.4L632.68 672.9L632.68 697.9L611.02 710.4L589.37 697.9L589.37 672.9zM632.68 697.9L654.33 710.4L654.33 735.4L632.68 747.9L611.02 735.4L611.02 710.4zM632.68 772.9L654.33 785.4L654.33 810.4L632.68 822.9L611.02 810.4L611.02 785.4zM654.33 -14.6L675.98 -2.1L675.98 22.9L654.33 35.4L632.68 22.9L632.68 -2.1zM654.33 135.4L675.98 147.9L675.98 172.9L654.33 185.4L632.68 172.9L632.68 147.9zM675.98 172.9L697.63 185.4L697.63 210.4L675.98 222.9L654.33 210.4L654.33 185.4zM675.98 322.9L697.63 335.4L697.63 360.4L675.98 372.9L654.33 360.4L654.33 335.4zM654.33 360.4L675.98 372.9L675.98 397.9L654.33 410.4L632.68 397.9L632.68 372.9zM675.98 397.9L697.63 410.4L697.63 435.4L675.98 447.9L654.33 435.4L654.33 410.4zM654.33 435.4L675.98 447.9L675.98 472.9L654.33 485.4L632.68 472.9L632.68 447.9zM675.98 472.9L697.63 485.4L697.63 510.4L675.98 522.9L654.33 510.4L654.33 485.4zM654.33 510.4L675.98 522.9L675.98 547.9L654.33 560.4L632.68 547.9L632.68 522.9zM654.33 585.4L675.98 597.9L675.98 622.9L654.33 635.4L632.68 622.9L632.68 597.9zM654.33 660.4L675.98 672.9L675.98 697.9L654.33 710.4L632.68 697.9L632.68 672.9zM675.98 697.9L697.63 710.4L697.63 735.4L675.98 747.9L654.33 735.4L654.33 710.4zM675.98 772.9L697.63 785.4L697.63 810.4L675.98 822.9L654.33 810.4L654.33 785.4zM697.63 135.4L719.28 147.9L719.28 172.9L697.63 185.4L675.98 172.9L675.98 147.9zM697.63 285.4L719.28 297.9L719.28 322.9L697.63 335.4L675.98 322.9L675.98 297.9zM719.28 472.9L740.93 485.4L740.93 510.4L719.28 522.9L697.63 510.4L697.63 485.4zM697.63 510.4L719.28 522.9L719.28 547.9L697.63 560.4L675.98 547.9L675.98 522.9zM697.63 585.4L719.28 597.9L719.28 622.9L697.63 635.4L675.98 622.9L675.98 597.9zM719.28 772.9L740.93 785.4L740.93 810.4L719.28 822.9L697.63 810.4L697.63 785.4zM740.93 60.4L762.58 72.9L762.58 97.9L740.93 110.4L719.28 97.9L719.28 72.9zM762.58 97.9L784.24 110.4L784.24 135.4L762.58 147.9L740.93 135.4L740.93 110.4zM762.58 172.9L784.24 185.4L784.24 210.4L762.58 222.9L740.93 210.4L740.93 185.4zM740.93 210.4L762.58 222.9L762.58 247.9L740.93 260.4L719.28 247.9L719.28 222.9zM740.93 285.4L762.58 297.9L762.58 322.9L740.93 335.4L719.28 322.9L719.28 297.9zM762.58 547.9L784.24 560.4L784.24 585.4L762.58 597.9L740.93 585.4L740.93 560.4zM740.93 585.4L762.58 597.9L762.58 622.9L740.93 635.4L719.28 622.9L719.28 597.9zM762.58 622.9L784.24 635.4L784.24 660.4L762.58 672.9L740.93 660.4L740.93 635.4zM762.58 697.9L784.24 710.4L784.24 735.4L762.58 747.9L740.93 735.4L740.93 710.4zM762.58 772.9L784.24 785.4L784.24 810.4L762.58 822.9L740.93 810.4L740.93 785.4zM805.89 22.9L827.54 35.4L827.54 60.4L805.89 72.9L784.24 60.4L784.24 35.4zM784.24 60.4L805.89 72.9L805.89 97.9L784.24 110.4L762.58 97.9L762.58 72.9zM784.24 435.4L805.89 447.9L805.89 472.9L784.24 485.4L762.58 472.9L762.58 447.9zM805.89 547.9L827.54 560.4L827.54 585.4L805.89 597.9L784.24 585.4L784.24 560.4zM784.24 660.4L805.89 672.9L805.89 697.9L784.24 710.4L762.58 697.9L762.58 672.9zM805.89 697.9L827.54 710.4L827.54 735.4L805.89 747.9L784.24 735.4L784.24 710.4zM784.24 735.4L805.89 747.9L805.89 772.9L784.24 785.4L762.58 772.9L762.58 747.9zM827.54 -14.6L849.19 -2.1L849.19 22.9L827.54 35.4L805.89 22.9L805.89 -2.1zM827.54 135.4L849.19 147.9L849.19 172.9L827.54 185.4L805.89 172.9L805.89 147.9zM827.54 210.4L849.19 222.9L849.19 247.9L827.54 260.4L805.89 247.9L805.89 222.9zM849.19 247.9L870.84 260.4L870.84 285.4L849.19 297.9L827.54 285.4L827.54 260.4zM849.19 547.9L870.84 560.4L870.84 585.4L849.19 597.9L827.54 585.4L827.54 560.4zM849.19 622.9L870.84 635.4L870.84 660.4L849.19 672.9L827.54 660.4L827.54 635.4zM849.19 697.9L870.84 710.4L870.84 735.4L849.19 747.9L827.54 735.4L827.54 710.4zM849.19 772.9L870.84 785.4L870.84 810.4L849.19 822.9L827.54 810.4L827.54 785.4zM892.49 22.9L914.14 35.4L914.14 60.4L892.49 72.9L870.84 60.4L870.84 35.4zM892.49 97.9L914.14 110.4L914.14 135.4L892.49 147.9L870.84 135.4L870.84 110.4zM870.84 210.4L892.49 222.9L892.49 247.9L870.84 260.4L849.19 247.9L849.19 222.9zM892.49 247.9L914.14 260.4L914.14 285.4L892.49 297.9L870.84 285.4L870.84 260.4zM870.84 285.4L892.49 297.9L892.49 322.9L870.84 335.4L849.19 322.9L849.19 297.9zM892.49 322.9L914.14 335.4L914.14 360.4L892.49 372.9L870.84 360.4L870.84 335.4zM870.84 360.4L892.49 372.9L892.49 397.9L870.84 410.4L849.19 397.9L849.19 372.9zM870.84 435.4L892.49 447.9L892.49 472.9L870.84 485.4L849.19 472.9L849.19 447.9zM892.49 472.9L914.14 485.4L914.14 510.4L892.49 522.9L870.84 510.4L870.84 485.4zM892.49 547.9L914.14 560.4L914.14 585.4L892.49 597.9L870.84 585.4L870.84 560.4zM892.49 697.9L914.14 710.4L914.14 735.4L892.49 747.9L870.84 735.4L870.84 710.4zM870.84 735.4L892.49 747.9L892.49 772.9L870.84 785.4L849.19 772.9L849.19 747.9zM914.14 -14.6L935.79 -2.1L935.79 22.9L914.14 35.4L892.49 22.9L892.49 -2.1zM935.79 172.9L957.45 185.4L957.45 210.4L935.79 222.9L914.14 210.4L914.14 185.4zM914.14 210.4L935.79 222.9L935.79 247.9L914.14 260.4L892.49 247.9L892.49 222.9zM914.14 360.4L935.79 372.9L935.79 397.9L914.14 410.4L892.49 397.9L892.49 372.9zM935.79 397.9L957.45 410.4L957.45 435.4L935.79 447.9L914.14 435.4L914.14 410.4zM914.14 435.4L935.79 447.9L935.79 472.9L914.14 485.4L892.49 472.9L892.49 447.9zM935.79 547.9L957.45 560.4L957.45 585.4L935.79 597.9L914.14 585.4L914.14 560.4zM935.79 622.9L957.45 635.4L957.45 660.4L935.79 672.9L914.14 660.4L914.14 635.4zM914.14 660.4L935.79 672.9L935.79 697.9L914.14 710.4L892.49 697.9L892.49 672.9zM935.79 697.9L957.45 710.4L957.45 735.4L935.79 747.9L914.14 735.4L914.14 710.4zM914.14 735.4L935.79 747.9L935.79 772.9L914.14 785.4L892.49 772.9L892.49 747.9zM979.1 22.9L1000.75 35.4L1000.75 60.4L979.1 72.9L957.45 60.4L957.45 35.4zM957.45 60.4L979.1 72.9L979.1 97.9L957.45 110.4L935.79 97.9L935.79 72.9zM957.45 135.4L979.1 147.9L979.1 172.9L957.45 185.4L935.79 172.9L935.79 147.9zM979.1 322.9L1000.75 335.4L1000.75 360.4L979.1 372.9L957.45 360.4L957.45 335.4zM957.45 360.4L979.1 372.9L979.1 397.9L957.45 410.4L935.79 397.9L935.79 372.9zM979.1 472.9L1000.75 485.4L1000.75 510.4L979.1 522.9L957.45 510.4L957.45 485.4zM957.45 510.4L979.1 522.9L979.1 547.9L957.45 560.4L935.79 547.9L935.79 522.9zM979.1 697.9L1000.75 710.4L1000.75 735.4L979.1 747.9L957.45 735.4L957.45 710.4zM1000.75 60.4L1022.4 72.9L1022.4 97.9L1000.75 110.4L979.1 97.9L979.1 72.9zM1000.75 135.4L1022.4 147.9L1022.4 172.9L1000.75 185.4L979.1 172.9L979.1 147.9zM1000.75 210.4L1022.4 222.9L1022.4 247.9L1000.75 260.4L979.1 247.9L979.1 222.9zM1022.4 322.9L1044.05 335.4L1044.05 360.4L1022.4 372.9L1000.75 360.4L1000.75 335.4zM1000.75 435.4L1022.4 447.9L1022.4 472.9L1000.75 485.4L979.1 472.9L979.1 447.9zM1022.4 772.9L1044.05 785.4L1044.05 810.4L1022.4 822.9L1000.75 810.4L1000.75 785.4zM1044.05 60.4L1065.7 72.9L1065.7 97.9L1044.05 110.4L1022.4 97.9L1022.4 72.9zM1065.7 97.9L1087.35 110.4L1087.35 135.4L1065.7 147.9L1044.05 135.4L1044.05 110.4zM1044.05 210.4L1065.7 222.9L1065.7 247.9L1044.05 260.4L1022.4 247.9L1022.4 222.9zM1044.05 360.4L1065.7 372.9L1065.7 397.9L1044.05 410.4L1022.4 397.9L1022.4 372.9zM1044.05 510.4L1065.7 522.9L1065.7 547.9L1044.05 560.4L1022.4 547.9L1022.4 522.9zM1065.7 547.9L1087.35 560.4L1087.35 585.4L1065.7 597.9L1044.05 585.4L1044.05 560.4zM1065.7 772.9L1087.35 785.4L1087.35 810.4L1065.7 822.9L1044.05 810.4L1044.05 785.4zM1087.35 -14.6L1109 -2.1L1109 22.9L1087.35 35.4L1065.7 22.9L1065.7 -2.1zM1109 172.9L1130.65 185.4L1130.65 210.4L1109 222.9L1087.35 210.4L1087.35 185.4zM1087.35 210.4L1109 222.9L1109 247.9L1087.35 260.4L1065.7 247.9L1065.7 222.9zM1087.35 285.4L1109 297.9L1109 322.9L1087.35 335.4L1065.7 322.9L1065.7 297.9zM1087.35 360.4L1109 372.9L1109 397.9L1087.35 410.4L1065.7 397.9L1065.7 372.9zM1087.35 435.4L1109 447.9L1109 472.9L1087.35 485.4L1065.7 472.9L1065.7 447.9zM1087.35 510.4L1109 522.9L1109 547.9L1087.35 560.4L1065.7 547.9L1065.7 522.9zM1109 547.9L1130.65 560.4L1130.65 585.4L1109 597.9L1087.35 585.4L1087.35 560.4zM1087.35 585.4L1109 597.9L1109 622.9L1087.35 635.4L1065.7 622.9L1065.7 597.9zM1109 622.9L1130.65 635.4L1130.65 660.4L1109 672.9L1087.35 660.4L1087.35 635.4zM1130.65 -14.6L1152.31 -2.1L1152.31 22.9L1130.65 35.4L1109 22.9L1109 -2.1zM1130.65 135.4L1152.31 147.9L1152.31 172.9L1130.65 185.4L1109 172.9L1109 147.9zM1152.31 247.9L1173.96 260.4L1173.96 285.4L1152.31 297.9L1130.65 285.4L1130.65 260.4zM1130.65 435.4L1152.31 447.9L1152.31 472.9L1130.65 485.4L1109 472.9L1109 447.9zM1130.65 585.4L1152.31 597.9L1152.31 622.9L1130.65 635.4L1109 622.9L1109 597.9zM1152.31 622.9L1173.96 635.4L1173.96 660.4L1152.31 672.9L1130.65 660.4L1130.65 635.4zM1130.65 660.4L1152.31 672.9L1152.31 697.9L1130.65 710.4L1109 697.9L1109 672.9zM1152.31 697.9L1173.96 710.4L1173.96 735.4L1152.31 747.9L1130.65 735.4L1130.65 710.4zM1195.61 97.9L1217.26 110.4L1217.26 135.4L1195.61 147.9L1173.96 135.4L1173.96 110.4zM1173.96 135.4L1195.61 147.9L1195.61 172.9L1173.96 185.4L1152.31 172.9L1152.31 147.9zM1195.61 247.9L1217.26 260.4L1217.26 285.4L1195.61 297.9L1173.96 285.4L1173.96 260.4zM1173.96 285.4L1195.61 297.9L1195.61 322.9L1173.96 335.4L1152.31 322.9L1152.31 297.9zM1195.61 322.9L1217.26 335.4L1217.26 360.4L1195.61 372.9L1173.96 360.4L1173.96 335.4zM1195.61 397.9L1217.26 410.4L1217.26 435.4L1195.61 447.9L1173.96 435.4L1173.96 410.4zM1195.61 472.9L1217.26 485.4L1217.26 510.4L1195.61 522.9L1173.96 510.4L1173.96 485.4zM1173.96 510.4L1195.61 522.9L1195.61 547.9L1173.96 560.4L1152.31 547.9L1152.31 522.9zM1173.96 585.4L1195.61 597.9L1195.61 622.9L1173.96 635.4L1152.31 622.9L1152.31 597.9zM1195.61 622.9L1217.26 635.4L1217.26 660.4L1195.61 672.9L1173.96 660.4L1173.96 635.4zM1195.61 697.9L1217.26 710.4L1217.26 735.4L1195.61 747.9L1173.96 735.4L1173.96 710.4zM1217.26 -14.6L1238.91 -2.1L1238.91 22.9L1217.26 35.4L1195.61 22.9L1195.61 -2.1zM1217.26 60.4L1238.91 72.9L1238.91 97.9L1217.26 110.4L1195.61 97.9L1195.61 72.9zM1238.91 172.9L1260.56 185.4L1260.56 210.4L1238.91 222.9L1217.26 210.4L1217.26 185.4zM1217.26 210.4L1238.91 222.9L1238.91 247.9L1217.26 260.4L1195.61 247.9L1195.61 222.9zM1238.91 247.9L1260.56 260.4L1260.56 285.4L1238.91 297.9L1217.26 285.4L1217.26 260.4zM1217.26 285.4L1238.91 297.9L1238.91 322.9L1217.26 335.4L1195.61 322.9L1195.61 297.9zM1238.91 397.9L1260.56 410.4L1260.56 435.4L1238.91 447.9L1217.26 435.4L1217.26 410.4zM1217.26 585.4L1238.91 597.9L1238.91 622.9L1217.26 635.4L1195.61 622.9L1195.61 597.9zM1238.91 622.9L1260.56 635.4L1260.56 660.4L1238.91 672.9L1217.26 660.4L1217.26 635.4zM1217.26 660.4L1238.91 672.9L1238.91 697.9L1217.26 710.4L1195.61 697.9L1195.61 672.9zM1217.26 735.4L1238.91 747.9L1238.91 772.9L1217.26 785.4L1195.61 772.9L1195.61 747.9zM1282.21 22.9L1303.86 35.4L1303.86 60.4L1282.21 72.9L1260.56 60.4L1260.56 35.4zM1260.56 60.4L1282.21 72.9L1282.21 97.9L1260.56 110.4L1238.91 97.9L1238.91 72.9zM1260.56 210.4L1282.21 222.9L1282.21 247.9L1260.56 260.4L1238.91 247.9L1238.91 222.9zM1260.56 585.4L1282.21 597.9L1282.21 622.9L1260.56 635.4L1238.91 622.9L1238.91 597.9zM1260.56 660.4L1282.21 672.9L1282.21 697.9L1260.56 710.4L1238.91 697.9L1238.91 672.9zM1282.21 772.9L1303.86 785.4L1303.86 810.4L1282.21 822.9L1260.56 810.4L1260.56 785.4zM1303.87 -14.6L1325.52 -2.1L1325.52 22.9L1303.87 35.4L1282.21 22.9L1282.21 -2.1zM1325.52 97.9L1347.17 110.4L1347.17 135.4L1325.52 147.9L1303.87 135.4L1303.87 110.4zM1303.87 210.4L1325.52 222.9L1325.52 247.9L1303.87 260.4L1282.21 247.9L1282.21 222.9zM1325.52 247.9L1347.17 260.4L1347.17 285.4L1325.52 297.9L1303.87 285.4L1303.87 260.4zM1325.52 397.9L1347.17 410.4L1347.17 435.4L1325.52 447.9L1303.87 435.4L1303.87 410.4zM1368.82 22.9L1390.47 35.4L1390.47 60.4L1368.82 72.9L1347.17 60.4L1347.17 35.4zM1368.82 97.9L1390.47 110.4L1390.47 135.4L1368.82 147.9L1347.17 135.4L1347.17 110.4zM1347.17 135.4L1368.82 147.9L1368.82 172.9L1347.17 185.4L1325.52 172.9L1325.52 147.9zM1368.82 172.9L1390.47 185.4L1390.47 210.4L1368.82 222.9L1347.17 210.4L1347.17 185.4zM1347.17 285.4L1368.82 297.9L1368.82 322.9L1347.17 335.4L1325.52 322.9L1325.52 297.9zM1368.82 547.9L1390.47 560.4L1390.47 585.4L1368.82 597.9L1347.17 585.4L1347.17 560.4zM1347.17 585.4L1368.82 597.9L1368.82 622.9L1347.17 635.4L1325.52 622.9L1325.52 597.9zM1368.82 622.9L1390.47 635.4L1390.47 660.4L1368.82 672.9L1347.17 660.4L1347.17 635.4zM1368.82 697.9L1390.47 710.4L1390.47 735.4L1368.82 747.9L1347.17 735.4L1347.17 710.4zM1368.82 772.9L1390.47 785.4L1390.47 810.4L1368.82 822.9L1347.17 810.4L1347.17 785.4zM1390.47 -14.6L1412.12 -2.1L1412.12 22.9L1390.47 35.4L1368.82 22.9L1368.82 -2.1zM1412.12 97.9L1433.77 110.4L1433.77 135.4L1412.12 147.9L1390.47 135.4L1390.47 110.4zM1390.47 135.4L1412.12 147.9L1412.12 172.9L1390.47 185.4L1368.82 172.9L1368.82 147.9zM1412.12 322.9L1433.77 335.4L1433.77 360.4L1412.12 372.9L1390.47 360.4L1390.47 335.4zM1390.47 360.4L1412.12 372.9L1412.12 397.9L1390.47 410.4L1368.82 397.9L1368.82 372.9zM1390.47 435.4L1412.12 447.9L1412.12 472.9L1390.47 485.4L1368.82 472.9L1368.82 447.9zM1412.12 472.9L1433.77 485.4L1433.77 510.4L1412.12 522.9L1390.47 510.4L1390.47 485.4zM1390.47 585.4L1412.12 597.9L1412.12 622.9L1390.47 635.4L1368.82 622.9L1368.82 597.9zM1412.12 622.9L1433.77 635.4L1433.77 660.4L1412.12 672.9L1390.47 660.4L1390.47 635.4zM1390.47 660.4L1412.12 672.9L1412.12 697.9L1390.47 710.4L1368.82 697.9L1368.82 672.9zM1412.12 697.9L1433.77 710.4L1433.77 735.4L1412.12 747.9L1390.47 735.4L1390.47 710.4zM1390.47 735.4L1412.12 747.9L1412.12 772.9L1390.47 785.4L1368.82 772.9L1368.82 747.9zM1412.12 772.9L1433.77 785.4L1433.77 810.4L1412.12 822.9L1390.47 810.4L1390.47 785.4zM1433.77 60.4L1455.42 72.9L1455.42 97.9L1433.77 110.4L1412.12 97.9L1412.12 72.9zM1455.42 172.9L1477.07 185.4L1477.07 210.4L1455.42 222.9L1433.77 210.4L1433.77 185.4zM1455.42 322.9L1477.07 335.4L1477.07 360.4L1455.42 372.9L1433.77 360.4L1433.77 335.4zM1433.77 435.4L1455.42 447.9L1455.42 472.9L1433.77 485.4L1412.12 472.9L1412.12 447.9zM1433.77 510.4L1455.42 522.9L1455.42 547.9L1433.77 560.4L1412.12 547.9L1412.12 522.9zM1433.77 585.4L1455.42 597.9L1455.42 622.9L1433.77 635.4L1412.12 622.9L1412.12 597.9zM1433.77 735.4L1455.42 747.9L1455.42 772.9L1433.77 785.4L1412.12 772.9L1412.12 747.9zM1455.42 772.9L1477.07 785.4L1477.07 810.4L1455.42 822.9L1433.77 810.4L1433.77 785.4zM1498.73 22.9L1520.38 35.4L1520.38 60.4L1498.73 72.9L1477.08 60.4L1477.08 35.4zM1498.73 172.9L1520.38 185.4L1520.38 210.4L1498.73 222.9L1477.08 210.4L1477.08 185.4zM1477.08 285.4L1498.73 297.9L1498.73 322.9L1477.08 335.4L1455.42 322.9L1455.42 297.9zM1477.08 435.4L1498.73 447.9L1498.73 472.9L1477.08 485.4L1455.42 472.9L1455.42 447.9zM1498.73 547.9L1520.38 560.4L1520.38 585.4L1498.73 597.9L1477.08 585.4L1477.08 560.4zM1477.08 660.4L1498.73 672.9L1498.73 697.9L1477.08 710.4L1455.42 697.9L1455.42 672.9zM1498.73 697.9L1520.38 710.4L1520.38 735.4L1498.73 747.9L1477.08 735.4L1477.08 710.4zM1477.08 735.4L1498.73 747.9L1498.73 772.9L1477.08 785.4L1455.42 772.9L1455.42 747.9zM1520.38 -14.6L1542.03 -2.1L1542.03 22.9L1520.38 35.4L1498.73 22.9L1498.73 -2.1zM1542.03 22.9L1563.68 35.4L1563.68 60.4L1542.03 72.9L1520.38 60.4L1520.38 35.4zM1520.38 210.4L1542.03 222.9L1542.03 247.9L1520.38 260.4L1498.73 247.9L1498.73 222.9zM1520.38 510.4L1542.03 522.9L1542.03 547.9L1520.38 560.4L1498.73 547.9L1498.73 522.9zM1520.38 585.4L1542.03 597.9L1542.03 622.9L1520.38 635.4L1498.73 622.9L1498.73 597.9zM1563.68 -14.6L1585.33 -2.1L1585.33 22.9L1563.68 35.4L1542.03 22.9L1542.03 -2.1zM1585.33 22.9L1606.98 35.4L1606.98 60.4L1585.33 72.9L1563.68 60.4L1563.68 35.4zM1563.68 210.4L1585.33 222.9L1585.33 247.9L1563.68 260.4L1542.03 247.9L1542.03 222.9zM1585.33 247.9L1606.98 260.4L1606.98 285.4L1585.33 297.9L1563.68 285.4L1563.68 260.4zM1563.68 510.4L1585.33 522.9L1585.33 547.9L1563.68 560.4L1542.03 547.9L1542.03 522.9zM1585.33 547.9L1606.98 560.4L1606.98 585.4L1585.33 597.9L1563.68 585.4L1563.68 560.4zM1585.33 622.9L1606.98 635.4L1606.98 660.4L1585.33 672.9L1563.68 660.4L1563.68 635.4zM1563.68 660.4L1585.33 672.9L1585.33 697.9L1563.68 710.4L1542.03 697.9L1542.03 672.9zM1585.33 697.9L1606.98 710.4L1606.98 735.4L1585.33 747.9L1563.68 735.4L1563.68 710.4zM1606.98 -14.6L1628.63 -2.1L1628.63 22.9L1606.98 35.4L1585.33 22.9L1585.33 -2.1zM1606.98 135.4L1628.63 147.9L1628.63 172.9L1606.98 185.4L1585.33 172.9L1585.33 147.9zM1606.98 210.4L1628.63 222.9L1628.63 247.9L1606.98 260.4L1585.33 247.9L1585.33 222.9zM1628.63 247.9L1650.28 260.4L1650.28 285.4L1628.63 297.9L1606.98 285.4L1606.98 260.4zM1628.63 397.9L1650.28 410.4L1650.28 435.4L1628.63 447.9L1606.98 435.4L1606.98 410.4zM1606.98 435.4L1628.63 447.9L1628.63 472.9L1606.98 485.4L1585.33 472.9L1585.33 447.9zM1628.63 472.9L1650.28 485.4L1650.28 510.4L1628.63 522.9L1606.98 510.4L1606.98 485.4zM1606.98 510.4L1628.63 522.9L1628.63 547.9L1606.98 560.4L1585.33 547.9L1585.33 522.9zM1628.63 547.9L1650.28 560.4L1650.28 585.4L1628.63 597.9L1606.98 585.4L1606.98 560.4zM1628.63 622.9L1650.28 635.4L1650.28 660.4L1628.63 672.9L1606.98 660.4L1606.98 635.4zM1671.94 22.9L1693.59 35.4L1693.59 60.4L1671.94 72.9L1650.29 60.4L1650.29 35.4zM1671.94 97.9L1693.59 110.4L1693.59 135.4L1671.94 147.9L1650.29 135.4L1650.29 110.4zM1650.29 135.4L1671.94 147.9L1671.94 172.9L1650.29 185.4L1628.63 172.9L1628.63 147.9zM1671.94 247.9L1693.59 260.4L1693.59 285.4L1671.94 297.9L1650.29 285.4L1650.29 260.4zM1650.29 435.4L1671.94 447.9L1671.94 472.9L1650.29 485.4L1628.63 472.9L1628.63 447.9zM1671.94 472.9L1693.59 485.4L1693.59 510.4L1671.94 522.9L1650.29 510.4L1650.29 485.4zM1671.94 622.9L1693.59 635.4L1693.59 660.4L1671.94 672.9L1650.29 660.4L1650.29 635.4zM1650.29 660.4L1671.94 672.9L1671.94 697.9L1650.29 710.4L1628.63 697.9L1628.63 672.9zM1693.59 -14.6L1715.24 -2.1L1715.24 22.9L1693.59 35.4L1671.94 22.9L1671.94 -2.1zM1693.59 60.4L1715.24 72.9L1715.24 97.9L1693.59 110.4L1671.94 97.9L1671.94 72.9zM1715.24 97.9L1736.89 110.4L1736.89 135.4L1715.24 147.9L1693.59 135.4L1693.59 110.4zM1693.59 135.4L1715.24 147.9L1715.24 172.9L1693.59 185.4L1671.94 172.9L1671.94 147.9zM1693.59 360.4L1715.24 372.9L1715.24 397.9L1693.59 410.4L1671.94 397.9L1671.94 372.9zM1715.24 397.9L1736.89 410.4L1736.89 435.4L1715.24 447.9L1693.59 435.4L1693.59 410.4zM1715.24 472.9L1736.89 485.4L1736.89 510.4L1715.24 522.9L1693.59 510.4L1693.59 485.4zM1715.24 547.9L1736.89 560.4L1736.89 585.4L1715.24 597.9L1693.59 585.4L1693.59 560.4zM1693.59 660.4L1715.24 672.9L1715.24 697.9L1693.59 710.4L1671.94 697.9L1671.94 672.9zM1715.24 697.9L1736.89 710.4L1736.89 735.4L1715.24 747.9L1693.59 735.4L1693.59 710.4zM1736.89 -14.6L1758.54 -2.1L1758.54 22.9L1736.89 35.4L1715.24 22.9L1715.24 -2.1zM1736.89 135.4L1758.54 147.9L1758.54 172.9L1736.89 185.4L1715.24 172.9L1715.24 147.9zM1758.54 172.9L1780.19 185.4L1780.19 210.4L1758.54 222.9L1736.89 210.4L1736.89 185.4zM1736.89 285.4L1758.54 297.9L1758.54 322.9L1736.89 335.4L1715.24 322.9L1715.24 297.9zM1758.54 322.9L1780.19 335.4L1780.19 360.4L1758.54 372.9L1736.89 360.4L1736.89 335.4zM1736.89 435.4L1758.54 447.9L1758.54 472.9L1736.89 485.4L1715.24 472.9L1715.24 447.9zM1758.54 472.9L1780.19 485.4L1780.19 510.4L1758.54 522.9L1736.89 510.4L1736.89 485.4zM1736.89 510.4L1758.54 522.9L1758.54 547.9L1736.89 560.4L1715.24 547.9L1715.24 522.9zM1758.54 547.9L1780.19 560.4L1780.19 585.4L1758.54 597.9L1736.89 585.4L1736.89 560.4zM1758.54 622.9L1780.19 635.4L1780.19 660.4L1758.54 672.9L1736.89 660.4L1736.89 635.4zM1736.89 735.4L1758.54 747.9L1758.54 772.9L1736.89 785.4L1715.24 772.9L1715.24 747.9zM1758.54 772.9L1780.19 785.4L1780.19 810.4L1758.54 822.9L1736.89 810.4L1736.89 785.4zM1780.19 -14.6L1801.84 -2.1L1801.84 22.9L1780.19 35.4L1758.54 22.9L1758.54 -2.1zM1780.19 60.4L1801.84 72.9L1801.84 97.9L1780.19 110.4L1758.54 97.9L1758.54 72.9zM1801.84 172.9L1823.49 185.4L1823.49 210.4L1801.84 222.9L1780.19 210.4L1780.19 185.4zM1780.19 435.4L1801.84 447.9L1801.84 472.9L1780.19 485.4L1758.54 472.9L1758.54 447.9zM1780.19 510.4L1801.84 522.9L1801.84 547.9L1780.19 560.4L1758.54 547.9L1758.54 522.9zM1801.84 547.9L1823.49 560.4L1823.49 585.4L1801.84 597.9L1780.19 585.4L1780.19 560.4zM1801.84 622.9L1823.49 635.4L1823.49 660.4L1801.84 672.9L1780.19 660.4L1780.19 635.4zM1780.19 735.4L1801.84 747.9L1801.84 772.9L1780.19 785.4L1758.54 772.9L1758.54 747.9zM1801.84 772.9L1823.49 785.4L1823.49 810.4L1801.84 822.9L1780.19 810.4L1780.19 785.4zM1845.15 22.9L1866.8 35.4L1866.8 60.4L1845.15 72.9L1823.5 60.4L1823.5 35.4zM1845.15 97.9L1866.8 110.4L1866.8 135.4L1845.15 147.9L1823.5 135.4L1823.5 110.4zM1823.5 210.4L1845.15 222.9L1845.15 247.9L1823.5 260.4L1801.84 247.9L1801.84 222.9zM1845.15 247.9L1866.8 260.4L1866.8 285.4L1845.15 297.9L1823.5 285.4L1823.5 260.4zM1845.15 397.9L1866.8 410.4L1866.8 435.4L1845.15 447.9L1823.5 435.4L1823.5 410.4zM1823.5 510.4L1845.15 522.9L1845.15 547.9L1823.5 560.4L1801.84 547.9L1801.84 522.9zM1845.15 697.9L1866.8 710.4L1866.8 735.4L1845.15 747.9L1823.5 735.4L1823.5 710.4zM1866.8 60.4L1888.45 72.9L1888.45 97.9L1866.8 110.4L1845.15 97.9L1845.15 72.9zM1866.8 135.4L1888.45 147.9L1888.45 172.9L1866.8 185.4L1845.15 172.9L1845.15 147.9zM1888.45 172.9L1910.1 185.4L1910.1 210.4L1888.45 222.9L1866.8 210.4L1866.8 185.4zM1888.45 247.9L1910.1 260.4L1910.1 285.4L1888.45 297.9L1866.8 285.4L1866.8 260.4zM1888.45 322.9L1910.1 335.4L1910.1 360.4L1888.45 372.9L1866.8 360.4L1866.8 335.4zM1866.8 360.4L1888.45 372.9L1888.45 397.9L1866.8 410.4L1845.15 397.9L1845.15 372.9zM1888.45 397.9L1910.1 410.4L1910.1 435.4L1888.45 447.9L1866.8 435.4L1866.8 410.4zM1866.8 435.4L1888.45 447.9L1888.45 472.9L1866.8 485.4L1845.15 472.9L1845.15 447.9zM1866.8 510.4L1888.45 522.9L1888.45 547.9L1866.8 560.4L1845.15 547.9L1845.15 522.9zM1866.8 585.4L1888.45 597.9L1888.45 622.9L1866.8 635.4L1845.15 622.9L1845.15 597.9zM1866.8 660.4L1888.45 672.9L1888.45 697.9L1866.8 710.4L1845.15 697.9L1845.15 672.9zM1888.45 697.9L1910.1 710.4L1910.1 735.4L1888.45 747.9L1866.8 735.4L1866.8 710.4zM1910.1 -14.6L1931.75 -2.1L1931.75 22.9L1910.1 35.4L1888.45 22.9L1888.45 -2.1zM1910.1 60.4L1931.75 72.9L1931.75 97.9L1910.1 110.4L1888.45 97.9L1888.45 72.9zM1931.75 247.9L1953.4 260.4L1953.4 285.4L1931.75 297.9L1910.1 285.4L1910.1 260.4zM1910.1 510.4L1931.75 522.9L1931.75 547.9L1910.1 560.4L1888.45 547.9L1888.45 522.9zM1931.75 547.9L1953.4 560.4L1953.4 585.4L1931.75 597.9L1910.1 585.4L1910.1 560.4zM1910.1 660.4L1931.75 672.9L1931.75 697.9L1910.1 710.4L1888.45 697.9L1888.45 672.9zM1931.75 697.9L1953.4 710.4L1953.4 735.4L1931.75 747.9L1910.1 735.4L1910.1 710.4zM1910.1 735.4L1931.75 747.9L1931.75 772.9L1910.1 785.4L1888.45 772.9L1888.45 747.9zM1931.75 772.9L1953.4 785.4L1953.4 810.4L1931.75 822.9L1910.1 810.4L1910.1 785.4z" stroke="url(#SvgjsLinearGradient32596)" stroke-width="2"></path></g><defs><mask id="SvgjsMask32593"><rect width="1920" height="800" fill="#ffffff"></rect></mask><linearGradient x1="0%" y1="50%" x2="100%" y2="50%" gradientUnits="userSpaceOnUse" id="SvgjsLinearGradient32594"><stop stop-color="rgba(4, 15, 27, 0.93)" offset="0.52"></stop><stop stop-color="rgba(0, 0, 0, 1)" offset="0.96"></stop></linearGradient><linearGradient x1="1920" y1="400" x2="0" y2="400" gradientUnits="userSpaceOnUse" id="SvgjsLinearGradient32595"><stop stop-color="rgba(252, 163, 0, 1)" offset="0.18"></stop><stop stop-color="rgba(1, 126, 255, 0)" offset="0.51"></stop></linearGradient><linearGradient x1="0" y1="400" x2="1920" y2="400" gradientUnits="userSpaceOnUse" id="SvgjsLinearGradient32596"><stop stop-color="rgba(6, 28, 52, 1)" offset="0.41"></stop><stop stop-color="rgba(255, 165, 1, 0.3)" offset="0.98"></stop></linearGradient></defs></svg>