<svg xmlns="http://www.w3.org/2000/svg" version="1.1" xmlns:xlink="http://www.w3.org/1999/xlink" xmlns:svgjs="http://svgjs.com/svgjs" width="400" height="800" preserveAspectRatio="none" viewBox="0 0 400 800"><g mask="url(&quot;#SvgjsMask41365&quot;)" fill="none"><rect width="400" height="800" x="0" y="0" fill="url(#SvgjsLinearGradient41366)"></rect><path d="M41.7 138.17L72.88 156.17L72.88 192.17L41.7 210.17L10.52 192.17L10.52 156.17zM41.7 246.17L72.88 264.17L72.88 300.17L41.7 318.17L10.52 300.17L10.52 264.17zM41.7 462.17L72.88 480.17L72.88 516.17L41.7 534.17L10.52 516.17L10.52 480.17zM41.7 786.17L72.88 804.17L72.88 840.17L41.7 858.17L10.52 840.17L10.52 804.17zM104.05 30.17L135.23 48.17L135.23 84.17L104.05 102.17L72.88 84.17L72.88 48.17zM104.05 462.17L135.23 480.17L135.23 516.17L104.05 534.17L72.88 516.17L72.88 480.17zM72.88 516.17L104.05 534.17L104.05 570.17L72.88 588.17L41.7 570.17L41.7 534.17zM166.41 678.17L197.59 696.17L197.59 732.17L166.41 750.17L135.23 732.17L135.23 696.17zM166.41 786.17L197.59 804.17L197.59 840.17L166.41 858.17L135.23 840.17L135.23 804.17zM228.76 246.17L259.94 264.17L259.94 300.17L228.76 318.17L197.59 300.17L197.59 264.17zM228.76 678.17L259.94 696.17L259.94 732.17L228.76 750.17L197.59 732.17L197.59 696.17zM228.76 786.17L259.94 804.17L259.94 840.17L228.76 858.17L197.59 840.17L197.59 804.17zM291.12 462.17L322.3 480.17L322.3 516.17L291.12 534.17L259.94 516.17L259.94 480.17zM291.12 786.17L322.3 804.17L322.3 840.17L291.12 858.17L259.94 840.17L259.94 804.17zM353.48 246.17L384.65 264.17L384.65 300.17L353.48 318.17L322.3 300.17L322.3 264.17zM353.48 462.17L384.65 480.17L384.65 516.17L353.48 534.17L322.3 516.17L322.3 480.17zM415.83 462.17L447.01 480.17L447.01 516.17L415.83 534.17L384.65 516.17L384.65 480.17zM384.65 516.17L415.83 534.17L415.83 570.17L384.65 588.17L353.48 570.17L353.48 534.17zM415.83 678.17L447.01 696.17L447.01 732.17L415.83 750.17L384.65 732.17L384.65 696.17z" stroke="url(#SvgjsLinearGradient41367)" stroke-width="2"></path><path d="M38.1 138.17 a3.6 3.6 0 1 0 7.2 0 a3.6 3.6 0 1 0 -7.2 0zM69.28 156.17 a3.6 3.6 0 1 0 7.2 0 a3.6 3.6 0 1 0 -7.2 0zM69.28 192.17 a3.6 3.6 0 1 0 7.2 0 a3.6 3.6 0 1 0 -7.2 0zM38.1 210.17 a3.6 3.6 0 1 0 7.2 0 a3.6 3.6 0 1 0 -7.2 0zM6.92 192.17 a3.6 3.6 0 1 0 7.2 0 a3.6 3.6 0 1 0 -7.2 0zM6.92 156.17 a3.6 3.6 0 1 0 7.2 0 a3.6 3.6 0 1 0 -7.2 0zM38.1 246.17 a3.6 3.6 0 1 0 7.2 0 a3.6 3.6 0 1 0 -7.2 0zM69.28 264.17 a3.6 3.6 0 1 0 7.2 0 a3.6 3.6 0 1 0 -7.2 0zM69.28 300.17 a3.6 3.6 0 1 0 7.2 0 a3.6 3.6 0 1 0 -7.2 0zM38.1 318.17 a3.6 3.6 0 1 0 7.2 0 a3.6 3.6 0 1 0 -7.2 0zM6.92 300.17 a3.6 3.6 0 1 0 7.2 0 a3.6 3.6 0 1 0 -7.2 0zM6.92 264.17 a3.6 3.6 0 1 0 7.2 0 a3.6 3.6 0 1 0 -7.2 0zM38.1 462.17 a3.6 3.6 0 1 0 7.2 0 a3.6 3.6 0 1 0 -7.2 0zM69.28 480.17 a3.6 3.6 0 1 0 7.2 0 a3.6 3.6 0 1 0 -7.2 0zM69.28 516.17 a3.6 3.6 0 1 0 7.2 0 a3.6 3.6 0 1 0 -7.2 0zM38.1 534.17 a3.6 3.6 0 1 0 7.2 0 a3.6 3.6 0 1 0 -7.2 0zM6.92 516.17 a3.6 3.6 0 1 0 7.2 0 a3.6 3.6 0 1 0 -7.2 0zM6.92 480.17 a3.6 3.6 0 1 0 7.2 0 a3.6 3.6 0 1 0 -7.2 0zM38.1 786.17 a3.6 3.6 0 1 0 7.2 0 a3.6 3.6 0 1 0 -7.2 0zM69.28 804.17 a3.6 3.6 0 1 0 7.2 0 a3.6 3.6 0 1 0 -7.2 0zM69.28 840.17 a3.6 3.6 0 1 0 7.2 0 a3.6 3.6 0 1 0 -7.2 0zM38.1 858.17 a3.6 3.6 0 1 0 7.2 0 a3.6 3.6 0 1 0 -7.2 0zM6.92 840.17 a3.6 3.6 0 1 0 7.2 0 a3.6 3.6 0 1 0 -7.2 0zM6.92 804.17 a3.6 3.6 0 1 0 7.2 0 a3.6 3.6 0 1 0 -7.2 0zM100.45 30.17 a3.6 3.6 0 1 0 7.2 0 a3.6 3.6 0 1 0 -7.2 0zM131.63 48.17 a3.6 3.6 0 1 0 7.2 0 a3.6 3.6 0 1 0 -7.2 0zM131.63 84.17 a3.6 3.6 0 1 0 7.2 0 a3.6 3.6 0 1 0 -7.2 0zM100.45 102.17 a3.6 3.6 0 1 0 7.2 0 a3.6 3.6 0 1 0 -7.2 0zM69.28 84.17 a3.6 3.6 0 1 0 7.2 0 a3.6 3.6 0 1 0 -7.2 0zM69.28 48.17 a3.6 3.6 0 1 0 7.2 0 a3.6 3.6 0 1 0 -7.2 0zM100.45 462.17 a3.6 3.6 0 1 0 7.2 0 a3.6 3.6 0 1 0 -7.2 0zM131.63 480.17 a3.6 3.6 0 1 0 7.2 0 a3.6 3.6 0 1 0 -7.2 0zM131.63 516.17 a3.6 3.6 0 1 0 7.2 0 a3.6 3.6 0 1 0 -7.2 0zM100.45 534.17 a3.6 3.6 0 1 0 7.2 0 a3.6 3.6 0 1 0 -7.2 0zM100.45 570.17 a3.6 3.6 0 1 0 7.2 0 a3.6 3.6 0 1 0 -7.2 0zM69.28 588.17 a3.6 3.6 0 1 0 7.2 0 a3.6 3.6 0 1 0 -7.2 0zM38.1 570.17 a3.6 3.6 0 1 0 7.2 0 a3.6 3.6 0 1 0 -7.2 0zM162.81 678.17 a3.6 3.6 0 1 0 7.2 0 a3.6 3.6 0 1 0 -7.2 0zM193.99 696.17 a3.6 3.6 0 1 0 7.2 0 a3.6 3.6 0 1 0 -7.2 0zM193.99 732.17 a3.6 3.6 0 1 0 7.2 0 a3.6 3.6 0 1 0 -7.2 0zM162.81 750.17 a3.6 3.6 0 1 0 7.2 0 a3.6 3.6 0 1 0 -7.2 0zM131.63 732.17 a3.6 3.6 0 1 0 7.2 0 a3.6 3.6 0 1 0 -7.2 0zM131.63 696.17 a3.6 3.6 0 1 0 7.2 0 a3.6 3.6 0 1 0 -7.2 0zM162.81 786.17 a3.6 3.6 0 1 0 7.2 0 a3.6 3.6 0 1 0 -7.2 0zM193.99 804.17 a3.6 3.6 0 1 0 7.2 0 a3.6 3.6 0 1 0 -7.2 0zM193.99 840.17 a3.6 3.6 0 1 0 7.2 0 a3.6 3.6 0 1 0 -7.2 0zM162.81 858.17 a3.6 3.6 0 1 0 7.2 0 a3.6 3.6 0 1 0 -7.2 0zM131.63 840.17 a3.6 3.6 0 1 0 7.2 0 a3.6 3.6 0 1 0 -7.2 0zM131.63 804.17 a3.6 3.6 0 1 0 7.2 0 a3.6 3.6 0 1 0 -7.2 0zM225.16 246.17 a3.6 3.6 0 1 0 7.2 0 a3.6 3.6 0 1 0 -7.2 0zM256.34 264.17 a3.6 3.6 0 1 0 7.2 0 a3.6 3.6 0 1 0 -7.2 0zM256.34 300.17 a3.6 3.6 0 1 0 7.2 0 a3.6 3.6 0 1 0 -7.2 0zM225.16 318.17 a3.6 3.6 0 1 0 7.2 0 a3.6 3.6 0 1 0 -7.2 0zM193.99 300.17 a3.6 3.6 0 1 0 7.2 0 a3.6 3.6 0 1 0 -7.2 0zM193.99 264.17 a3.6 3.6 0 1 0 7.2 0 a3.6 3.6 0 1 0 -7.2 0zM225.16 678.17 a3.6 3.6 0 1 0 7.2 0 a3.6 3.6 0 1 0 -7.2 0zM256.34 696.17 a3.6 3.6 0 1 0 7.2 0 a3.6 3.6 0 1 0 -7.2 0zM256.34 732.17 a3.6 3.6 0 1 0 7.2 0 a3.6 3.6 0 1 0 -7.2 0zM225.16 750.17 a3.6 3.6 0 1 0 7.2 0 a3.6 3.6 0 1 0 -7.2 0zM225.16 786.17 a3.6 3.6 0 1 0 7.2 0 a3.6 3.6 0 1 0 -7.2 0zM256.34 804.17 a3.6 3.6 0 1 0 7.2 0 a3.6 3.6 0 1 0 -7.2 0zM256.34 840.17 a3.6 3.6 0 1 0 7.2 0 a3.6 3.6 0 1 0 -7.2 0zM225.16 858.17 a3.6 3.6 0 1 0 7.2 0 a3.6 3.6 0 1 0 -7.2 0zM287.52 462.17 a3.6 3.6 0 1 0 7.2 0 a3.6 3.6 0 1 0 -7.2 0zM318.7 480.17 a3.6 3.6 0 1 0 7.2 0 a3.6 3.6 0 1 0 -7.2 0zM318.7 516.17 a3.6 3.6 0 1 0 7.2 0 a3.6 3.6 0 1 0 -7.2 0zM287.52 534.17 a3.6 3.6 0 1 0 7.2 0 a3.6 3.6 0 1 0 -7.2 0zM256.34 516.17 a3.6 3.6 0 1 0 7.2 0 a3.6 3.6 0 1 0 -7.2 0zM256.34 480.17 a3.6 3.6 0 1 0 7.2 0 a3.6 3.6 0 1 0 -7.2 0zM287.52 786.17 a3.6 3.6 0 1 0 7.2 0 a3.6 3.6 0 1 0 -7.2 0zM318.7 804.17 a3.6 3.6 0 1 0 7.2 0 a3.6 3.6 0 1 0 -7.2 0zM318.7 840.17 a3.6 3.6 0 1 0 7.2 0 a3.6 3.6 0 1 0 -7.2 0zM287.52 858.17 a3.6 3.6 0 1 0 7.2 0 a3.6 3.6 0 1 0 -7.2 0zM349.88 246.17 a3.6 3.6 0 1 0 7.2 0 a3.6 3.6 0 1 0 -7.2 0zM381.05 264.17 a3.6 3.6 0 1 0 7.2 0 a3.6 3.6 0 1 0 -7.2 0zM381.05 300.17 a3.6 3.6 0 1 0 7.2 0 a3.6 3.6 0 1 0 -7.2 0zM349.88 318.17 a3.6 3.6 0 1 0 7.2 0 a3.6 3.6 0 1 0 -7.2 0zM318.7 300.17 a3.6 3.6 0 1 0 7.2 0 a3.6 3.6 0 1 0 -7.2 0zM318.7 264.17 a3.6 3.6 0 1 0 7.2 0 a3.6 3.6 0 1 0 -7.2 0zM349.88 462.17 a3.6 3.6 0 1 0 7.2 0 a3.6 3.6 0 1 0 -7.2 0zM381.05 480.17 a3.6 3.6 0 1 0 7.2 0 a3.6 3.6 0 1 0 -7.2 0zM381.05 516.17 a3.6 3.6 0 1 0 7.2 0 a3.6 3.6 0 1 0 -7.2 0zM349.88 534.17 a3.6 3.6 0 1 0 7.2 0 a3.6 3.6 0 1 0 -7.2 0zM412.23 462.17 a3.6 3.6 0 1 0 7.2 0 a3.6 3.6 0 1 0 -7.2 0zM443.41 480.17 a3.6 3.6 0 1 0 7.2 0 a3.6 3.6 0 1 0 -7.2 0zM443.41 516.17 a3.6 3.6 0 1 0 7.2 0 a3.6 3.6 0 1 0 -7.2 0zM412.23 534.17 a3.6 3.6 0 1 0 7.2 0 a3.6 3.6 0 1 0 -7.2 0zM412.23 570.17 a3.6 3.6 0 1 0 7.2 0 a3.6 3.6 0 1 0 -7.2 0zM381.05 588.17 a3.6 3.6 0 1 0 7.2 0 a3.6 3.6 0 1 0 -7.2 0zM349.88 570.17 a3.6 3.6 0 1 0 7.2 0 a3.6 3.6 0 1 0 -7.2 0zM412.23 678.17 a3.6 3.6 0 1 0 7.2 0 a3.6 3.6 0 1 0 -7.2 0zM443.41 696.17 a3.6 3.6 0 1 0 7.2 0 a3.6 3.6 0 1 0 -7.2 0zM443.41 732.17 a3.6 3.6 0 1 0 7.2 0 a3.6 3.6 0 1 0 -7.2 0zM412.23 750.17 a3.6 3.6 0 1 0 7.2 0 a3.6 3.6 0 1 0 -7.2 0zM381.05 732.17 a3.6 3.6 0 1 0 7.2 0 a3.6 3.6 0 1 0 -7.2 0zM381.05 696.17 a3.6 3.6 0 1 0 7.2 0 a3.6 3.6 0 1 0 -7.2 0z" fill="url(#SvgjsLinearGradient41367)"></path></g><defs><mask id="SvgjsMask41365"><rect width="400" height="800" fill="#ffffff"></rect></mask><linearGradient x1="-25%" y1="12.5%" x2="125%" y2="87.5%" gradientUnits="userSpaceOnUse" id="SvgjsLinearGradient41366"><stop stop-color="rgba(12, 36, 66, 0)" offset="0.57"></stop><stop stop-color="rgba(12, 36, 66, 0)" offset="1"></stop></linearGradient><linearGradient x1="500" y1="100" x2="-100" y2="700" gradientUnits="userSpaceOnUse" id="SvgjsLinearGradient41367"><stop stop-color="rgba(252, 163, 0, 1)" offset="0.02"></stop><stop stop-color="rgba(1, 126, 255, 0)" offset="0.92"></stop></linearGradient></defs></svg>