<svg xmlns="http://www.w3.org/2000/svg" version="1.1" xmlns:xlink="http://www.w3.org/1999/xlink" xmlns:svgjs="http://svgjs.com/svgjs" width="400" height="800" preserveAspectRatio="none" viewBox="0 0 400 800"><g mask="url(&quot;#SvgjsMask37405&quot;)" fill="none"><rect width="400" height="800" x="0" y="0" fill="url(#SvgjsLinearGradient37406)"></rect><path d="M31.53 -2.48L81.76 26.52L81.76 84.52L31.53 113.52L-18.7 84.52L-18.7 26.52zM31.53 171.52L81.76 200.52L81.76 258.52L31.53 287.52L-18.7 258.52L-18.7 200.52zM31.53 345.52L81.76 374.52L81.76 432.52L31.53 461.52L-18.7 432.52L-18.7 374.52zM81.76 432.52L131.99 461.52L131.99 519.52L81.76 548.52L31.53 519.52L31.53 461.52zM31.53 693.52L81.76 722.52L81.76 780.52L31.53 809.52L-18.7 780.52L-18.7 722.52zM81.76 780.52L131.99 809.52L131.99 867.52L81.76 896.52L31.53 867.52L31.53 809.52zM182.22 84.52L232.45 113.52L232.45 171.52L182.22 200.52L131.99 171.52L131.99 113.52zM131.99 171.52L182.22 200.52L182.22 258.52L131.99 287.52L81.76 258.52L81.76 200.52zM131.99 519.52L182.22 548.52L182.22 606.52L131.99 635.52L81.76 606.52L81.76 548.52zM182.22 780.52L232.45 809.52L232.45 867.52L182.22 896.52L131.99 867.52L131.99 809.52zM232.45 171.52L282.68 200.52L282.68 258.52L232.45 287.52L182.22 258.52L182.22 200.52zM232.45 345.52L282.68 374.52L282.68 432.52L232.45 461.52L182.22 432.52L182.22 374.52zM232.45 693.52L282.68 722.52L282.68 780.52L232.45 809.52L182.22 780.52L182.22 722.52zM282.68 780.52L332.92 809.52L332.92 867.52L282.68 896.52L232.45 867.52L232.45 809.52zM383.15 258.52L433.38 287.52L433.38 345.52L383.15 374.52L332.92 345.52L332.92 287.52zM332.92 345.52L383.15 374.52L383.15 432.52L332.92 461.52L282.68 432.52L282.68 374.52zM332.92 519.52L383.15 548.52L383.15 606.52L332.92 635.52L282.68 606.52L282.68 548.52zM332.92 693.52L383.15 722.52L383.15 780.52L332.92 809.52L282.68 780.52L282.68 722.52z" stroke="url(#SvgjsLinearGradient37407)" stroke-width="2"></path><path d="M25.73 -2.48 a5.8 5.8 0 1 0 11.6 0 a5.8 5.8 0 1 0 -11.6 0zM75.96 26.52 a5.8 5.8 0 1 0 11.6 0 a5.8 5.8 0 1 0 -11.6 0zM75.96 84.52 a5.8 5.8 0 1 0 11.6 0 a5.8 5.8 0 1 0 -11.6 0zM25.73 113.52 a5.8 5.8 0 1 0 11.6 0 a5.8 5.8 0 1 0 -11.6 0zM-24.5 84.52 a5.8 5.8 0 1 0 11.6 0 a5.8 5.8 0 1 0 -11.6 0zM-24.5 26.52 a5.8 5.8 0 1 0 11.6 0 a5.8 5.8 0 1 0 -11.6 0zM25.73 171.52 a5.8 5.8 0 1 0 11.6 0 a5.8 5.8 0 1 0 -11.6 0zM75.96 200.52 a5.8 5.8 0 1 0 11.6 0 a5.8 5.8 0 1 0 -11.6 0zM75.96 258.52 a5.8 5.8 0 1 0 11.6 0 a5.8 5.8 0 1 0 -11.6 0zM25.73 287.52 a5.8 5.8 0 1 0 11.6 0 a5.8 5.8 0 1 0 -11.6 0zM-24.5 258.52 a5.8 5.8 0 1 0 11.6 0 a5.8 5.8 0 1 0 -11.6 0zM-24.5 200.52 a5.8 5.8 0 1 0 11.6 0 a5.8 5.8 0 1 0 -11.6 0zM25.73 345.52 a5.8 5.8 0 1 0 11.6 0 a5.8 5.8 0 1 0 -11.6 0zM75.96 374.52 a5.8 5.8 0 1 0 11.6 0 a5.8 5.8 0 1 0 -11.6 0zM75.96 432.52 a5.8 5.8 0 1 0 11.6 0 a5.8 5.8 0 1 0 -11.6 0zM25.73 461.52 a5.8 5.8 0 1 0 11.6 0 a5.8 5.8 0 1 0 -11.6 0zM-24.5 432.52 a5.8 5.8 0 1 0 11.6 0 a5.8 5.8 0 1 0 -11.6 0zM-24.5 374.52 a5.8 5.8 0 1 0 11.6 0 a5.8 5.8 0 1 0 -11.6 0zM126.19 461.52 a5.8 5.8 0 1 0 11.6 0 a5.8 5.8 0 1 0 -11.6 0zM126.19 519.52 a5.8 5.8 0 1 0 11.6 0 a5.8 5.8 0 1 0 -11.6 0zM75.96 548.52 a5.8 5.8 0 1 0 11.6 0 a5.8 5.8 0 1 0 -11.6 0zM25.73 519.52 a5.8 5.8 0 1 0 11.6 0 a5.8 5.8 0 1 0 -11.6 0zM25.73 693.52 a5.8 5.8 0 1 0 11.6 0 a5.8 5.8 0 1 0 -11.6 0zM75.96 722.52 a5.8 5.8 0 1 0 11.6 0 a5.8 5.8 0 1 0 -11.6 0zM75.96 780.52 a5.8 5.8 0 1 0 11.6 0 a5.8 5.8 0 1 0 -11.6 0zM25.73 809.52 a5.8 5.8 0 1 0 11.6 0 a5.8 5.8 0 1 0 -11.6 0zM-24.5 780.52 a5.8 5.8 0 1 0 11.6 0 a5.8 5.8 0 1 0 -11.6 0zM-24.5 722.52 a5.8 5.8 0 1 0 11.6 0 a5.8 5.8 0 1 0 -11.6 0zM126.19 809.52 a5.8 5.8 0 1 0 11.6 0 a5.8 5.8 0 1 0 -11.6 0zM126.19 867.52 a5.8 5.8 0 1 0 11.6 0 a5.8 5.8 0 1 0 -11.6 0zM75.96 896.52 a5.8 5.8 0 1 0 11.6 0 a5.8 5.8 0 1 0 -11.6 0zM25.73 867.52 a5.8 5.8 0 1 0 11.6 0 a5.8 5.8 0 1 0 -11.6 0zM176.42 84.52 a5.8 5.8 0 1 0 11.6 0 a5.8 5.8 0 1 0 -11.6 0zM226.65 113.52 a5.8 5.8 0 1 0 11.6 0 a5.8 5.8 0 1 0 -11.6 0zM226.65 171.52 a5.8 5.8 0 1 0 11.6 0 a5.8 5.8 0 1 0 -11.6 0zM176.42 200.52 a5.8 5.8 0 1 0 11.6 0 a5.8 5.8 0 1 0 -11.6 0zM126.19 171.52 a5.8 5.8 0 1 0 11.6 0 a5.8 5.8 0 1 0 -11.6 0zM126.19 113.52 a5.8 5.8 0 1 0 11.6 0 a5.8 5.8 0 1 0 -11.6 0zM176.42 258.52 a5.8 5.8 0 1 0 11.6 0 a5.8 5.8 0 1 0 -11.6 0zM126.19 287.52 a5.8 5.8 0 1 0 11.6 0 a5.8 5.8 0 1 0 -11.6 0zM176.42 548.52 a5.8 5.8 0 1 0 11.6 0 a5.8 5.8 0 1 0 -11.6 0zM176.42 606.52 a5.8 5.8 0 1 0 11.6 0 a5.8 5.8 0 1 0 -11.6 0zM126.19 635.52 a5.8 5.8 0 1 0 11.6 0 a5.8 5.8 0 1 0 -11.6 0zM75.96 606.52 a5.8 5.8 0 1 0 11.6 0 a5.8 5.8 0 1 0 -11.6 0zM176.42 780.52 a5.8 5.8 0 1 0 11.6 0 a5.8 5.8 0 1 0 -11.6 0zM226.65 809.52 a5.8 5.8 0 1 0 11.6 0 a5.8 5.8 0 1 0 -11.6 0zM226.65 867.52 a5.8 5.8 0 1 0 11.6 0 a5.8 5.8 0 1 0 -11.6 0zM176.42 896.52 a5.8 5.8 0 1 0 11.6 0 a5.8 5.8 0 1 0 -11.6 0zM276.88 200.52 a5.8 5.8 0 1 0 11.6 0 a5.8 5.8 0 1 0 -11.6 0zM276.88 258.52 a5.8 5.8 0 1 0 11.6 0 a5.8 5.8 0 1 0 -11.6 0zM226.65 287.52 a5.8 5.8 0 1 0 11.6 0 a5.8 5.8 0 1 0 -11.6 0zM226.65 345.52 a5.8 5.8 0 1 0 11.6 0 a5.8 5.8 0 1 0 -11.6 0zM276.88 374.52 a5.8 5.8 0 1 0 11.6 0 a5.8 5.8 0 1 0 -11.6 0zM276.88 432.52 a5.8 5.8 0 1 0 11.6 0 a5.8 5.8 0 1 0 -11.6 0zM226.65 461.52 a5.8 5.8 0 1 0 11.6 0 a5.8 5.8 0 1 0 -11.6 0zM176.42 432.52 a5.8 5.8 0 1 0 11.6 0 a5.8 5.8 0 1 0 -11.6 0zM176.42 374.52 a5.8 5.8 0 1 0 11.6 0 a5.8 5.8 0 1 0 -11.6 0zM226.65 693.52 a5.8 5.8 0 1 0 11.6 0 a5.8 5.8 0 1 0 -11.6 0zM276.88 722.52 a5.8 5.8 0 1 0 11.6 0 a5.8 5.8 0 1 0 -11.6 0zM276.88 780.52 a5.8 5.8 0 1 0 11.6 0 a5.8 5.8 0 1 0 -11.6 0zM176.42 722.52 a5.8 5.8 0 1 0 11.6 0 a5.8 5.8 0 1 0 -11.6 0zM327.12 809.52 a5.8 5.8 0 1 0 11.6 0 a5.8 5.8 0 1 0 -11.6 0zM327.12 867.52 a5.8 5.8 0 1 0 11.6 0 a5.8 5.8 0 1 0 -11.6 0zM276.88 896.52 a5.8 5.8 0 1 0 11.6 0 a5.8 5.8 0 1 0 -11.6 0zM377.35 258.52 a5.8 5.8 0 1 0 11.6 0 a5.8 5.8 0 1 0 -11.6 0zM427.58 287.52 a5.8 5.8 0 1 0 11.6 0 a5.8 5.8 0 1 0 -11.6 0zM427.58 345.52 a5.8 5.8 0 1 0 11.6 0 a5.8 5.8 0 1 0 -11.6 0zM377.35 374.52 a5.8 5.8 0 1 0 11.6 0 a5.8 5.8 0 1 0 -11.6 0zM327.12 345.52 a5.8 5.8 0 1 0 11.6 0 a5.8 5.8 0 1 0 -11.6 0zM327.12 287.52 a5.8 5.8 0 1 0 11.6 0 a5.8 5.8 0 1 0 -11.6 0zM377.35 432.52 a5.8 5.8 0 1 0 11.6 0 a5.8 5.8 0 1 0 -11.6 0zM327.12 461.52 a5.8 5.8 0 1 0 11.6 0 a5.8 5.8 0 1 0 -11.6 0zM327.12 519.52 a5.8 5.8 0 1 0 11.6 0 a5.8 5.8 0 1 0 -11.6 0zM377.35 548.52 a5.8 5.8 0 1 0 11.6 0 a5.8 5.8 0 1 0 -11.6 0zM377.35 606.52 a5.8 5.8 0 1 0 11.6 0 a5.8 5.8 0 1 0 -11.6 0zM327.12 635.52 a5.8 5.8 0 1 0 11.6 0 a5.8 5.8 0 1 0 -11.6 0zM276.88 606.52 a5.8 5.8 0 1 0 11.6 0 a5.8 5.8 0 1 0 -11.6 0zM276.88 548.52 a5.8 5.8 0 1 0 11.6 0 a5.8 5.8 0 1 0 -11.6 0zM327.12 693.52 a5.8 5.8 0 1 0 11.6 0 a5.8 5.8 0 1 0 -11.6 0zM377.35 722.52 a5.8 5.8 0 1 0 11.6 0 a5.8 5.8 0 1 0 -11.6 0zM377.35 780.52 a5.8 5.8 0 1 0 11.6 0 a5.8 5.8 0 1 0 -11.6 0z" fill="url(#SvgjsLinearGradient37407)"></path><path d="M0.02 -9.44L13.01 -1.94L13.01 13.06L0.02 20.56L-12.97 13.06L-12.97 -1.94zM0.02 125.56L13.01 133.06L13.01 148.06L0.02 155.56L-12.97 148.06L-12.97 133.06zM13.01 148.06L26 155.56L26 170.56L13.01 178.06L0.02 170.56L0.02 155.56zM0.02 170.56L13.01 178.06L13.01 193.06L0.02 200.56L-12.97 193.06L-12.97 178.06zM0.02 215.56L13.01 223.06L13.01 238.06L0.02 245.56L-12.97 238.06L-12.97 223.06zM13.01 238.06L26 245.56L26 260.56L13.01 268.06L0.02 260.56L0.02 245.56zM13.01 283.06L26 290.56L26 305.56L13.01 313.06L0.02 305.56L0.02 290.56zM13.01 328.06L26 335.56L26 350.56L13.01 358.06L0.02 350.56L0.02 335.56zM13.01 418.06L26 425.56L26 440.56L13.01 448.06L0.02 440.56L0.02 425.56zM0.02 440.56L13.01 448.06L13.01 463.06L0.02 470.56L-12.97 463.06L-12.97 448.06zM13.01 508.06L26 515.56L26 530.56L13.01 538.06L0.02 530.56L0.02 515.56zM13.01 598.06L26 605.56L26 620.56L13.01 628.06L0.02 620.56L0.02 605.56zM0.02 620.56L13.01 628.06L13.01 643.06L0.02 650.56L-12.97 643.06L-12.97 628.06zM38.99 463.06L51.98 470.56L51.98 485.56L38.99 493.06L26 485.56L26 470.56zM26 620.56L38.99 628.06L38.99 643.06L26 650.56L13.01 643.06L13.01 628.06zM38.99 733.06L51.98 740.56L51.98 755.56L38.99 763.06L26 755.56L26 740.56zM64.97 13.06L77.96 20.56L77.96 35.56L64.97 43.06L51.98 35.56L51.98 20.56zM64.97 103.06L77.96 110.56L77.96 125.56L64.97 133.06L51.98 125.56L51.98 110.56zM51.98 125.56L64.97 133.06L64.97 148.06L51.98 155.56L38.99 148.06L38.99 133.06zM51.98 215.56L64.97 223.06L64.97 238.06L51.98 245.56L38.99 238.06L38.99 223.06zM51.98 260.56L64.97 268.06L64.97 283.06L51.98 290.56L38.99 283.06L38.99 268.06zM64.97 418.06L77.96 425.56L77.96 440.56L64.97 448.06L51.98 440.56L51.98 425.56zM64.97 463.06L77.96 470.56L77.96 485.56L64.97 493.06L51.98 485.56L51.98 470.56zM64.97 598.06L77.96 605.56L77.96 620.56L64.97 628.06L51.98 620.56L51.98 605.56zM64.97 733.06L77.96 740.56L77.96 755.56L64.97 763.06L51.98 755.56L51.98 740.56zM64.97 778.06L77.96 785.56L77.96 800.56L64.97 808.06L51.98 800.56L51.98 785.56zM51.98 800.56L64.97 808.06L64.97 823.06L51.98 830.56L38.99 823.06L38.99 808.06zM77.96 125.56L90.96 133.06L90.96 148.06L77.96 155.56L64.97 148.06L64.97 133.06zM77.96 440.56L90.96 448.06L90.96 463.06L77.96 470.56L64.97 463.06L64.97 448.06zM90.96 463.06L103.95 470.56L103.95 485.56L90.96 493.06L77.96 485.56L77.96 470.56zM77.96 485.56L90.96 493.06L90.96 508.06L77.96 515.56L64.97 508.06L64.97 493.06zM77.96 575.56L90.96 583.06L90.96 598.06L77.96 605.56L64.97 598.06L64.97 583.06zM103.95 35.56L116.94 43.06L116.94 58.06L103.95 65.56L90.96 58.06L90.96 43.06zM116.94 328.06L129.93 335.56L129.93 350.56L116.94 358.06L103.95 350.56L103.95 335.56zM116.94 373.06L129.93 380.56L129.93 395.56L116.94 403.06L103.95 395.56L103.95 380.56zM103.95 485.56L116.94 493.06L116.94 508.06L103.95 515.56L90.96 508.06L90.96 493.06zM103.95 530.56L116.94 538.06L116.94 553.06L103.95 560.56L90.96 553.06L90.96 538.06zM103.95 575.56L116.94 583.06L116.94 598.06L103.95 605.56L90.96 598.06L90.96 583.06zM116.94 598.06L129.93 605.56L129.93 620.56L116.94 628.06L103.95 620.56L103.95 605.56zM103.95 755.56L116.94 763.06L116.94 778.06L103.95 785.56L90.96 778.06L90.96 763.06zM116.94 778.06L129.93 785.56L129.93 800.56L116.94 808.06L103.95 800.56L103.95 785.56zM103.95 800.56L116.94 808.06L116.94 823.06L103.95 830.56L90.96 823.06L90.96 808.06zM129.93 -9.44L142.92 -1.94L142.92 13.06L129.93 20.56L116.94 13.06L116.94 -1.94zM129.93 80.56L142.92 88.06L142.92 103.06L129.93 110.56L116.94 103.06L116.94 88.06zM142.92 103.06L155.91 110.56L155.91 125.56L142.92 133.06L129.93 125.56L129.93 110.56zM129.93 170.56L142.92 178.06L142.92 193.06L129.93 200.56L116.94 193.06L116.94 178.06zM142.92 193.06L155.91 200.56L155.91 215.56L142.92 223.06L129.93 215.56L129.93 200.56zM129.93 260.56L142.92 268.06L142.92 283.06L129.93 290.56L116.94 283.06L116.94 268.06zM142.92 283.06L155.91 290.56L155.91 305.56L142.92 313.06L129.93 305.56L129.93 290.56zM142.92 418.06L155.91 425.56L155.91 440.56L142.92 448.06L129.93 440.56L129.93 425.56zM142.92 463.06L155.91 470.56L155.91 485.56L142.92 493.06L129.93 485.56L129.93 470.56zM129.93 485.56L142.92 493.06L142.92 508.06L129.93 515.56L116.94 508.06L116.94 493.06zM129.93 575.56L142.92 583.06L142.92 598.06L129.93 605.56L116.94 598.06L116.94 583.06zM142.92 598.06L155.91 605.56L155.91 620.56L142.92 628.06L129.93 620.56L129.93 605.56zM142.92 643.06L155.91 650.56L155.91 665.56L142.92 673.06L129.93 665.56L129.93 650.56zM142.92 688.06L155.91 695.56L155.91 710.56L142.92 718.06L129.93 710.56L129.93 695.56zM142.92 733.06L155.91 740.56L155.91 755.56L142.92 763.06L129.93 755.56L129.93 740.56zM168.9 103.06L181.89 110.56L181.89 125.56L168.9 133.06L155.91 125.56L155.91 110.56zM155.91 125.56L168.9 133.06L168.9 148.06L155.91 155.56L142.92 148.06L142.92 133.06zM168.9 238.06L181.89 245.56L181.89 260.56L168.9 268.06L155.91 260.56L155.91 245.56zM155.91 350.56L168.9 358.06L168.9 373.06L155.91 380.56L142.92 373.06L142.92 358.06zM168.9 598.06L181.89 605.56L181.89 620.56L168.9 628.06L155.91 620.56L155.91 605.56zM155.91 620.56L168.9 628.06L168.9 643.06L155.91 650.56L142.92 643.06L142.92 628.06zM168.9 643.06L181.89 650.56L181.89 665.56L168.9 673.06L155.91 665.56L155.91 650.56zM155.91 755.56L168.9 763.06L168.9 778.06L155.91 785.56L142.92 778.06L142.92 763.06zM155.91 800.56L168.9 808.06L168.9 823.06L155.91 830.56L142.92 823.06L142.92 808.06zM194.88 58.06L207.87 65.56L207.87 80.56L194.88 88.06L181.89 80.56L181.89 65.56zM194.88 103.06L207.87 110.56L207.87 125.56L194.88 133.06L181.89 125.56L181.89 110.56zM181.89 125.56L194.88 133.06L194.88 148.06L181.89 155.56L168.9 148.06L168.9 133.06zM194.88 148.06L207.87 155.56L207.87 170.56L194.88 178.06L181.89 170.56L181.89 155.56zM181.89 170.56L194.88 178.06L194.88 193.06L181.89 200.56L168.9 193.06L168.9 178.06zM181.89 260.56L194.88 268.06L194.88 283.06L181.89 290.56L168.9 283.06L168.9 268.06zM194.88 283.06L207.87 290.56L207.87 305.56L194.88 313.06L181.89 305.56L181.89 290.56zM194.88 328.06L207.87 335.56L207.87 350.56L194.88 358.06L181.89 350.56L181.89 335.56zM181.89 395.56L194.88 403.06L194.88 418.06L181.89 425.56L168.9 418.06L168.9 403.06zM194.88 418.06L207.87 425.56L207.87 440.56L194.88 448.06L181.89 440.56L181.89 425.56zM194.88 463.06L207.87 470.56L207.87 485.56L194.88 493.06L181.89 485.56L181.89 470.56zM194.88 553.06L207.87 560.56L207.87 575.56L194.88 583.06L181.89 575.56L181.89 560.56zM181.89 620.56L194.88 628.06L194.88 643.06L181.89 650.56L168.9 643.06L168.9 628.06zM181.89 755.56L194.88 763.06L194.88 778.06L181.89 785.56L168.9 778.06L168.9 763.06zM194.88 778.06L207.87 785.56L207.87 800.56L194.88 808.06L181.89 800.56L181.89 785.56zM207.87 80.56L220.86 88.06L220.86 103.06L207.87 110.56L194.88 103.06L194.88 88.06zM220.86 148.06L233.85 155.56L233.85 170.56L220.86 178.06L207.87 170.56L207.87 155.56zM207.87 305.56L220.86 313.06L220.86 328.06L207.87 335.56L194.88 328.06L194.88 313.06zM220.86 328.06L233.85 335.56L233.85 350.56L220.86 358.06L207.87 350.56L207.87 335.56zM220.86 463.06L233.85 470.56L233.85 485.56L220.86 493.06L207.87 485.56L207.87 470.56zM220.86 508.06L233.85 515.56L233.85 530.56L220.86 538.06L207.87 530.56L207.87 515.56zM220.86 553.06L233.85 560.56L233.85 575.56L220.86 583.06L207.87 575.56L207.87 560.56zM207.87 710.56L220.86 718.06L220.86 733.06L207.87 740.56L194.88 733.06L194.88 718.06zM246.84 13.06L259.83 20.56L259.83 35.56L246.84 43.06L233.85 35.56L233.85 20.56zM233.85 35.56L246.84 43.06L246.84 58.06L233.85 65.56L220.86 58.06L220.86 43.06zM233.85 170.56L246.84 178.06L246.84 193.06L233.85 200.56L220.86 193.06L220.86 178.06zM233.85 260.56L246.84 268.06L246.84 283.06L233.85 290.56L220.86 283.06L220.86 268.06zM233.85 350.56L246.84 358.06L246.84 373.06L233.85 380.56L220.86 373.06L220.86 358.06zM233.85 395.56L246.84 403.06L246.84 418.06L233.85 425.56L220.86 418.06L220.86 403.06zM233.85 485.56L246.84 493.06L246.84 508.06L233.85 515.56L220.86 508.06L220.86 493.06zM246.84 508.06L259.83 515.56L259.83 530.56L246.84 538.06L233.85 530.56L233.85 515.56zM233.85 530.56L246.84 538.06L246.84 553.06L233.85 560.56L220.86 553.06L220.86 538.06zM233.85 665.56L246.84 673.06L246.84 688.06L233.85 695.56L220.86 688.06L220.86 673.06zM233.85 800.56L246.84 808.06L246.84 823.06L233.85 830.56L220.86 823.06L220.86 808.06zM272.83 13.06L285.82 20.56L285.82 35.56L272.83 43.06L259.83 35.56L259.83 20.56zM259.83 440.56L272.83 448.06L272.83 463.06L259.83 470.56L246.84 463.06L246.84 448.06zM259.83 620.56L272.83 628.06L272.83 643.06L259.83 650.56L246.84 643.06L246.84 628.06zM259.83 710.56L272.83 718.06L272.83 733.06L259.83 740.56L246.84 733.06L246.84 718.06zM259.83 800.56L272.83 808.06L272.83 823.06L259.83 830.56L246.84 823.06L246.84 808.06zM298.81 148.06L311.8 155.56L311.8 170.56L298.81 178.06L285.82 170.56L285.82 155.56zM285.82 260.56L298.81 268.06L298.81 283.06L285.82 290.56L272.83 283.06L272.83 268.06zM285.82 305.56L298.81 313.06L298.81 328.06L285.82 335.56L272.83 328.06L272.83 313.06zM285.82 395.56L298.81 403.06L298.81 418.06L285.82 425.56L272.83 418.06L272.83 403.06zM298.81 508.06L311.8 515.56L311.8 530.56L298.81 538.06L285.82 530.56L285.82 515.56zM298.81 553.06L311.8 560.56L311.8 575.56L298.81 583.06L285.82 575.56L285.82 560.56zM285.82 620.56L298.81 628.06L298.81 643.06L285.82 650.56L272.83 643.06L272.83 628.06zM298.81 643.06L311.8 650.56L311.8 665.56L298.81 673.06L285.82 665.56L285.82 650.56zM285.82 710.56L298.81 718.06L298.81 733.06L285.82 740.56L272.83 733.06L272.83 718.06zM324.79 13.06L337.78 20.56L337.78 35.56L324.79 43.06L311.8 35.56L311.8 20.56zM324.79 58.06L337.78 65.56L337.78 80.56L324.79 88.06L311.8 80.56L311.8 65.56zM311.8 170.56L324.79 178.06L324.79 193.06L311.8 200.56L298.81 193.06L298.81 178.06zM324.79 193.06L337.78 200.56L337.78 215.56L324.79 223.06L311.8 215.56L311.8 200.56zM324.79 238.06L337.78 245.56L337.78 260.56L324.79 268.06L311.8 260.56L311.8 245.56zM324.79 283.06L337.78 290.56L337.78 305.56L324.79 313.06L311.8 305.56L311.8 290.56zM311.8 485.56L324.79 493.06L324.79 508.06L311.8 515.56L298.81 508.06L298.81 493.06zM324.79 508.06L337.78 515.56L337.78 530.56L324.79 538.06L311.8 530.56L311.8 515.56zM311.8 620.56L324.79 628.06L324.79 643.06L311.8 650.56L298.81 643.06L298.81 628.06zM324.79 643.06L337.78 650.56L337.78 665.56L324.79 673.06L311.8 665.56L311.8 650.56zM337.78 -9.44L350.77 -1.94L350.77 13.06L337.78 20.56L324.79 13.06L324.79 -1.94zM337.78 80.56L350.77 88.06L350.77 103.06L337.78 110.56L324.79 103.06L324.79 88.06zM337.78 125.56L350.77 133.06L350.77 148.06L337.78 155.56L324.79 148.06L324.79 133.06zM350.77 193.06L363.76 200.56L363.76 215.56L350.77 223.06L337.78 215.56L337.78 200.56zM337.78 260.56L350.77 268.06L350.77 283.06L337.78 290.56L324.79 283.06L324.79 268.06zM350.77 373.06L363.76 380.56L363.76 395.56L350.77 403.06L337.78 395.56L337.78 380.56zM337.78 530.56L350.77 538.06L350.77 553.06L337.78 560.56L324.79 553.06L324.79 538.06zM350.77 598.06L363.76 605.56L363.76 620.56L350.77 628.06L337.78 620.56L337.78 605.56zM337.78 620.56L350.77 628.06L350.77 643.06L337.78 650.56L324.79 643.06L324.79 628.06zM350.77 733.06L363.76 740.56L363.76 755.56L350.77 763.06L337.78 755.56L337.78 740.56zM337.78 755.56L350.77 763.06L350.77 778.06L337.78 785.56L324.79 778.06L324.79 763.06zM376.75 58.06L389.74 65.56L389.74 80.56L376.75 88.06L363.76 80.56L363.76 65.56zM363.76 125.56L376.75 133.06L376.75 148.06L363.76 155.56L350.77 148.06L350.77 133.06zM363.76 170.56L376.75 178.06L376.75 193.06L363.76 200.56L350.77 193.06L350.77 178.06zM363.76 215.56L376.75 223.06L376.75 238.06L363.76 245.56L350.77 238.06L350.77 223.06zM376.75 328.06L389.74 335.56L389.74 350.56L376.75 358.06L363.76 350.56L363.76 335.56zM363.76 350.56L376.75 358.06L376.75 373.06L363.76 380.56L350.77 373.06L350.77 358.06zM376.75 508.06L389.74 515.56L389.74 530.56L376.75 538.06L363.76 530.56L363.76 515.56zM363.76 665.56L376.75 673.06L376.75 688.06L363.76 695.56L350.77 688.06L350.77 673.06zM402.73 13.06L415.72 20.56L415.72 35.56L402.73 43.06L389.74 35.56L389.74 20.56zM389.74 80.56L402.73 88.06L402.73 103.06L389.74 110.56L376.75 103.06L376.75 88.06zM389.74 125.56L402.73 133.06L402.73 148.06L389.74 155.56L376.75 148.06L376.75 133.06zM389.74 215.56L402.73 223.06L402.73 238.06L389.74 245.56L376.75 238.06L376.75 223.06zM389.74 350.56L402.73 358.06L402.73 373.06L389.74 380.56L376.75 373.06L376.75 358.06zM402.73 373.06L415.72 380.56L415.72 395.56L402.73 403.06L389.74 395.56L389.74 380.56zM389.74 530.56L402.73 538.06L402.73 553.06L389.74 560.56L376.75 553.06L376.75 538.06zM389.74 620.56L402.73 628.06L402.73 643.06L389.74 650.56L376.75 643.06L376.75 628.06zM389.74 665.56L402.73 673.06L402.73 688.06L389.74 695.56L376.75 688.06L376.75 673.06zM402.73 688.06L415.72 695.56L415.72 710.56L402.73 718.06L389.74 710.56L389.74 695.56zM402.73 778.06L415.72 785.56L415.72 800.56L402.73 808.06L389.74 800.56L389.74 785.56z" stroke="url(#SvgjsLinearGradient37408)" stroke-width="2"></path></g><defs><mask id="SvgjsMask37405"><rect width="400" height="800" fill="#ffffff"></rect></mask><linearGradient x1="0%" y1="50%" x2="100%" y2="50%" gradientUnits="userSpaceOnUse" id="SvgjsLinearGradient37406"><stop stop-color="rgba(4, 15, 27, 1)" offset="0.35"></stop><stop stop-color="rgba(0, 0, 0, 1)" offset="0.96"></stop></linearGradient><linearGradient x1="200" y1="0" x2="200" y2="800" gradientUnits="userSpaceOnUse" id="SvgjsLinearGradient37407"><stop stop-color="rgba(252, 163, 0, 1)" offset="0.3"></stop><stop stop-color="rgba(1, 126, 255, 0)" offset="1"></stop></linearGradient><linearGradient x1="200" y1="800" x2="200" y2="0" gradientUnits="userSpaceOnUse" id="SvgjsLinearGradient37408"><stop stop-color="rgba(6, 28, 52, 1)" offset="0.29"></stop><stop stop-color="rgba(255, 165, 1, 0.4)" offset="0.73"></stop></linearGradient></defs></svg>