<svg xmlns="http://www.w3.org/2000/svg" version="1.1" xmlns:xlink="http://www.w3.org/1999/xlink" xmlns:svgjs="http://svgjs.com/svgjs" 
width="1920" height="800" preserveAspectRatio="none" viewBox="0 0 1920 800"><g mask="url(&quot;#SvgjsMask17049&quot;)" fill="none">
<rect width="1920" height="800" x="0" y="0" fill="url(#SvgjsLinearGradient17050)"></rect>
<path  d="M24.92 -40.18L106.33 6.82L106.33 100.82L24.92 147.82L-56.49 100.82L-56.49 6.82zM106.33 382.82L187.74 429.82L187.74 523.82L106.33 570.82L24.92 523.82L24.92 429.82zM24.92 523.82L106.33 570.82L106.33 664.82L24.92 711.82L-56.49 664.82L-56.49 570.82zM106.33 664.82L187.74 711.82L187.74 805.82L106.33 852.82L24.92 805.82L24.92 711.82zM187.74 -40.18L269.15 6.82L269.15 100.82L187.74 147.82L106.33 100.82L106.33 6.82zM269.15 382.82L350.55 429.82L350.55 523.82L269.15 570.82L187.74 523.82L187.74 429.82zM187.74 805.82L269.15 852.82L269.15 946.82L187.74 993.82L106.33 946.82L106.33 852.82zM431.96 664.82L513.37 711.82L513.37 805.82L431.96 852.82L350.55 805.82L350.55 711.82zM350.55 805.82L431.96 852.82L431.96 946.82L350.55 993.82L269.15 946.82L269.15 852.82zM513.37 -40.18L594.78 6.82L594.78 100.82L513.37 147.82L431.96 100.82L431.96 6.82zM513.37 241.82L594.78 288.82L594.78 382.82L513.37 429.82L431.96 382.82L431.96 288.82zM513.37 523.82L594.78 570.82L594.78 664.82L513.37 711.82L431.96 664.82L431.96 570.82zM594.78 664.82L676.19 711.82L676.19 805.82L594.78 852.82L513.37 805.82L513.37 711.82zM676.19 -40.18L757.6 6.82L757.6 100.82L676.19 147.82L594.78 100.82L594.78 6.82zM676.19 805.82L757.6 852.82L757.6 946.82L676.19 993.82L594.78 946.82L594.78 852.82zM839.01 -40.18L920.42 6.82L920.42 100.82L839.01 147.82L757.6 100.82L757.6 6.82zM920.42 100.82L1001.82 147.82L1001.82 241.82L920.42 288.82L839.01 241.82L839.01 147.82zM839.01 241.82L920.42 288.82L920.42 382.82L839.01 429.82L757.6 382.82L757.6 288.82zM920.42 382.82L1001.82 429.82L1001.82 523.82L920.42 570.82L839.01 523.82L839.01 429.82zM839.01 523.82L920.42 570.82L920.42 664.82L839.01 711.82L757.6 664.82L757.6 570.82zM1001.82 -40.18L1083.23 6.82L1083.23 100.82L1001.82 147.82L920.42 100.82L920.42 6.82zM1083.23 100.82L1164.64 147.82L1164.64 241.82L1083.23 288.82L1001.82 241.82L1001.82 147.82zM1083.23 382.82L1164.64 429.82L1164.64 523.82L1083.23 570.82L1001.82 523.82L1001.82 429.82zM1001.82 805.82L1083.23 852.82L1083.23 946.82L1001.82 993.82L920.42 946.82L920.42 852.82zM1164.64 -40.18L1246.05 6.82L1246.05 100.82L1164.64 147.82L1083.23 100.82L1083.23 6.82zM1246.05 100.82L1327.46 147.82L1327.46 241.82L1246.05 288.82L1164.64 241.82L1164.64 147.82zM1164.64 523.82L1246.05 570.82L1246.05 664.82L1164.64 711.82L1083.23 664.82L1083.23 570.82zM1246.05 664.82L1327.46 711.82L1327.46 805.82L1246.05 852.82L1164.64 805.82L1164.64 711.82zM1164.64 805.82L1246.05 852.82L1246.05 946.82L1164.64 993.82L1083.23 946.82L1083.23 852.82zM1327.46 -40.18L1408.87 6.82L1408.87 100.82L1327.46 147.82L1246.05 100.82L1246.05 6.82zM1327.46 523.82L1408.87 570.82L1408.87 664.82L1327.46 711.82L1246.05 664.82L1246.05 570.82zM1327.46 805.82L1408.87 852.82L1408.87 946.82L1327.46 993.82L1246.05 946.82L1246.05 852.82zM1490.28 -40.18L1571.69 6.82L1571.69 100.82L1490.28 147.82L1408.87 100.82L1408.87 6.82zM1490.28 523.82L1571.69 570.82L1571.69 664.82L1490.28 711.82L1408.87 664.82L1408.87 570.82zM1653.09 -40.18L1734.5 6.82L1734.5 100.82L1653.09 147.82L1571.69 100.82L1571.69 6.82zM1653.09 241.82L1734.5 288.82L1734.5 382.82L1653.09 429.82L1571.69 382.82L1571.69 288.82zM1653.09 523.82L1734.5 570.82L1734.5 664.82L1653.09 711.82L1571.69 664.82L1571.69 570.82zM1734.5 664.82L1815.91 711.82L1815.91 805.82L1734.5 852.82L1653.09 805.82L1653.09 711.82zM1653.09 805.82L1734.5 852.82L1734.5 946.82L1653.09 993.82L1571.69 946.82L1571.69 852.82zM1897.32 100.82L1978.73 147.82L1978.73 241.82L1897.32 288.82L1815.91 241.82L1815.91 147.82zM1897.32 382.82L1978.73 429.82L1978.73 523.82L1897.32 570.82L1815.91 523.82L1815.91 429.82zM1815.91 805.82L1897.32 852.82L1897.32 946.82L1815.91 993.82L1734.5 946.82L1734.5 852.82z" stroke="url(#SvgjsLinearGradient17051)" stroke-width="2"></path>
<path class="bg-svg1" d="M15.52 -40.18 a9.4 9.4 0 1 0 18.8 0 a9.4 9.4 0 1 0 -18.8 0zM96.93 6.82 a9.4 9.4 0 1 0 18.8 0 a9.4 9.4 0 1 0 -18.8 0zM96.93 100.82 a9.4 9.4 0 1 0 18.8 0 a9.4 9.4 0 1 0 -18.8 0zM15.52 147.82 a9.4 9.4 0 1 0 18.8 0 a9.4 9.4 0 1 0 -18.8 0zM-65.89 100.82 a9.4 9.4 0 1 0 18.8 0 a9.4 9.4 0 1 0 -18.8 0zM-65.89 6.82 a9.4 9.4 0 1 0 18.8 0 a9.4 9.4 0 1 0 -18.8 0zM96.93 382.82 a9.4 9.4 0 1 0 18.8 0 a9.4 9.4 0 1 0 -18.8 0zM178.34 429.82 a9.4 9.4 0 1 0 18.8 0 a9.4 9.4 0 1 0 -18.8 0zM178.34 523.82 a9.4 9.4 0 1 0 18.8 0 a9.4 9.4 0 1 0 -18.8 0zM96.93 570.82 a9.4 9.4 0 1 0 18.8 0 a9.4 9.4 0 1 0 -18.8 0zM15.52 523.82 a9.4 9.4 0 1 0 18.8 0 a9.4 9.4 0 1 0 -18.8 0zM15.52 429.82 a9.4 9.4 0 1 0 18.8 0 a9.4 9.4 0 1 0 -18.8 0zM96.93 664.82 a9.4 9.4 0 1 0 18.8 0 a9.4 9.4 0 1 0 -18.8 0zM15.52 711.82 a9.4 9.4 0 1 0 18.8 0 a9.4 9.4 0 1 0 -18.8 0zM-65.89 664.82 a9.4 9.4 0 1 0 18.8 0 a9.4 9.4 0 1 0 -18.8 0zM-65.89 570.82 a9.4 9.4 0 1 0 18.8 0 a9.4 9.4 0 1 0 -18.8 0zM178.34 711.82 a9.4 9.4 0 1 0 18.8 0 a9.4 9.4 0 1 0 -18.8 0zM178.34 805.82 a9.4 9.4 0 1 0 18.8 0 a9.4 9.4 0 1 0 -18.8 0zM96.93 852.82 a9.4 9.4 0 1 0 18.8 0 a9.4 9.4 0 1 0 -18.8 0zM15.52 805.82 a9.4 9.4 0 1 0 18.8 0 a9.4 9.4 0 1 0 -18.8 0zM178.34 -40.18 a9.4 9.4 0 1 0 18.8 0 a9.4 9.4 0 1 0 -18.8 0zM259.75 6.82 a9.4 9.4 0 1 0 18.8 0 a9.4 9.4 0 1 0 -18.8 0zM259.75 100.82 a9.4 9.4 0 1 0 18.8 0 a9.4 9.4 0 1 0 -18.8 0zM178.34 147.82 a9.4 9.4 0 1 0 18.8 0 a9.4 9.4 0 1 0 -18.8 0zM259.75 382.82 a9.4 9.4 0 1 0 18.8 0 a9.4 9.4 0 1 0 -18.8 0zM341.15 429.82 a9.4 9.4 0 1 0 18.8 0 a9.4 9.4 0 1 0 -18.8 0zM341.15 523.82 a9.4 9.4 0 1 0 18.8 0 a9.4 9.4 0 1 0 -18.8 0zM259.75 570.82 a9.4 9.4 0 1 0 18.8 0 a9.4 9.4 0 1 0 -18.8 0zM259.75 852.82 a9.4 9.4 0 1 0 18.8 0 a9.4 9.4 0 1 0 -18.8 0zM259.75 946.82 a9.4 9.4 0 1 0 18.8 0 a9.4 9.4 0 1 0 -18.8 0zM178.34 993.82 a9.4 9.4 0 1 0 18.8 0 a9.4 9.4 0 1 0 -18.8 0zM96.93 946.82 a9.4 9.4 0 1 0 18.8 0 a9.4 9.4 0 1 0 -18.8 0zM422.56 664.82 a9.4 9.4 0 1 0 18.8 0 a9.4 9.4 0 1 0 -18.8 0zM503.97 711.82 a9.4 9.4 0 1 0 18.8 0 a9.4 9.4 0 1 0 -18.8 0zM503.97 805.82 a9.4 9.4 0 1 0 18.8 0 a9.4 9.4 0 1 0 -18.8 0zM422.56 852.82 a9.4 9.4 0 1 0 18.8 0 a9.4 9.4 0 1 0 -18.8 0zM341.15 805.82 a9.4 9.4 0 1 0 18.8 0 a9.4 9.4 0 1 0 -18.8 0zM341.15 711.82 a9.4 9.4 0 1 0 18.8 0 a9.4 9.4 0 1 0 -18.8 0zM422.56 946.82 a9.4 9.4 0 1 0 18.8 0 a9.4 9.4 0 1 0 -18.8 0zM341.15 993.82 a9.4 9.4 0 1 0 18.8 0 a9.4 9.4 0 1 0 -18.8 0zM503.97 -40.18 a9.4 9.4 0 1 0 18.8 0 a9.4 9.4 0 1 0 -18.8 0zM585.38 6.82 a9.4 9.4 0 1 0 18.8 0 a9.4 9.4 0 1 0 -18.8 0zM585.38 100.82 a9.4 9.4 0 1 0 18.8 0 a9.4 9.4 0 1 0 -18.8 0zM503.97 147.82 a9.4 9.4 0 1 0 18.8 0 a9.4 9.4 0 1 0 -18.8 0zM422.56 100.82 a9.4 9.4 0 1 0 18.8 0 a9.4 9.4 0 1 0 -18.8 0zM422.56 6.82 a9.4 9.4 0 1 0 18.8 0 a9.4 9.4 0 1 0 -18.8 0zM503.97 241.82 a9.4 9.4 0 1 0 18.8 0 a9.4 9.4 0 1 0 -18.8 0zM585.38 288.82 a9.4 9.4 0 1 0 18.8 0 a9.4 9.4 0 1 0 -18.8 0zM585.38 382.82 a9.4 9.4 0 1 0 18.8 0 a9.4 9.4 0 1 0 -18.8 0zM503.97 429.82 a9.4 9.4 0 1 0 18.8 0 a9.4 9.4 0 1 0 -18.8 0zM422.56 382.82 a9.4 9.4 0 1 0 18.8 0 a9.4 9.4 0 1 0 -18.8 0zM422.56 288.82 a9.4 9.4 0 1 0 18.8 0 a9.4 9.4 0 1 0 -18.8 0zM503.97 523.82 a9.4 9.4 0 1 0 18.8 0 a9.4 9.4 0 1 0 -18.8 0zM585.38 570.82 a9.4 9.4 0 1 0 18.8 0 a9.4 9.4 0 1 0 -18.8 0zM585.38 664.82 a9.4 9.4 0 1 0 18.8 0 a9.4 9.4 0 1 0 -18.8 0zM422.56 570.82 a9.4 9.4 0 1 0 18.8 0 a9.4 9.4 0 1 0 -18.8 0zM666.79 711.82 a9.4 9.4 0 1 0 18.8 0 a9.4 9.4 0 1 0 -18.8 0zM666.79 805.82 a9.4 9.4 0 1 0 18.8 0 a9.4 9.4 0 1 0 -18.8 0zM585.38 852.82 a9.4 9.4 0 1 0 18.8 0 a9.4 9.4 0 1 0 -18.8 0zM666.79 -40.18 a9.4 9.4 0 1 0 18.8 0 a9.4 9.4 0 1 0 -18.8 0zM748.2 6.82 a9.4 9.4 0 1 0 18.8 0 a9.4 9.4 0 1 0 -18.8 0zM748.2 100.82 a9.4 9.4 0 1 0 18.8 0 a9.4 9.4 0 1 0 -18.8 0zM666.79 147.82 a9.4 9.4 0 1 0 18.8 0 a9.4 9.4 0 1 0 -18.8 0zM748.2 852.82 a9.4 9.4 0 1 0 18.8 0 a9.4 9.4 0 1 0 -18.8 0zM748.2 946.82 a9.4 9.4 0 1 0 18.8 0 a9.4 9.4 0 1 0 -18.8 0zM666.79 993.82 a9.4 9.4 0 1 0 18.8 0 a9.4 9.4 0 1 0 -18.8 0zM585.38 946.82 a9.4 9.4 0 1 0 18.8 0 a9.4 9.4 0 1 0 -18.8 0zM829.61 -40.18 a9.4 9.4 0 1 0 18.8 0 a9.4 9.4 0 1 0 -18.8 0zM911.02 6.82 a9.4 9.4 0 1 0 18.8 0 a9.4 9.4 0 1 0 -18.8 0zM911.02 100.82 a9.4 9.4 0 1 0 18.8 0 a9.4 9.4 0 1 0 -18.8 0zM829.61 147.82 a9.4 9.4 0 1 0 18.8 0 a9.4 9.4 0 1 0 -18.8 0zM992.42 147.82 a9.4 9.4 0 1 0 18.8 0 a9.4 9.4 0 1 0 -18.8 0zM992.42 241.82 a9.4 9.4 0 1 0 18.8 0 a9.4 9.4 0 1 0 -18.8 0zM911.02 288.82 a9.4 9.4 0 1 0 18.8 0 a9.4 9.4 0 1 0 -18.8 0zM829.61 241.82 a9.4 9.4 0 1 0 18.8 0 a9.4 9.4 0 1 0 -18.8 0zM911.02 382.82 a9.4 9.4 0 1 0 18.8 0 a9.4 9.4 0 1 0 -18.8 0zM829.61 429.82 a9.4 9.4 0 1 0 18.8 0 a9.4 9.4 0 1 0 -18.8 0zM748.2 382.82 a9.4 9.4 0 1 0 18.8 0 a9.4 9.4 0 1 0 -18.8 0zM748.2 288.82 a9.4 9.4 0 1 0 18.8 0 a9.4 9.4 0 1 0 -18.8 0zM992.42 429.82 a9.4 9.4 0 1 0 18.8 0 a9.4 9.4 0 1 0 -18.8 0zM992.42 523.82 a9.4 9.4 0 1 0 18.8 0 a9.4 9.4 0 1 0 -18.8 0zM911.02 570.82 a9.4 9.4 0 1 0 18.8 0 a9.4 9.4 0 1 0 -18.8 0zM829.61 523.82 a9.4 9.4 0 1 0 18.8 0 a9.4 9.4 0 1 0 -18.8 0zM911.02 664.82 a9.4 9.4 0 1 0 18.8 0 a9.4 9.4 0 1 0 -18.8 0zM829.61 711.82 a9.4 9.4 0 1 0 18.8 0 a9.4 9.4 0 1 0 -18.8 0zM748.2 664.82 a9.4 9.4 0 1 0 18.8 0 a9.4 9.4 0 1 0 -18.8 0zM748.2 570.82 a9.4 9.4 0 1 0 18.8 0 a9.4 9.4 0 1 0 -18.8 0zM992.42 -40.18 a9.4 9.4 0 1 0 18.8 0 a9.4 9.4 0 1 0 -18.8 0zM1073.83 6.82 a9.4 9.4 0 1 0 18.8 0 a9.4 9.4 0 1 0 -18.8 0zM1073.83 100.82 a9.4 9.4 0 1 0 18.8 0 a9.4 9.4 0 1 0 -18.8 0zM1155.24 147.82 a9.4 9.4 0 1 0 18.8 0 a9.4 9.4 0 1 0 -18.8 0zM1155.24 241.82 a9.4 9.4 0 1 0 18.8 0 a9.4 9.4 0 1 0 -18.8 0zM1073.83 288.82 a9.4 9.4 0 1 0 18.8 0 a9.4 9.4 0 1 0 -18.8 0zM1073.83 382.82 a9.4 9.4 0 1 0 18.8 0 a9.4 9.4 0 1 0 -18.8 0zM1155.24 429.82 a9.4 9.4 0 1 0 18.8 0 a9.4 9.4 0 1 0 -18.8 0zM1155.24 523.82 a9.4 9.4 0 1 0 18.8 0 a9.4 9.4 0 1 0 -18.8 0zM1073.83 570.82 a9.4 9.4 0 1 0 18.8 0 a9.4 9.4 0 1 0 -18.8 0zM992.42 805.82 a9.4 9.4 0 1 0 18.8 0 a9.4 9.4 0 1 0 -18.8 0zM1073.83 852.82 a9.4 9.4 0 1 0 18.8 0 a9.4 9.4 0 1 0 -18.8 0zM1073.83 946.82 a9.4 9.4 0 1 0 18.8 0 a9.4 9.4 0 1 0 -18.8 0zM992.42 993.82 a9.4 9.4 0 1 0 18.8 0 a9.4 9.4 0 1 0 -18.8 0zM911.02 946.82 a9.4 9.4 0 1 0 18.8 0 a9.4 9.4 0 1 0 -18.8 0zM911.02 852.82 a9.4 9.4 0 1 0 18.8 0 a9.4 9.4 0 1 0 -18.8 0zM1155.24 -40.18 a9.4 9.4 0 1 0 18.8 0 a9.4 9.4 0 1 0 -18.8 0zM1236.65 6.82 a9.4 9.4 0 1 0 18.8 0 a9.4 9.4 0 1 0 -18.8 0zM1236.65 100.82 a9.4 9.4 0 1 0 18.8 0 a9.4 9.4 0 1 0 -18.8 0zM1318.06 147.82 a9.4 9.4 0 1 0 18.8 0 a9.4 9.4 0 1 0 -18.8 0zM1318.06 241.82 a9.4 9.4 0 1 0 18.8 0 a9.4 9.4 0 1 0 -18.8 0zM1236.65 288.82 a9.4 9.4 0 1 0 18.8 0 a9.4 9.4 0 1 0 -18.8 0zM1236.65 570.82 a9.4 9.4 0 1 0 18.8 0 a9.4 9.4 0 1 0 -18.8 0zM1236.65 664.82 a9.4 9.4 0 1 0 18.8 0 a9.4 9.4 0 1 0 -18.8 0zM1155.24 711.82 a9.4 9.4 0 1 0 18.8 0 a9.4 9.4 0 1 0 -18.8 0zM1073.83 664.82 a9.4 9.4 0 1 0 18.8 0 a9.4 9.4 0 1 0 -18.8 0zM1318.06 711.82 a9.4 9.4 0 1 0 18.8 0 a9.4 9.4 0 1 0 -18.8 0zM1318.06 805.82 a9.4 9.4 0 1 0 18.8 0 a9.4 9.4 0 1 0 -18.8 0zM1236.65 852.82 a9.4 9.4 0 1 0 18.8 0 a9.4 9.4 0 1 0 -18.8 0zM1155.24 805.82 a9.4 9.4 0 1 0 18.8 0 a9.4 9.4 0 1 0 -18.8 0zM1236.65 946.82 a9.4 9.4 0 1 0 18.8 0 a9.4 9.4 0 1 0 -18.8 0zM1155.24 993.82 a9.4 9.4 0 1 0 18.8 0 a9.4 9.4 0 1 0 -18.8 0zM1318.06 -40.18 a9.4 9.4 0 1 0 18.8 0 a9.4 9.4 0 1 0 -18.8 0zM1399.47 6.82 a9.4 9.4 0 1 0 18.8 0 a9.4 9.4 0 1 0 -18.8 0zM1399.47 100.82 a9.4 9.4 0 1 0 18.8 0 a9.4 9.4 0 1 0 -18.8 0zM1318.06 523.82 a9.4 9.4 0 1 0 18.8 0 a9.4 9.4 0 1 0 -18.8 0zM1399.47 570.82 a9.4 9.4 0 1 0 18.8 0 a9.4 9.4 0 1 0 -18.8 0zM1399.47 664.82 a9.4 9.4 0 1 0 18.8 0 a9.4 9.4 0 1 0 -18.8 0zM1399.47 852.82 a9.4 9.4 0 1 0 18.8 0 a9.4 9.4 0 1 0 -18.8 0zM1399.47 946.82 a9.4 9.4 0 1 0 18.8 0 a9.4 9.4 0 1 0 -18.8 0zM1318.06 993.82 a9.4 9.4 0 1 0 18.8 0 a9.4 9.4 0 1 0 -18.8 0zM1480.88 -40.18 a9.4 9.4 0 1 0 18.8 0 a9.4 9.4 0 1 0 -18.8 0zM1562.29 6.82 a9.4 9.4 0 1 0 18.8 0 a9.4 9.4 0 1 0 -18.8 0zM1562.29 100.82 a9.4 9.4 0 1 0 18.8 0 a9.4 9.4 0 1 0 -18.8 0zM1480.88 147.82 a9.4 9.4 0 1 0 18.8 0 a9.4 9.4 0 1 0 -18.8 0zM1480.88 523.82 a9.4 9.4 0 1 0 18.8 0 a9.4 9.4 0 1 0 -18.8 0zM1562.29 570.82 a9.4 9.4 0 1 0 18.8 0 a9.4 9.4 0 1 0 -18.8 0zM1562.29 664.82 a9.4 9.4 0 1 0 18.8 0 a9.4 9.4 0 1 0 -18.8 0zM1480.88 711.82 a9.4 9.4 0 1 0 18.8 0 a9.4 9.4 0 1 0 -18.8 0zM1643.69 -40.18 a9.4 9.4 0 1 0 18.8 0 a9.4 9.4 0 1 0 -18.8 0zM1725.1 6.82 a9.4 9.4 0 1 0 18.8 0 a9.4 9.4 0 1 0 -18.8 0zM1725.1 100.82 a9.4 9.4 0 1 0 18.8 0 a9.4 9.4 0 1 0 -18.8 0zM1643.69 147.82 a9.4 9.4 0 1 0 18.8 0 a9.4 9.4 0 1 0 -18.8 0zM1643.69 241.82 a9.4 9.4 0 1 0 18.8 0 a9.4 9.4 0 1 0 -18.8 0zM1725.1 288.82 a9.4 9.4 0 1 0 18.8 0 a9.4 9.4 0 1 0 -18.8 0zM1725.1 382.82 a9.4 9.4 0 1 0 18.8 0 a9.4 9.4 0 1 0 -18.8 0zM1643.69 429.82 a9.4 9.4 0 1 0 18.8 0 a9.4 9.4 0 1 0 -18.8 0zM1562.29 382.82 a9.4 9.4 0 1 0 18.8 0 a9.4 9.4 0 1 0 -18.8 0zM1562.29 288.82 a9.4 9.4 0 1 0 18.8 0 a9.4 9.4 0 1 0 -18.8 0zM1643.69 523.82 a9.4 9.4 0 1 0 18.8 0 a9.4 9.4 0 1 0 -18.8 0zM1725.1 570.82 a9.4 9.4 0 1 0 18.8 0 a9.4 9.4 0 1 0 -18.8 0zM1725.1 664.82 a9.4 9.4 0 1 0 18.8 0 a9.4 9.4 0 1 0 -18.8 0zM1643.69 711.82 a9.4 9.4 0 1 0 18.8 0 a9.4 9.4 0 1 0 -18.8 0zM1806.51 711.82 a9.4 9.4 0 1 0 18.8 0 a9.4 9.4 0 1 0 -18.8 0zM1806.51 805.82 a9.4 9.4 0 1 0 18.8 0 a9.4 9.4 0 1 0 -18.8 0zM1725.1 852.82 a9.4 9.4 0 1 0 18.8 0 a9.4 9.4 0 1 0 -18.8 0zM1643.69 805.82 a9.4 9.4 0 1 0 18.8 0 a9.4 9.4 0 1 0 -18.8 0zM1725.1 946.82 a9.4 9.4 0 1 0 18.8 0 a9.4 9.4 0 1 0 -18.8 0zM1643.69 993.82 a9.4 9.4 0 1 0 18.8 0 a9.4 9.4 0 1 0 -18.8 0zM1562.29 946.82 a9.4 9.4 0 1 0 18.8 0 a9.4 9.4 0 1 0 -18.8 0zM1562.29 852.82 a9.4 9.4 0 1 0 18.8 0 a9.4 9.4 0 1 0 -18.8 0zM1887.92 100.82 a9.4 9.4 0 1 0 18.8 0 a9.4 9.4 0 1 0 -18.8 0zM1969.33 147.82 a9.4 9.4 0 1 0 18.8 0 a9.4 9.4 0 1 0 -18.8 0zM1969.33 241.82 a9.4 9.4 0 1 0 18.8 0 a9.4 9.4 0 1 0 -18.8 0zM1887.92 288.82 a9.4 9.4 0 1 0 18.8 0 a9.4 9.4 0 1 0 -18.8 0zM1806.51 241.82 a9.4 9.4 0 1 0 18.8 0 a9.4 9.4 0 1 0 -18.8 0zM1806.51 147.82 a9.4 9.4 0 1 0 18.8 0 a9.4 9.4 0 1 0 -18.8 0zM1887.92 382.82 a9.4 9.4 0 1 0 18.8 0 a9.4 9.4 0 1 0 -18.8 0zM1969.33 429.82 a9.4 9.4 0 1 0 18.8 0 a9.4 9.4 0 1 0 -18.8 0zM1969.33 523.82 a9.4 9.4 0 1 0 18.8 0 a9.4 9.4 0 1 0 -18.8 0zM1887.92 570.82 a9.4 9.4 0 1 0 18.8 0 a9.4 9.4 0 1 0 -18.8 0zM1806.51 523.82 a9.4 9.4 0 1 0 18.8 0 a9.4 9.4 0 1 0 -18.8 0zM1806.51 429.82 a9.4 9.4 0 1 0 18.8 0 a9.4 9.4 0 1 0 -18.8 0zM1887.92 852.82 a9.4 9.4 0 1 0 18.8 0 a9.4 9.4 0 1 0 -18.8 0zM1887.92 946.82 a9.4 9.4 0 1 0 18.8 0 a9.4 9.4 0 1 0 -18.8 0zM1806.51 993.82 a9.4 9.4 0 1 0 18.8 0 a9.4 9.4 0 1 0 -18.8 0z" fill="url(#SvgjsLinearGradient17051)"></path>
<path d="M1.69 -10.32L19.88 0.18L19.88 21.18L1.69 31.68L-16.5 21.18L-16.5 0.18zM1.69 52.68L19.88 63.18L19.88 84.18L1.69 94.68L-16.5 84.18L-16.5 63.18zM19.88 84.18L38.06 94.68L38.06 115.68L19.88 126.18L1.69 115.68L1.69 94.68zM19.88 147.18L38.06 157.68L38.06 178.68L19.88 189.18L1.69 178.68L1.69 157.68zM1.69 241.68L19.88 252.18L19.88 273.18L1.69 283.68L-16.5 273.18L-16.5 252.18zM19.88 273.18L38.06 283.68L38.06 304.68L19.88 315.18L1.69 304.68L1.69 283.68zM1.69 304.68L19.88 315.18L19.88 336.18L1.69 346.68L-16.5 336.18L-16.5 315.18zM19.88 399.18L38.06 409.68L38.06 430.68L19.88 441.18L1.69 430.68L1.69 409.68zM1.69 430.68L19.88 441.18L19.88 462.18L1.69 472.68L-16.5 462.18L-16.5 441.18zM1.69 556.68L19.88 567.18L19.88 588.18L1.69 598.68L-16.5 588.18L-16.5 567.18zM19.88 651.18L38.06 661.68L38.06 682.68L19.88 693.18L1.69 682.68L1.69 661.68zM19.88 777.18L38.06 787.68L38.06 808.68L19.88 819.18L1.69 808.68L1.69 787.68zM56.25 21.18L74.44 31.68L74.44 52.68L56.25 63.18L38.06 52.68L38.06 31.68zM38.06 52.68L56.25 63.18L56.25 84.18L38.06 94.68L19.88 84.18L19.88 63.18zM56.25 84.18L74.44 94.68L74.44 115.68L56.25 126.18L38.06 115.68L38.06 94.68zM56.25 147.18L74.44 157.68L74.44 178.68L56.25 189.18L38.06 178.68L38.06 157.68zM38.06 178.68L56.25 189.18L56.25 210.18L38.06 220.68L19.88 210.18L19.88 189.18zM38.06 241.68L56.25 252.18L56.25 273.18L38.06 283.68L19.88 273.18L19.88 252.18zM56.25 273.18L74.44 283.68L74.44 304.68L56.25 315.18L38.06 304.68L38.06 283.68zM38.06 304.68L56.25 315.18L56.25 336.18L38.06 346.68L19.88 336.18L19.88 315.18zM56.25 336.18L74.44 346.68L74.44 367.68L56.25 378.18L38.06 367.68L38.06 346.68zM56.25 399.18L74.44 409.68L74.44 430.68L56.25 441.18L38.06 430.68L38.06 409.68zM38.06 430.68L56.25 441.18L56.25 462.18L38.06 472.68L19.88 462.18L19.88 441.18zM56.25 462.18L74.44 472.68L74.44 493.68L56.25 504.18L38.06 493.68L38.06 472.68zM56.25 525.18L74.44 535.68L74.44 556.68L56.25 567.18L38.06 556.68L38.06 535.68zM56.25 651.18L74.44 661.68L74.44 682.68L56.25 693.18L38.06 682.68L38.06 661.68zM38.06 682.68L56.25 693.18L56.25 714.18L38.06 724.68L19.88 714.18L19.88 693.18zM38.06 745.68L56.25 756.18L56.25 777.18L38.06 787.68L19.88 777.18L19.88 756.18zM74.44 115.68L92.63 126.18L92.63 147.18L74.44 157.68L56.25 147.18L56.25 126.18zM92.63 147.18L110.81 157.68L110.81 178.68L92.63 189.18L74.44 178.68L74.44 157.68zM74.44 241.68L92.63 252.18L92.63 273.18L74.44 283.68L56.25 273.18L56.25 252.18zM74.44 304.68L92.63 315.18L92.63 336.18L74.44 346.68L56.25 336.18L56.25 315.18zM92.63 336.18L110.81 346.68L110.81 367.68L92.63 378.18L74.44 367.68L74.44 346.68zM74.44 367.68L92.63 378.18L92.63 399.18L74.44 409.68L56.25 399.18L56.25 378.18zM92.63 399.18L110.81 409.68L110.81 430.68L92.63 441.18L74.44 430.68L74.44 409.68zM74.44 493.68L92.63 504.18L92.63 525.18L74.44 535.68L56.25 525.18L56.25 504.18zM74.44 745.68L92.63 756.18L92.63 777.18L74.44 787.68L56.25 777.18L56.25 756.18zM129 21.18L147.19 31.68L147.19 52.68L129 63.18L110.81 52.68L110.81 31.68zM110.81 52.68L129 63.18L129 84.18L110.81 94.68L92.63 84.18L92.63 63.18zM129 84.18L147.19 94.68L147.19 115.68L129 126.18L110.81 115.68L110.81 94.68zM110.81 115.68L129 126.18L129 147.18L110.81 157.68L92.63 147.18L92.63 126.18zM129 147.18L147.19 157.68L147.19 178.68L129 189.18L110.81 178.68L110.81 157.68zM129 210.18L147.19 220.68L147.19 241.68L129 252.18L110.81 241.68L110.81 220.68zM129 399.18L147.19 409.68L147.19 430.68L129 441.18L110.81 430.68L110.81 409.68zM129 462.18L147.19 472.68L147.19 493.68L129 504.18L110.81 493.68L110.81 472.68zM110.81 493.68L129 504.18L129 525.18L110.81 535.68L92.63 525.18L92.63 504.18zM129 588.18L147.19 598.68L147.19 619.68L129 630.18L110.81 619.68L110.81 598.68zM129 651.18L147.19 661.68L147.19 682.68L129 693.18L110.81 682.68L110.81 661.68zM129 714.18L147.19 724.68L147.19 745.68L129 756.18L110.81 745.68L110.81 724.68zM147.19 -10.32L165.37 0.18L165.37 21.18L147.19 31.68L129 21.18L129 0.18zM165.37 21.18L183.56 31.68L183.56 52.68L165.37 63.18L147.19 52.68L147.19 31.68zM147.19 241.68L165.37 252.18L165.37 273.18L147.19 283.68L129 273.18L129 252.18zM165.37 336.18L183.56 346.68L183.56 367.68L165.37 378.18L147.19 367.68L147.19 346.68zM147.19 367.68L165.37 378.18L165.37 399.18L147.19 409.68L129 399.18L129 378.18zM165.37 462.18L183.56 472.68L183.56 493.68L165.37 504.18L147.19 493.68L147.19 472.68zM147.19 493.68L165.37 504.18L165.37 525.18L147.19 535.68L129 525.18L129 504.18zM147.19 619.68L165.37 630.18L165.37 651.18L147.19 661.68L129 651.18L129 630.18zM147.19 682.68L165.37 693.18L165.37 714.18L147.19 724.68L129 714.18L129 693.18zM165.37 714.18L183.56 724.68L183.56 745.68L165.37 756.18L147.19 745.68L147.19 724.68zM183.56 -10.32L201.75 0.18L201.75 21.18L183.56 31.68L165.37 21.18L165.37 0.18zM183.56 115.68L201.75 126.18L201.75 147.18L183.56 157.68L165.37 147.18L165.37 126.18zM183.56 178.68L201.75 189.18L201.75 210.18L183.56 220.68L165.37 210.18L165.37 189.18zM183.56 241.68L201.75 252.18L201.75 273.18L183.56 283.68L165.37 273.18L165.37 252.18zM183.56 304.68L201.75 315.18L201.75 336.18L183.56 346.68L165.37 336.18L165.37 315.18zM183.56 367.68L201.75 378.18L201.75 399.18L183.56 409.68L165.37 399.18L165.37 378.18zM201.75 399.18L219.93 409.68L219.93 430.68L201.75 441.18L183.56 430.68L183.56 409.68zM183.56 430.68L201.75 441.18L201.75 462.18L183.56 472.68L165.37 462.18L165.37 441.18zM201.75 525.18L219.93 535.68L219.93 556.68L201.75 567.18L183.56 556.68L183.56 535.68zM201.75 588.18L219.93 598.68L219.93 619.68L201.75 630.18L183.56 619.68L183.56 598.68zM183.56 619.68L201.75 630.18L201.75 651.18L183.56 661.68L165.37 651.18L165.37 630.18zM201.75 651.18L219.93 661.68L219.93 682.68L201.75 693.18L183.56 682.68L183.56 661.68zM183.56 682.68L201.75 693.18L201.75 714.18L183.56 724.68L165.37 714.18L165.37 693.18zM201.75 714.18L219.93 724.68L219.93 745.68L201.75 756.18L183.56 745.68L183.56 724.68zM183.56 745.68L201.75 756.18L201.75 777.18L183.56 787.68L165.37 777.18L165.37 756.18zM201.75 777.18L219.93 787.68L219.93 808.68L201.75 819.18L183.56 808.68L183.56 787.68zM219.93 -10.32L238.12 0.18L238.12 21.18L219.93 31.68L201.75 21.18L201.75 0.18zM238.12 21.18L256.31 31.68L256.31 52.68L238.12 63.18L219.93 52.68L219.93 31.68zM219.93 52.68L238.12 63.18L238.12 84.18L219.93 94.68L201.75 84.18L201.75 63.18zM219.93 178.68L238.12 189.18L238.12 210.18L219.93 220.68L201.75 210.18L201.75 189.18zM238.12 210.18L256.31 220.68L256.31 241.68L238.12 252.18L219.93 241.68L219.93 220.68zM219.93 241.68L238.12 252.18L238.12 273.18L219.93 283.68L201.75 273.18L201.75 252.18zM238.12 399.18L256.31 409.68L256.31 430.68L238.12 441.18L219.93 430.68L219.93 409.68zM219.93 430.68L238.12 441.18L238.12 462.18L219.93 472.68L201.75 462.18L201.75 441.18zM219.93 493.68L238.12 504.18L238.12 525.18L219.93 535.68L201.75 525.18L201.75 504.18zM219.93 556.68L238.12 567.18L238.12 588.18L219.93 598.68L201.75 588.18L201.75 567.18zM238.12 588.18L256.31 598.68L256.31 619.68L238.12 630.18L219.93 619.68L219.93 598.68zM219.93 619.68L238.12 630.18L238.12 651.18L219.93 661.68L201.75 651.18L201.75 630.18zM219.93 682.68L238.12 693.18L238.12 714.18L219.93 724.68L201.75 714.18L201.75 693.18zM238.12 714.18L256.31 724.68L256.31 745.68L238.12 756.18L219.93 745.68L219.93 724.68zM238.12 777.18L256.31 787.68L256.31 808.68L238.12 819.18L219.93 808.68L219.93 787.68zM256.31 -10.32L274.5 0.18L274.5 21.18L256.31 31.68L238.12 21.18L238.12 0.18zM274.5 21.18L292.68 31.68L292.68 52.68L274.5 63.18L256.31 52.68L256.31 31.68zM256.31 52.68L274.5 63.18L274.5 84.18L256.31 94.68L238.12 84.18L238.12 63.18zM274.5 84.18L292.68 94.68L292.68 115.68L274.5 126.18L256.31 115.68L256.31 94.68zM256.31 115.68L274.5 126.18L274.5 147.18L256.31 157.68L238.12 147.18L238.12 126.18zM274.5 147.18L292.68 157.68L292.68 178.68L274.5 189.18L256.31 178.68L256.31 157.68zM274.5 210.18L292.68 220.68L292.68 241.68L274.5 252.18L256.31 241.68L256.31 220.68zM256.31 241.68L274.5 252.18L274.5 273.18L256.31 283.68L238.12 273.18L238.12 252.18zM256.31 430.68L274.5 441.18L274.5 462.18L256.31 472.68L238.12 462.18L238.12 441.18zM256.31 556.68L274.5 567.18L274.5 588.18L256.31 598.68L238.12 588.18L238.12 567.18zM274.5 651.18L292.68 661.68L292.68 682.68L274.5 693.18L256.31 682.68L256.31 661.68zM256.31 682.68L274.5 693.18L274.5 714.18L256.31 724.68L238.12 714.18L238.12 693.18zM274.5 714.18L292.68 724.68L292.68 745.68L274.5 756.18L256.31 745.68L256.31 724.68zM256.31 745.68L274.5 756.18L274.5 777.18L256.31 787.68L238.12 777.18L238.12 756.18zM292.68 -10.32L310.87 0.18L310.87 21.18L292.68 31.68L274.5 21.18L274.5 0.18zM310.87 21.18L329.06 31.68L329.06 52.68L310.87 63.18L292.68 52.68L292.68 31.68zM292.68 52.68L310.87 63.18L310.87 84.18L292.68 94.68L274.5 84.18L274.5 63.18zM292.68 115.68L310.87 126.18L310.87 147.18L292.68 157.68L274.5 147.18L274.5 126.18zM310.87 147.18L329.06 157.68L329.06 178.68L310.87 189.18L292.68 178.68L292.68 157.68zM292.68 178.68L310.87 189.18L310.87 210.18L292.68 220.68L274.5 210.18L274.5 189.18zM310.87 210.18L329.06 220.68L329.06 241.68L310.87 252.18L292.68 241.68L292.68 220.68zM310.87 273.18L329.06 283.68L329.06 304.68L310.87 315.18L292.68 304.68L292.68 283.68zM310.87 399.18L329.06 409.68L329.06 430.68L310.87 441.18L292.68 430.68L292.68 409.68zM310.87 462.18L329.06 472.68L329.06 493.68L310.87 504.18L292.68 493.68L292.68 472.68zM310.87 525.18L329.06 535.68L329.06 556.68L310.87 567.18L292.68 556.68L292.68 535.68zM292.68 745.68L310.87 756.18L310.87 777.18L292.68 787.68L274.5 777.18L274.5 756.18zM347.24 21.18L365.43 31.68L365.43 52.68L347.24 63.18L329.06 52.68L329.06 31.68zM347.24 147.18L365.43 157.68L365.43 178.68L347.24 189.18L329.06 178.68L329.06 157.68zM329.06 178.68L347.24 189.18L347.24 210.18L329.06 220.68L310.87 210.18L310.87 189.18zM329.06 241.68L347.24 252.18L347.24 273.18L329.06 283.68L310.87 273.18L310.87 252.18zM329.06 304.68L347.24 315.18L347.24 336.18L329.06 346.68L310.87 336.18L310.87 315.18zM329.06 367.68L347.24 378.18L347.24 399.18L329.06 409.68L310.87 399.18L310.87 378.18zM347.24 462.18L365.43 472.68L365.43 493.68L347.24 504.18L329.06 493.68L329.06 472.68zM347.24 651.18L365.43 661.68L365.43 682.68L347.24 693.18L329.06 682.68L329.06 661.68zM329.06 682.68L347.24 693.18L347.24 714.18L329.06 724.68L310.87 714.18L310.87 693.18zM347.24 777.18L365.43 787.68L365.43 808.68L347.24 819.18L329.06 808.68L329.06 787.68zM365.43 -10.32L383.62 0.18L383.62 21.18L365.43 31.68L347.24 21.18L347.24 0.18zM383.62 21.18L401.81 31.68L401.81 52.68L383.62 63.18L365.43 52.68L365.43 31.68zM383.62 84.18L401.81 94.68L401.81 115.68L383.62 126.18L365.43 115.68L365.43 94.68zM383.62 210.18L401.81 220.68L401.81 241.68L383.62 252.18L365.43 241.68L365.43 220.68zM383.62 273.18L401.81 283.68L401.81 304.68L383.62 315.18L365.43 304.68L365.43 283.68zM365.43 367.68L383.62 378.18L383.62 399.18L365.43 409.68L347.24 399.18L347.24 378.18zM383.62 399.18L401.81 409.68L401.81 430.68L383.62 441.18L365.43 430.68L365.43 409.68zM365.43 493.68L383.62 504.18L383.62 525.18L365.43 535.68L347.24 525.18L347.24 504.18zM383.62 525.18L401.81 535.68L401.81 556.68L383.62 567.18L365.43 556.68L365.43 535.68zM365.43 556.68L383.62 567.18L383.62 588.18L365.43 598.68L347.24 588.18L347.24 567.18zM365.43 682.68L383.62 693.18L383.62 714.18L365.43 724.68L347.24 714.18L347.24 693.18zM383.62 777.18L401.81 787.68L401.81 808.68L383.62 819.18L365.43 808.68L365.43 787.68zM419.99 147.18L438.18 157.68L438.18 178.68L419.99 189.18L401.81 178.68L401.81 157.68zM401.81 178.68L419.99 189.18L419.99 210.18L401.81 220.68L383.62 210.18L383.62 189.18zM419.99 462.18L438.18 472.68L438.18 493.68L419.99 504.18L401.81 493.68L401.81 472.68zM401.81 556.68L419.99 567.18L419.99 588.18L401.81 598.68L383.62 588.18L383.62 567.18zM419.99 651.18L438.18 661.68L438.18 682.68L419.99 693.18L401.81 682.68L401.81 661.68zM419.99 714.18L438.18 724.68L438.18 745.68L419.99 756.18L401.81 745.68L401.81 724.68zM401.81 745.68L419.99 756.18L419.99 777.18L401.81 787.68L383.62 777.18L383.62 756.18zM419.99 777.18L438.18 787.68L438.18 808.68L419.99 819.18L401.81 808.68L401.81 787.68zM456.37 21.18L474.55 31.68L474.55 52.68L456.37 63.18L438.18 52.68L438.18 31.68zM438.18 52.68L456.37 63.18L456.37 84.18L438.18 94.68L419.99 84.18L419.99 63.18zM438.18 178.68L456.37 189.18L456.37 210.18L438.18 220.68L419.99 210.18L419.99 189.18zM456.37 210.18L474.55 220.68L474.55 241.68L456.37 252.18L438.18 241.68L438.18 220.68zM456.37 399.18L474.55 409.68L474.55 430.68L456.37 441.18L438.18 430.68L438.18 409.68zM456.37 525.18L474.55 535.68L474.55 556.68L456.37 567.18L438.18 556.68L438.18 535.68zM438.18 556.68L456.37 567.18L456.37 588.18L438.18 598.68L419.99 588.18L419.99 567.18zM456.37 588.18L474.55 598.68L474.55 619.68L456.37 630.18L438.18 619.68L438.18 598.68zM456.37 651.18L474.55 661.68L474.55 682.68L456.37 693.18L438.18 682.68L438.18 661.68zM438.18 682.68L456.37 693.18L456.37 714.18L438.18 724.68L419.99 714.18L419.99 693.18zM456.37 714.18L474.55 724.68L474.55 745.68L456.37 756.18L438.18 745.68L438.18 724.68zM474.55 -10.32L492.74 0.18L492.74 21.18L474.55 31.68L456.37 21.18L456.37 0.18zM474.55 52.68L492.74 63.18L492.74 84.18L474.55 94.68L456.37 84.18L456.37 63.18zM474.55 115.68L492.74 126.18L492.74 147.18L474.55 157.68L456.37 147.18L456.37 126.18zM492.74 147.18L510.93 157.68L510.93 178.68L492.74 189.18L474.55 178.68L474.55 157.68zM474.55 178.68L492.74 189.18L492.74 210.18L474.55 220.68L456.37 210.18L456.37 189.18zM492.74 273.18L510.93 283.68L510.93 304.68L492.74 315.18L474.55 304.68L474.55 283.68zM474.55 304.68L492.74 315.18L492.74 336.18L474.55 346.68L456.37 336.18L456.37 315.18zM492.74 336.18L510.93 346.68L510.93 367.68L492.74 378.18L474.55 367.68L474.55 346.68zM474.55 367.68L492.74 378.18L492.74 399.18L474.55 409.68L456.37 399.18L456.37 378.18zM492.74 399.18L510.93 409.68L510.93 430.68L492.74 441.18L474.55 430.68L474.55 409.68zM492.74 525.18L510.93 535.68L510.93 556.68L492.74 567.18L474.55 556.68L474.55 535.68zM492.74 714.18L510.93 724.68L510.93 745.68L492.74 756.18L474.55 745.68L474.55 724.68zM510.93 -10.32L529.11 0.18L529.11 21.18L510.93 31.68L492.74 21.18L492.74 0.18zM510.93 52.68L529.11 63.18L529.11 84.18L510.93 94.68L492.74 84.18L492.74 63.18zM529.11 84.18L547.3 94.68L547.3 115.68L529.11 126.18L510.93 115.68L510.93 94.68zM529.11 147.18L547.3 157.68L547.3 178.68L529.11 189.18L510.93 178.68L510.93 157.68zM510.93 241.68L529.11 252.18L529.11 273.18L510.93 283.68L492.74 273.18L492.74 252.18zM529.11 273.18L547.3 283.68L547.3 304.68L529.11 315.18L510.93 304.68L510.93 283.68zM510.93 304.68L529.11 315.18L529.11 336.18L510.93 346.68L492.74 336.18L492.74 315.18zM529.11 336.18L547.3 346.68L547.3 367.68L529.11 378.18L510.93 367.68L510.93 346.68zM510.93 367.68L529.11 378.18L529.11 399.18L510.93 409.68L492.74 399.18L492.74 378.18zM510.93 493.68L529.11 504.18L529.11 525.18L510.93 535.68L492.74 525.18L492.74 504.18zM529.11 525.18L547.3 535.68L547.3 556.68L529.11 567.18L510.93 556.68L510.93 535.68zM529.11 588.18L547.3 598.68L547.3 619.68L529.11 630.18L510.93 619.68L510.93 598.68zM510.93 745.68L529.11 756.18L529.11 777.18L510.93 787.68L492.74 777.18L492.74 756.18zM565.49 21.18L583.68 31.68L583.68 52.68L565.49 63.18L547.3 52.68L547.3 31.68zM565.49 84.18L583.68 94.68L583.68 115.68L565.49 126.18L547.3 115.68L547.3 94.68zM565.49 147.18L583.68 157.68L583.68 178.68L565.49 189.18L547.3 178.68L547.3 157.68zM547.3 241.68L565.49 252.18L565.49 273.18L547.3 283.68L529.11 273.18L529.11 252.18zM565.49 273.18L583.68 283.68L583.68 304.68L565.49 315.18L547.3 304.68L547.3 283.68zM547.3 304.68L565.49 315.18L565.49 336.18L547.3 346.68L529.11 336.18L529.11 315.18zM565.49 336.18L583.68 346.68L583.68 367.68L565.49 378.18L547.3 367.68L547.3 346.68zM547.3 367.68L565.49 378.18L565.49 399.18L547.3 409.68L529.11 399.18L529.11 378.18zM547.3 430.68L565.49 441.18L565.49 462.18L547.3 472.68L529.11 462.18L529.11 441.18zM547.3 493.68L565.49 504.18L565.49 525.18L547.3 535.68L529.11 525.18L529.11 504.18zM547.3 556.68L565.49 567.18L565.49 588.18L547.3 598.68L529.11 588.18L529.11 567.18zM547.3 619.68L565.49 630.18L565.49 651.18L547.3 661.68L529.11 651.18L529.11 630.18zM547.3 682.68L565.49 693.18L565.49 714.18L547.3 724.68L529.11 714.18L529.11 693.18zM565.49 777.18L583.68 787.68L583.68 808.68L565.49 819.18L547.3 808.68L547.3 787.68zM583.68 -10.32L601.86 0.18L601.86 21.18L583.68 31.68L565.49 21.18L565.49 0.18zM583.68 115.68L601.86 126.18L601.86 147.18L583.68 157.68L565.49 147.18L565.49 126.18zM583.68 178.68L601.86 189.18L601.86 210.18L583.68 220.68L565.49 210.18L565.49 189.18zM601.86 210.18L620.05 220.68L620.05 241.68L601.86 252.18L583.68 241.68L583.68 220.68zM583.68 241.68L601.86 252.18L601.86 273.18L583.68 283.68L565.49 273.18L565.49 252.18zM601.86 273.18L620.05 283.68L620.05 304.68L601.86 315.18L583.68 304.68L583.68 283.68zM583.68 304.68L601.86 315.18L601.86 336.18L583.68 346.68L565.49 336.18L565.49 315.18zM583.68 430.68L601.86 441.18L601.86 462.18L583.68 472.68L565.49 462.18L565.49 441.18zM601.86 462.18L620.05 472.68L620.05 493.68L601.86 504.18L583.68 493.68L583.68 472.68zM583.68 493.68L601.86 504.18L601.86 525.18L583.68 535.68L565.49 525.18L565.49 504.18zM583.68 556.68L601.86 567.18L601.86 588.18L583.68 598.68L565.49 588.18L565.49 567.18zM601.86 588.18L620.05 598.68L620.05 619.68L601.86 630.18L583.68 619.68L583.68 598.68zM601.86 651.18L620.05 661.68L620.05 682.68L601.86 693.18L583.68 682.68L583.68 661.68zM583.68 682.68L601.86 693.18L601.86 714.18L583.68 724.68L565.49 714.18L565.49 693.18zM601.86 714.18L620.05 724.68L620.05 745.68L601.86 756.18L583.68 745.68L583.68 724.68zM601.86 777.18L620.05 787.68L620.05 808.68L601.86 819.18L583.68 808.68L583.68 787.68zM638.24 21.18L656.42 31.68L656.42 52.68L638.24 63.18L620.05 52.68L620.05 31.68zM620.05 52.68L638.24 63.18L638.24 84.18L620.05 94.68L601.86 84.18L601.86 63.18zM638.24 84.18L656.42 94.68L656.42 115.68L638.24 126.18L620.05 115.68L620.05 94.68zM638.24 147.18L656.42 157.68L656.42 178.68L638.24 189.18L620.05 178.68L620.05 157.68zM638.24 273.18L656.42 283.68L656.42 304.68L638.24 315.18L620.05 304.68L620.05 283.68zM620.05 304.68L638.24 315.18L638.24 336.18L620.05 346.68L601.86 336.18L601.86 315.18zM638.24 336.18L656.42 346.68L656.42 367.68L638.24 378.18L620.05 367.68L620.05 346.68zM638.24 525.18L656.42 535.68L656.42 556.68L638.24 567.18L620.05 556.68L620.05 535.68zM656.42 -10.32L674.61 0.18L674.61 21.18L656.42 31.68L638.24 21.18L638.24 0.18zM674.61 21.18L692.8 31.68L692.8 52.68L674.61 63.18L656.42 52.68L656.42 31.68zM656.42 52.68L674.61 63.18L674.61 84.18L656.42 94.68L638.24 84.18L638.24 63.18zM674.61 84.18L692.8 94.68L692.8 115.68L674.61 126.18L656.42 115.68L656.42 94.68zM674.61 147.18L692.8 157.68L692.8 178.68L674.61 189.18L656.42 178.68L656.42 157.68zM674.61 273.18L692.8 283.68L692.8 304.68L674.61 315.18L656.42 304.68L656.42 283.68zM674.61 336.18L692.8 346.68L692.8 367.68L674.61 378.18L656.42 367.68L656.42 346.68zM656.42 367.68L674.61 378.18L674.61 399.18L656.42 409.68L638.24 399.18L638.24 378.18zM674.61 399.18L692.8 409.68L692.8 430.68L674.61 441.18L656.42 430.68L656.42 409.68zM656.42 430.68L674.61 441.18L674.61 462.18L656.42 472.68L638.24 462.18L638.24 441.18zM674.61 462.18L692.8 472.68L692.8 493.68L674.61 504.18L656.42 493.68L656.42 472.68zM674.61 651.18L692.8 661.68L692.8 682.68L674.61 693.18L656.42 682.68L656.42 661.68zM710.98 21.18L729.17 31.68L729.17 52.68L710.98 63.18L692.8 52.68L692.8 31.68zM692.8 115.68L710.98 126.18L710.98 147.18L692.8 157.68L674.61 147.18L674.61 126.18zM710.98 147.18L729.17 157.68L729.17 178.68L710.98 189.18L692.8 178.68L692.8 157.68zM692.8 241.68L710.98 252.18L710.98 273.18L692.8 283.68L674.61 273.18L674.61 252.18zM692.8 304.68L710.98 315.18L710.98 336.18L692.8 346.68L674.61 336.18L674.61 315.18zM710.98 336.18L729.17 346.68L729.17 367.68L710.98 378.18L692.8 367.68L692.8 346.68zM692.8 430.68L710.98 441.18L710.98 462.18L692.8 472.68L674.61 462.18L674.61 441.18zM692.8 493.68L710.98 504.18L710.98 525.18L692.8 535.68L674.61 525.18L674.61 504.18zM710.98 525.18L729.17 535.68L729.17 556.68L710.98 567.18L692.8 556.68L692.8 535.68zM710.98 588.18L729.17 598.68L729.17 619.68L710.98 630.18L692.8 619.68L692.8 598.68zM692.8 682.68L710.98 693.18L710.98 714.18L692.8 724.68L674.61 714.18L674.61 693.18zM692.8 745.68L710.98 756.18L710.98 777.18L692.8 787.68L674.61 777.18L674.61 756.18zM747.36 21.18L765.55 31.68L765.55 52.68L747.36 63.18L729.17 52.68L729.17 31.68zM729.17 52.68L747.36 63.18L747.36 84.18L729.17 94.68L710.98 84.18L710.98 63.18zM729.17 178.68L747.36 189.18L747.36 210.18L729.17 220.68L710.98 210.18L710.98 189.18zM729.17 241.68L747.36 252.18L747.36 273.18L729.17 283.68L710.98 273.18L710.98 252.18zM729.17 304.68L747.36 315.18L747.36 336.18L729.17 346.68L710.98 336.18L710.98 315.18zM747.36 336.18L765.55 346.68L765.55 367.68L747.36 378.18L729.17 367.68L729.17 346.68zM747.36 399.18L765.55 409.68L765.55 430.68L747.36 441.18L729.17 430.68L729.17 409.68zM747.36 462.18L765.55 472.68L765.55 493.68L747.36 504.18L729.17 493.68L729.17 472.68zM747.36 525.18L765.55 535.68L765.55 556.68L747.36 567.18L729.17 556.68L729.17 535.68zM729.17 619.68L747.36 630.18L747.36 651.18L729.17 661.68L710.98 651.18L710.98 630.18zM747.36 651.18L765.55 661.68L765.55 682.68L747.36 693.18L729.17 682.68L729.17 661.68zM729.17 682.68L747.36 693.18L747.36 714.18L729.17 724.68L710.98 714.18L710.98 693.18zM765.55 -10.32L783.73 0.18L783.73 21.18L765.55 31.68L747.36 21.18L747.36 0.18zM783.73 21.18L801.92 31.68L801.92 52.68L783.73 63.18L765.55 52.68L765.55 31.68zM765.55 52.68L783.73 63.18L783.73 84.18L765.55 94.68L747.36 84.18L747.36 63.18zM783.73 84.18L801.92 94.68L801.92 115.68L783.73 126.18L765.55 115.68L765.55 94.68zM765.55 115.68L783.73 126.18L783.73 147.18L765.55 157.68L747.36 147.18L747.36 126.18zM783.73 147.18L801.92 157.68L801.92 178.68L783.73 189.18L765.55 178.68L765.55 157.68zM765.55 178.68L783.73 189.18L783.73 210.18L765.55 220.68L747.36 210.18L747.36 189.18zM783.73 273.18L801.92 283.68L801.92 304.68L783.73 315.18L765.55 304.68L765.55 283.68zM765.55 304.68L783.73 315.18L783.73 336.18L765.55 346.68L747.36 336.18L747.36 315.18zM783.73 462.18L801.92 472.68L801.92 493.68L783.73 504.18L765.55 493.68L765.55 472.68zM765.55 493.68L783.73 504.18L783.73 525.18L765.55 535.68L747.36 525.18L747.36 504.18zM783.73 525.18L801.92 535.68L801.92 556.68L783.73 567.18L765.55 556.68L765.55 535.68zM765.55 619.68L783.73 630.18L783.73 651.18L765.55 661.68L747.36 651.18L747.36 630.18zM783.73 651.18L801.92 661.68L801.92 682.68L783.73 693.18L765.55 682.68L765.55 661.68zM765.55 682.68L783.73 693.18L783.73 714.18L765.55 724.68L747.36 714.18L747.36 693.18zM783.73 777.18L801.92 787.68L801.92 808.68L783.73 819.18L765.55 808.68L765.55 787.68zM801.92 -10.32L820.11 0.18L820.11 21.18L801.92 31.68L783.73 21.18L783.73 0.18zM820.11 21.18L838.29 31.68L838.29 52.68L820.11 63.18L801.92 52.68L801.92 31.68zM801.92 52.68L820.11 63.18L820.11 84.18L801.92 94.68L783.73 84.18L783.73 63.18zM801.92 115.68L820.11 126.18L820.11 147.18L801.92 157.68L783.73 147.18L783.73 126.18zM820.11 210.18L838.29 220.68L838.29 241.68L820.11 252.18L801.92 241.68L801.92 220.68zM801.92 241.68L820.11 252.18L820.11 273.18L801.92 283.68L783.73 273.18L783.73 252.18zM820.11 273.18L838.29 283.68L838.29 304.68L820.11 315.18L801.92 304.68L801.92 283.68zM801.92 367.68L820.11 378.18L820.11 399.18L801.92 409.68L783.73 399.18L783.73 378.18zM801.92 430.68L820.11 441.18L820.11 462.18L801.92 472.68L783.73 462.18L783.73 441.18zM820.11 462.18L838.29 472.68L838.29 493.68L820.11 504.18L801.92 493.68L801.92 472.68zM801.92 493.68L820.11 504.18L820.11 525.18L801.92 535.68L783.73 525.18L783.73 504.18zM820.11 525.18L838.29 535.68L838.29 556.68L820.11 567.18L801.92 556.68L801.92 535.68zM820.11 714.18L838.29 724.68L838.29 745.68L820.11 756.18L801.92 745.68L801.92 724.68zM820.11 777.18L838.29 787.68L838.29 808.68L820.11 819.18L801.92 808.68L801.92 787.68zM856.48 21.18L874.67 31.68L874.67 52.68L856.48 63.18L838.29 52.68L838.29 31.68zM838.29 178.68L856.48 189.18L856.48 210.18L838.29 220.68L820.11 210.18L820.11 189.18zM856.48 210.18L874.67 220.68L874.67 241.68L856.48 252.18L838.29 241.68L838.29 220.68zM856.48 273.18L874.67 283.68L874.67 304.68L856.48 315.18L838.29 304.68L838.29 283.68zM838.29 304.68L856.48 315.18L856.48 336.18L838.29 346.68L820.11 336.18L820.11 315.18zM838.29 367.68L856.48 378.18L856.48 399.18L838.29 409.68L820.11 399.18L820.11 378.18zM856.48 462.18L874.67 472.68L874.67 493.68L856.48 504.18L838.29 493.68L838.29 472.68zM856.48 525.18L874.67 535.68L874.67 556.68L856.48 567.18L838.29 556.68L838.29 535.68zM856.48 588.18L874.67 598.68L874.67 619.68L856.48 630.18L838.29 619.68L838.29 598.68zM856.48 651.18L874.67 661.68L874.67 682.68L856.48 693.18L838.29 682.68L838.29 661.68zM838.29 682.68L856.48 693.18L856.48 714.18L838.29 724.68L820.11 714.18L820.11 693.18zM874.67 -10.32L892.86 0.18L892.86 21.18L874.67 31.68L856.48 21.18L856.48 0.18zM874.67 115.68L892.86 126.18L892.86 147.18L874.67 157.68L856.48 147.18L856.48 126.18zM892.86 210.18L911.04 220.68L911.04 241.68L892.86 252.18L874.67 241.68L874.67 220.68zM874.67 241.68L892.86 252.18L892.86 273.18L874.67 283.68L856.48 273.18L856.48 252.18zM892.86 273.18L911.04 283.68L911.04 304.68L892.86 315.18L874.67 304.68L874.67 283.68zM874.67 304.68L892.86 315.18L892.86 336.18L874.67 346.68L856.48 336.18L856.48 315.18zM892.86 336.18L911.04 346.68L911.04 367.68L892.86 378.18L874.67 367.68L874.67 346.68zM874.67 367.68L892.86 378.18L892.86 399.18L874.67 409.68L856.48 399.18L856.48 378.18zM892.86 462.18L911.04 472.68L911.04 493.68L892.86 504.18L874.67 493.68L874.67 472.68zM892.86 588.18L911.04 598.68L911.04 619.68L892.86 630.18L874.67 619.68L874.67 598.68zM892.86 651.18L911.04 661.68L911.04 682.68L892.86 693.18L874.67 682.68L874.67 661.68zM874.67 682.68L892.86 693.18L892.86 714.18L874.67 724.68L856.48 714.18L856.48 693.18zM911.04 -10.32L929.23 0.18L929.23 21.18L911.04 31.68L892.86 21.18L892.86 0.18zM911.04 52.68L929.23 63.18L929.23 84.18L911.04 94.68L892.86 84.18L892.86 63.18zM929.23 84.18L947.42 94.68L947.42 115.68L929.23 126.18L911.04 115.68L911.04 94.68zM929.23 147.18L947.42 157.68L947.42 178.68L929.23 189.18L911.04 178.68L911.04 157.68zM911.04 178.68L929.23 189.18L929.23 210.18L911.04 220.68L892.86 210.18L892.86 189.18zM929.23 210.18L947.42 220.68L947.42 241.68L929.23 252.18L911.04 241.68L911.04 220.68zM911.04 367.68L929.23 378.18L929.23 399.18L911.04 409.68L892.86 399.18L892.86 378.18zM929.23 399.18L947.42 409.68L947.42 430.68L929.23 441.18L911.04 430.68L911.04 409.68zM911.04 430.68L929.23 441.18L929.23 462.18L911.04 472.68L892.86 462.18L892.86 441.18zM929.23 462.18L947.42 472.68L947.42 493.68L929.23 504.18L911.04 493.68L911.04 472.68zM929.23 525.18L947.42 535.68L947.42 556.68L929.23 567.18L911.04 556.68L911.04 535.68zM911.04 556.68L929.23 567.18L929.23 588.18L911.04 598.68L892.86 588.18L892.86 567.18zM911.04 619.68L929.23 630.18L929.23 651.18L911.04 661.68L892.86 651.18L892.86 630.18zM911.04 682.68L929.23 693.18L929.23 714.18L911.04 724.68L892.86 714.18L892.86 693.18zM911.04 745.68L929.23 756.18L929.23 777.18L911.04 787.68L892.86 777.18L892.86 756.18zM947.42 -10.32L965.6 0.18L965.6 21.18L947.42 31.68L929.23 21.18L929.23 0.18zM947.42 52.68L965.6 63.18L965.6 84.18L947.42 94.68L929.23 84.18L929.23 63.18zM947.42 304.68L965.6 315.18L965.6 336.18L947.42 346.68L929.23 336.18L929.23 315.18zM947.42 430.68L965.6 441.18L965.6 462.18L947.42 472.68L929.23 462.18L929.23 441.18zM965.6 462.18L983.79 472.68L983.79 493.68L965.6 504.18L947.42 493.68L947.42 472.68zM965.6 525.18L983.79 535.68L983.79 556.68L965.6 567.18L947.42 556.68L947.42 535.68zM947.42 556.68L965.6 567.18L965.6 588.18L947.42 598.68L929.23 588.18L929.23 567.18zM965.6 588.18L983.79 598.68L983.79 619.68L965.6 630.18L947.42 619.68L947.42 598.68zM947.42 682.68L965.6 693.18L965.6 714.18L947.42 724.68L929.23 714.18L929.23 693.18zM983.79 304.68L1001.98 315.18L1001.98 336.18L983.79 346.68L965.6 336.18L965.6 315.18zM1001.98 462.18L1020.16 472.68L1020.16 493.68L1001.98 504.18L983.79 493.68L983.79 472.68zM983.79 493.68L1001.98 504.18L1001.98 525.18L983.79 535.68L965.6 525.18L965.6 504.18zM1001.98 525.18L1020.16 535.68L1020.16 556.68L1001.98 567.18L983.79 556.68L983.79 535.68zM1001.98 588.18L1020.16 598.68L1020.16 619.68L1001.98 630.18L983.79 619.68L983.79 598.68zM983.79 682.68L1001.98 693.18L1001.98 714.18L983.79 724.68L965.6 714.18L965.6 693.18zM1001.98 714.18L1020.16 724.68L1020.16 745.68L1001.98 756.18L983.79 745.68L983.79 724.68zM1020.16 178.68L1038.35 189.18L1038.35 210.18L1020.16 220.68L1001.98 210.18L1001.98 189.18zM1020.16 304.68L1038.35 315.18L1038.35 336.18L1020.16 346.68L1001.98 336.18L1001.98 315.18zM1038.35 336.18L1056.54 346.68L1056.54 367.68L1038.35 378.18L1020.16 367.68L1020.16 346.68zM1020.16 430.68L1038.35 441.18L1038.35 462.18L1020.16 472.68L1001.98 462.18L1001.98 441.18zM1038.35 462.18L1056.54 472.68L1056.54 493.68L1038.35 504.18L1020.16 493.68L1020.16 472.68zM1020.16 556.68L1038.35 567.18L1038.35 588.18L1020.16 598.68L1001.98 588.18L1001.98 567.18zM1038.35 651.18L1056.54 661.68L1056.54 682.68L1038.35 693.18L1020.16 682.68L1020.16 661.68zM1020.16 745.68L1038.35 756.18L1038.35 777.18L1020.16 787.68L1001.98 777.18L1001.98 756.18zM1038.35 777.18L1056.54 787.68L1056.54 808.68L1038.35 819.18L1020.16 808.68L1020.16 787.68zM1074.73 21.18L1092.91 31.68L1092.91 52.68L1074.73 63.18L1056.54 52.68L1056.54 31.68zM1056.54 52.68L1074.73 63.18L1074.73 84.18L1056.54 94.68L1038.35 84.18L1038.35 63.18zM1074.73 84.18L1092.91 94.68L1092.91 115.68L1074.73 126.18L1056.54 115.68L1056.54 94.68zM1074.73 147.18L1092.91 157.68L1092.91 178.68L1074.73 189.18L1056.54 178.68L1056.54 157.68zM1056.54 178.68L1074.73 189.18L1074.73 210.18L1056.54 220.68L1038.35 210.18L1038.35 189.18zM1074.73 210.18L1092.91 220.68L1092.91 241.68L1074.73 252.18L1056.54 241.68L1056.54 220.68zM1074.73 273.18L1092.91 283.68L1092.91 304.68L1074.73 315.18L1056.54 304.68L1056.54 283.68zM1074.73 399.18L1092.91 409.68L1092.91 430.68L1074.73 441.18L1056.54 430.68L1056.54 409.68zM1056.54 430.68L1074.73 441.18L1074.73 462.18L1056.54 472.68L1038.35 462.18L1038.35 441.18zM1056.54 556.68L1074.73 567.18L1074.73 588.18L1056.54 598.68L1038.35 588.18L1038.35 567.18zM1056.54 619.68L1074.73 630.18L1074.73 651.18L1056.54 661.68L1038.35 651.18L1038.35 630.18zM1074.73 651.18L1092.91 661.68L1092.91 682.68L1074.73 693.18L1056.54 682.68L1056.54 661.68zM1056.54 682.68L1074.73 693.18L1074.73 714.18L1056.54 724.68L1038.35 714.18L1038.35 693.18zM1111.1 21.18L1129.29 31.68L1129.29 52.68L1111.1 63.18L1092.91 52.68L1092.91 31.68zM1111.1 84.18L1129.29 94.68L1129.29 115.68L1111.1 126.18L1092.91 115.68L1092.91 94.68zM1092.91 115.68L1111.1 126.18L1111.1 147.18L1092.91 157.68L1074.73 147.18L1074.73 126.18zM1111.1 147.18L1129.29 157.68L1129.29 178.68L1111.1 189.18L1092.91 178.68L1092.91 157.68zM1092.91 367.68L1111.1 378.18L1111.1 399.18L1092.91 409.68L1074.73 399.18L1074.73 378.18zM1092.91 556.68L1111.1 567.18L1111.1 588.18L1092.91 598.68L1074.73 588.18L1074.73 567.18zM1092.91 619.68L1111.1 630.18L1111.1 651.18L1092.91 661.68L1074.73 651.18L1074.73 630.18zM1111.1 651.18L1129.29 661.68L1129.29 682.68L1111.1 693.18L1092.91 682.68L1092.91 661.68zM1092.91 745.68L1111.1 756.18L1111.1 777.18L1092.91 787.68L1074.73 777.18L1074.73 756.18zM1129.29 115.68L1147.47 126.18L1147.47 147.18L1129.29 157.68L1111.1 147.18L1111.1 126.18zM1129.29 178.68L1147.47 189.18L1147.47 210.18L1129.29 220.68L1111.1 210.18L1111.1 189.18zM1147.47 210.18L1165.66 220.68L1165.66 241.68L1147.47 252.18L1129.29 241.68L1129.29 220.68zM1129.29 241.68L1147.47 252.18L1147.47 273.18L1129.29 283.68L1111.1 273.18L1111.1 252.18zM1147.47 273.18L1165.66 283.68L1165.66 304.68L1147.47 315.18L1129.29 304.68L1129.29 283.68zM1129.29 304.68L1147.47 315.18L1147.47 336.18L1129.29 346.68L1111.1 336.18L1111.1 315.18zM1129.29 430.68L1147.47 441.18L1147.47 462.18L1129.29 472.68L1111.1 462.18L1111.1 441.18zM1147.47 462.18L1165.66 472.68L1165.66 493.68L1147.47 504.18L1129.29 493.68L1129.29 472.68zM1129.29 493.68L1147.47 504.18L1147.47 525.18L1129.29 535.68L1111.1 525.18L1111.1 504.18zM1129.29 556.68L1147.47 567.18L1147.47 588.18L1129.29 598.68L1111.1 588.18L1111.1 567.18zM1129.29 619.68L1147.47 630.18L1147.47 651.18L1129.29 661.68L1111.1 651.18L1111.1 630.18zM1147.47 651.18L1165.66 661.68L1165.66 682.68L1147.47 693.18L1129.29 682.68L1129.29 661.68zM1129.29 682.68L1147.47 693.18L1147.47 714.18L1129.29 724.68L1111.1 714.18L1111.1 693.18zM1147.47 714.18L1165.66 724.68L1165.66 745.68L1147.47 756.18L1129.29 745.68L1129.29 724.68zM1129.29 745.68L1147.47 756.18L1147.47 777.18L1129.29 787.68L1111.1 777.18L1111.1 756.18zM1147.47 777.18L1165.66 787.68L1165.66 808.68L1147.47 819.18L1129.29 808.68L1129.29 787.68zM1165.66 -10.32L1183.85 0.18L1183.85 21.18L1165.66 31.68L1147.47 21.18L1147.47 0.18zM1183.85 21.18L1202.04 31.68L1202.04 52.68L1183.85 63.18L1165.66 52.68L1165.66 31.68zM1165.66 52.68L1183.85 63.18L1183.85 84.18L1165.66 94.68L1147.47 84.18L1147.47 63.18zM1165.66 115.68L1183.85 126.18L1183.85 147.18L1165.66 157.68L1147.47 147.18L1147.47 126.18zM1183.85 210.18L1202.04 220.68L1202.04 241.68L1183.85 252.18L1165.66 241.68L1165.66 220.68zM1165.66 304.68L1183.85 315.18L1183.85 336.18L1165.66 346.68L1147.47 336.18L1147.47 315.18zM1183.85 399.18L1202.04 409.68L1202.04 430.68L1183.85 441.18L1165.66 430.68L1165.66 409.68zM1183.85 462.18L1202.04 472.68L1202.04 493.68L1183.85 504.18L1165.66 493.68L1165.66 472.68zM1165.66 556.68L1183.85 567.18L1183.85 588.18L1165.66 598.68L1147.47 588.18L1147.47 567.18zM1183.85 714.18L1202.04 724.68L1202.04 745.68L1183.85 756.18L1165.66 745.68L1165.66 724.68zM1202.04 -10.32L1220.22 0.18L1220.22 21.18L1202.04 31.68L1183.85 21.18L1183.85 0.18zM1202.04 52.68L1220.22 63.18L1220.22 84.18L1202.04 94.68L1183.85 84.18L1183.85 63.18zM1202.04 178.68L1220.22 189.18L1220.22 210.18L1202.04 220.68L1183.85 210.18L1183.85 189.18zM1220.22 210.18L1238.41 220.68L1238.41 241.68L1220.22 252.18L1202.04 241.68L1202.04 220.68zM1202.04 304.68L1220.22 315.18L1220.22 336.18L1202.04 346.68L1183.85 336.18L1183.85 315.18zM1220.22 336.18L1238.41 346.68L1238.41 367.68L1220.22 378.18L1202.04 367.68L1202.04 346.68zM1220.22 399.18L1238.41 409.68L1238.41 430.68L1220.22 441.18L1202.04 430.68L1202.04 409.68zM1202.04 430.68L1220.22 441.18L1220.22 462.18L1202.04 472.68L1183.85 462.18L1183.85 441.18zM1220.22 777.18L1238.41 787.68L1238.41 808.68L1220.22 819.18L1202.04 808.68L1202.04 787.68zM1238.41 -10.32L1256.6 0.18L1256.6 21.18L1238.41 31.68L1220.22 21.18L1220.22 0.18zM1256.6 21.18L1274.78 31.68L1274.78 52.68L1256.6 63.18L1238.41 52.68L1238.41 31.68zM1256.6 84.18L1274.78 94.68L1274.78 115.68L1256.6 126.18L1238.41 115.68L1238.41 94.68zM1256.6 147.18L1274.78 157.68L1274.78 178.68L1256.6 189.18L1238.41 178.68L1238.41 157.68zM1238.41 178.68L1256.6 189.18L1256.6 210.18L1238.41 220.68L1220.22 210.18L1220.22 189.18zM1256.6 210.18L1274.78 220.68L1274.78 241.68L1256.6 252.18L1238.41 241.68L1238.41 220.68zM1256.6 273.18L1274.78 283.68L1274.78 304.68L1256.6 315.18L1238.41 304.68L1238.41 283.68zM1238.41 367.68L1256.6 378.18L1256.6 399.18L1238.41 409.68L1220.22 399.18L1220.22 378.18zM1256.6 399.18L1274.78 409.68L1274.78 430.68L1256.6 441.18L1238.41 430.68L1238.41 409.68zM1238.41 430.68L1256.6 441.18L1256.6 462.18L1238.41 472.68L1220.22 462.18L1220.22 441.18zM1256.6 462.18L1274.78 472.68L1274.78 493.68L1256.6 504.18L1238.41 493.68L1238.41 472.68zM1238.41 493.68L1256.6 504.18L1256.6 525.18L1238.41 535.68L1220.22 525.18L1220.22 504.18zM1256.6 525.18L1274.78 535.68L1274.78 556.68L1256.6 567.18L1238.41 556.68L1238.41 535.68zM1238.41 556.68L1256.6 567.18L1256.6 588.18L1238.41 598.68L1220.22 588.18L1220.22 567.18zM1256.6 588.18L1274.78 598.68L1274.78 619.68L1256.6 630.18L1238.41 619.68L1238.41 598.68zM1256.6 651.18L1274.78 661.68L1274.78 682.68L1256.6 693.18L1238.41 682.68L1238.41 661.68zM1238.41 682.68L1256.6 693.18L1256.6 714.18L1238.41 724.68L1220.22 714.18L1220.22 693.18zM1256.6 714.18L1274.78 724.68L1274.78 745.68L1256.6 756.18L1238.41 745.68L1238.41 724.68zM1238.41 745.68L1256.6 756.18L1256.6 777.18L1238.41 787.68L1220.22 777.18L1220.22 756.18zM1292.97 84.18L1311.16 94.68L1311.16 115.68L1292.97 126.18L1274.78 115.68L1274.78 94.68zM1274.78 115.68L1292.97 126.18L1292.97 147.18L1274.78 157.68L1256.6 147.18L1256.6 126.18zM1292.97 147.18L1311.16 157.68L1311.16 178.68L1292.97 189.18L1274.78 178.68L1274.78 157.68zM1292.97 210.18L1311.16 220.68L1311.16 241.68L1292.97 252.18L1274.78 241.68L1274.78 220.68zM1292.97 273.18L1311.16 283.68L1311.16 304.68L1292.97 315.18L1274.78 304.68L1274.78 283.68zM1274.78 304.68L1292.97 315.18L1292.97 336.18L1274.78 346.68L1256.6 336.18L1256.6 315.18zM1274.78 430.68L1292.97 441.18L1292.97 462.18L1274.78 472.68L1256.6 462.18L1256.6 441.18zM1292.97 462.18L1311.16 472.68L1311.16 493.68L1292.97 504.18L1274.78 493.68L1274.78 472.68zM1274.78 493.68L1292.97 504.18L1292.97 525.18L1274.78 535.68L1256.6 525.18L1256.6 504.18zM1274.78 556.68L1292.97 567.18L1292.97 588.18L1274.78 598.68L1256.6 588.18L1256.6 567.18zM1292.97 588.18L1311.16 598.68L1311.16 619.68L1292.97 630.18L1274.78 619.68L1274.78 598.68zM1292.97 714.18L1311.16 724.68L1311.16 745.68L1292.97 756.18L1274.78 745.68L1274.78 724.68zM1292.97 777.18L1311.16 787.68L1311.16 808.68L1292.97 819.18L1274.78 808.68L1274.78 787.68zM1311.16 -10.32L1329.34 0.18L1329.34 21.18L1311.16 31.68L1292.97 21.18L1292.97 0.18zM1311.16 52.68L1329.34 63.18L1329.34 84.18L1311.16 94.68L1292.97 84.18L1292.97 63.18zM1311.16 115.68L1329.34 126.18L1329.34 147.18L1311.16 157.68L1292.97 147.18L1292.97 126.18zM1329.34 147.18L1347.53 157.68L1347.53 178.68L1329.34 189.18L1311.16 178.68L1311.16 157.68zM1311.16 178.68L1329.34 189.18L1329.34 210.18L1311.16 220.68L1292.97 210.18L1292.97 189.18zM1329.34 273.18L1347.53 283.68L1347.53 304.68L1329.34 315.18L1311.16 304.68L1311.16 283.68zM1329.34 336.18L1347.53 346.68L1347.53 367.68L1329.34 378.18L1311.16 367.68L1311.16 346.68zM1329.34 399.18L1347.53 409.68L1347.53 430.68L1329.34 441.18L1311.16 430.68L1311.16 409.68zM1311.16 430.68L1329.34 441.18L1329.34 462.18L1311.16 472.68L1292.97 462.18L1292.97 441.18zM1329.34 462.18L1347.53 472.68L1347.53 493.68L1329.34 504.18L1311.16 493.68L1311.16 472.68zM1311.16 493.68L1329.34 504.18L1329.34 525.18L1311.16 535.68L1292.97 525.18L1292.97 504.18zM1311.16 682.68L1329.34 693.18L1329.34 714.18L1311.16 724.68L1292.97 714.18L1292.97 693.18zM1311.16 745.68L1329.34 756.18L1329.34 777.18L1311.16 787.68L1292.97 777.18L1292.97 756.18zM1329.34 777.18L1347.53 787.68L1347.53 808.68L1329.34 819.18L1311.16 808.68L1311.16 787.68zM1347.53 52.68L1365.72 63.18L1365.72 84.18L1347.53 94.68L1329.34 84.18L1329.34 63.18zM1365.72 84.18L1383.91 94.68L1383.91 115.68L1365.72 126.18L1347.53 115.68L1347.53 94.68zM1347.53 115.68L1365.72 126.18L1365.72 147.18L1347.53 157.68L1329.34 147.18L1329.34 126.18zM1347.53 178.68L1365.72 189.18L1365.72 210.18L1347.53 220.68L1329.34 210.18L1329.34 189.18zM1347.53 241.68L1365.72 252.18L1365.72 273.18L1347.53 283.68L1329.34 273.18L1329.34 252.18zM1347.53 304.68L1365.72 315.18L1365.72 336.18L1347.53 346.68L1329.34 336.18L1329.34 315.18zM1365.72 336.18L1383.91 346.68L1383.91 367.68L1365.72 378.18L1347.53 367.68L1347.53 346.68zM1347.53 430.68L1365.72 441.18L1365.72 462.18L1347.53 472.68L1329.34 462.18L1329.34 441.18zM1365.72 462.18L1383.91 472.68L1383.91 493.68L1365.72 504.18L1347.53 493.68L1347.53 472.68zM1365.72 525.18L1383.91 535.68L1383.91 556.68L1365.72 567.18L1347.53 556.68L1347.53 535.68zM1347.53 556.68L1365.72 567.18L1365.72 588.18L1347.53 598.68L1329.34 588.18L1329.34 567.18zM1365.72 588.18L1383.91 598.68L1383.91 619.68L1365.72 630.18L1347.53 619.68L1347.53 598.68zM1365.72 651.18L1383.91 661.68L1383.91 682.68L1365.72 693.18L1347.53 682.68L1347.53 661.68zM1347.53 745.68L1365.72 756.18L1365.72 777.18L1347.53 787.68L1329.34 777.18L1329.34 756.18zM1365.72 777.18L1383.91 787.68L1383.91 808.68L1365.72 819.18L1347.53 808.68L1347.53 787.68zM1383.91 -10.32L1402.09 0.18L1402.09 21.18L1383.91 31.68L1365.72 21.18L1365.72 0.18zM1383.91 52.68L1402.09 63.18L1402.09 84.18L1383.91 94.68L1365.72 84.18L1365.72 63.18zM1402.09 147.18L1420.28 157.68L1420.28 178.68L1402.09 189.18L1383.91 178.68L1383.91 157.68zM1383.91 178.68L1402.09 189.18L1402.09 210.18L1383.91 220.68L1365.72 210.18L1365.72 189.18zM1383.91 367.68L1402.09 378.18L1402.09 399.18L1383.91 409.68L1365.72 399.18L1365.72 378.18zM1402.09 399.18L1420.28 409.68L1420.28 430.68L1402.09 441.18L1383.91 430.68L1383.91 409.68zM1383.91 493.68L1402.09 504.18L1402.09 525.18L1383.91 535.68L1365.72 525.18L1365.72 504.18zM1402.09 525.18L1420.28 535.68L1420.28 556.68L1402.09 567.18L1383.91 556.68L1383.91 535.68zM1383.91 619.68L1402.09 630.18L1402.09 651.18L1383.91 661.68L1365.72 651.18L1365.72 630.18zM1402.09 651.18L1420.28 661.68L1420.28 682.68L1402.09 693.18L1383.91 682.68L1383.91 661.68zM1402.09 714.18L1420.28 724.68L1420.28 745.68L1402.09 756.18L1383.91 745.68L1383.91 724.68zM1383.91 745.68L1402.09 756.18L1402.09 777.18L1383.91 787.68L1365.72 777.18L1365.72 756.18zM1420.28 -10.32L1438.47 0.18L1438.47 21.18L1420.28 31.68L1402.09 21.18L1402.09 0.18zM1438.47 21.18L1456.65 31.68L1456.65 52.68L1438.47 63.18L1420.28 52.68L1420.28 31.68zM1420.28 115.68L1438.47 126.18L1438.47 147.18L1420.28 157.68L1402.09 147.18L1402.09 126.18zM1438.47 147.18L1456.65 157.68L1456.65 178.68L1438.47 189.18L1420.28 178.68L1420.28 157.68zM1438.47 336.18L1456.65 346.68L1456.65 367.68L1438.47 378.18L1420.28 367.68L1420.28 346.68zM1438.47 399.18L1456.65 409.68L1456.65 430.68L1438.47 441.18L1420.28 430.68L1420.28 409.68zM1438.47 462.18L1456.65 472.68L1456.65 493.68L1438.47 504.18L1420.28 493.68L1420.28 472.68zM1438.47 525.18L1456.65 535.68L1456.65 556.68L1438.47 567.18L1420.28 556.68L1420.28 535.68zM1420.28 556.68L1438.47 567.18L1438.47 588.18L1420.28 598.68L1402.09 588.18L1402.09 567.18zM1420.28 619.68L1438.47 630.18L1438.47 651.18L1420.28 661.68L1402.09 651.18L1402.09 630.18zM1438.47 651.18L1456.65 661.68L1456.65 682.68L1438.47 693.18L1420.28 682.68L1420.28 661.68zM1456.65 -10.32L1474.84 0.18L1474.84 21.18L1456.65 31.68L1438.47 21.18L1438.47 0.18zM1474.84 210.18L1493.03 220.68L1493.03 241.68L1474.84 252.18L1456.65 241.68L1456.65 220.68zM1474.84 273.18L1493.03 283.68L1493.03 304.68L1474.84 315.18L1456.65 304.68L1456.65 283.68zM1456.65 367.68L1474.84 378.18L1474.84 399.18L1456.65 409.68L1438.47 399.18L1438.47 378.18zM1456.65 430.68L1474.84 441.18L1474.84 462.18L1456.65 472.68L1438.47 462.18L1438.47 441.18zM1474.84 462.18L1493.03 472.68L1493.03 493.68L1474.84 504.18L1456.65 493.68L1456.65 472.68zM1474.84 525.18L1493.03 535.68L1493.03 556.68L1474.84 567.18L1456.65 556.68L1456.65 535.68zM1456.65 619.68L1474.84 630.18L1474.84 651.18L1456.65 661.68L1438.47 651.18L1438.47 630.18zM1474.84 651.18L1493.03 661.68L1493.03 682.68L1474.84 693.18L1456.65 682.68L1456.65 661.68zM1456.65 682.68L1474.84 693.18L1474.84 714.18L1456.65 724.68L1438.47 714.18L1438.47 693.18zM1474.84 714.18L1493.03 724.68L1493.03 745.68L1474.84 756.18L1456.65 745.68L1456.65 724.68zM1511.22 21.18L1529.4 31.68L1529.4 52.68L1511.22 63.18L1493.03 52.68L1493.03 31.68zM1493.03 52.68L1511.22 63.18L1511.22 84.18L1493.03 94.68L1474.84 84.18L1474.84 63.18zM1493.03 115.68L1511.22 126.18L1511.22 147.18L1493.03 157.68L1474.84 147.18L1474.84 126.18zM1511.22 147.18L1529.4 157.68L1529.4 178.68L1511.22 189.18L1493.03 178.68L1493.03 157.68zM1493.03 178.68L1511.22 189.18L1511.22 210.18L1493.03 220.68L1474.84 210.18L1474.84 189.18zM1511.22 210.18L1529.4 220.68L1529.4 241.68L1511.22 252.18L1493.03 241.68L1493.03 220.68zM1511.22 273.18L1529.4 283.68L1529.4 304.68L1511.22 315.18L1493.03 304.68L1493.03 283.68zM1511.22 336.18L1529.4 346.68L1529.4 367.68L1511.22 378.18L1493.03 367.68L1493.03 346.68zM1493.03 367.68L1511.22 378.18L1511.22 399.18L1493.03 409.68L1474.84 399.18L1474.84 378.18zM1493.03 430.68L1511.22 441.18L1511.22 462.18L1493.03 472.68L1474.84 462.18L1474.84 441.18zM1511.22 462.18L1529.4 472.68L1529.4 493.68L1511.22 504.18L1493.03 493.68L1493.03 472.68zM1511.22 525.18L1529.4 535.68L1529.4 556.68L1511.22 567.18L1493.03 556.68L1493.03 535.68zM1493.03 556.68L1511.22 567.18L1511.22 588.18L1493.03 598.68L1474.84 588.18L1474.84 567.18zM1511.22 588.18L1529.4 598.68L1529.4 619.68L1511.22 630.18L1493.03 619.68L1493.03 598.68zM1493.03 619.68L1511.22 630.18L1511.22 651.18L1493.03 661.68L1474.84 651.18L1474.84 630.18zM1511.22 651.18L1529.4 661.68L1529.4 682.68L1511.22 693.18L1493.03 682.68L1493.03 661.68zM1511.22 714.18L1529.4 724.68L1529.4 745.68L1511.22 756.18L1493.03 745.68L1493.03 724.68zM1493.03 745.68L1511.22 756.18L1511.22 777.18L1493.03 787.68L1474.84 777.18L1474.84 756.18zM1547.59 21.18L1565.78 31.68L1565.78 52.68L1547.59 63.18L1529.4 52.68L1529.4 31.68zM1529.4 52.68L1547.59 63.18L1547.59 84.18L1529.4 94.68L1511.22 84.18L1511.22 63.18zM1547.59 84.18L1565.78 94.68L1565.78 115.68L1547.59 126.18L1529.4 115.68L1529.4 94.68zM1547.59 147.18L1565.78 157.68L1565.78 178.68L1547.59 189.18L1529.4 178.68L1529.4 157.68zM1529.4 178.68L1547.59 189.18L1547.59 210.18L1529.4 220.68L1511.22 210.18L1511.22 189.18zM1547.59 273.18L1565.78 283.68L1565.78 304.68L1547.59 315.18L1529.4 304.68L1529.4 283.68zM1529.4 304.68L1547.59 315.18L1547.59 336.18L1529.4 346.68L1511.22 336.18L1511.22 315.18zM1547.59 336.18L1565.78 346.68L1565.78 367.68L1547.59 378.18L1529.4 367.68L1529.4 346.68zM1529.4 367.68L1547.59 378.18L1547.59 399.18L1529.4 409.68L1511.22 399.18L1511.22 378.18zM1547.59 462.18L1565.78 472.68L1565.78 493.68L1547.59 504.18L1529.4 493.68L1529.4 472.68zM1547.59 525.18L1565.78 535.68L1565.78 556.68L1547.59 567.18L1529.4 556.68L1529.4 535.68zM1529.4 556.68L1547.59 567.18L1547.59 588.18L1529.4 598.68L1511.22 588.18L1511.22 567.18zM1529.4 682.68L1547.59 693.18L1547.59 714.18L1529.4 724.68L1511.22 714.18L1511.22 693.18zM1565.78 -10.32L1583.96 0.18L1583.96 21.18L1565.78 31.68L1547.59 21.18L1547.59 0.18zM1565.78 52.68L1583.96 63.18L1583.96 84.18L1565.78 94.68L1547.59 84.18L1547.59 63.18zM1583.96 84.18L1602.15 94.68L1602.15 115.68L1583.96 126.18L1565.78 115.68L1565.78 94.68zM1583.96 147.18L1602.15 157.68L1602.15 178.68L1583.96 189.18L1565.78 178.68L1565.78 157.68zM1565.78 178.68L1583.96 189.18L1583.96 210.18L1565.78 220.68L1547.59 210.18L1547.59 189.18zM1583.96 210.18L1602.15 220.68L1602.15 241.68L1583.96 252.18L1565.78 241.68L1565.78 220.68zM1565.78 304.68L1583.96 315.18L1583.96 336.18L1565.78 346.68L1547.59 336.18L1547.59 315.18zM1583.96 336.18L1602.15 346.68L1602.15 367.68L1583.96 378.18L1565.78 367.68L1565.78 346.68zM1565.78 367.68L1583.96 378.18L1583.96 399.18L1565.78 409.68L1547.59 399.18L1547.59 378.18zM1583.96 399.18L1602.15 409.68L1602.15 430.68L1583.96 441.18L1565.78 430.68L1565.78 409.68zM1583.96 462.18L1602.15 472.68L1602.15 493.68L1583.96 504.18L1565.78 493.68L1565.78 472.68zM1565.78 493.68L1583.96 504.18L1583.96 525.18L1565.78 535.68L1547.59 525.18L1547.59 504.18zM1583.96 525.18L1602.15 535.68L1602.15 556.68L1583.96 567.18L1565.78 556.68L1565.78 535.68zM1583.96 588.18L1602.15 598.68L1602.15 619.68L1583.96 630.18L1565.78 619.68L1565.78 598.68zM1565.78 682.68L1583.96 693.18L1583.96 714.18L1565.78 724.68L1547.59 714.18L1547.59 693.18zM1583.96 714.18L1602.15 724.68L1602.15 745.68L1583.96 756.18L1565.78 745.68L1565.78 724.68zM1565.78 745.68L1583.96 756.18L1583.96 777.18L1565.78 787.68L1547.59 777.18L1547.59 756.18zM1583.96 777.18L1602.15 787.68L1602.15 808.68L1583.96 819.18L1565.78 808.68L1565.78 787.68zM1602.15 -10.32L1620.34 0.18L1620.34 21.18L1602.15 31.68L1583.96 21.18L1583.96 0.18zM1602.15 52.68L1620.34 63.18L1620.34 84.18L1602.15 94.68L1583.96 84.18L1583.96 63.18zM1620.34 84.18L1638.52 94.68L1638.52 115.68L1620.34 126.18L1602.15 115.68L1602.15 94.68zM1620.34 210.18L1638.52 220.68L1638.52 241.68L1620.34 252.18L1602.15 241.68L1602.15 220.68zM1602.15 241.68L1620.34 252.18L1620.34 273.18L1602.15 283.68L1583.96 273.18L1583.96 252.18zM1620.34 273.18L1638.52 283.68L1638.52 304.68L1620.34 315.18L1602.15 304.68L1602.15 283.68zM1620.34 399.18L1638.52 409.68L1638.52 430.68L1620.34 441.18L1602.15 430.68L1602.15 409.68zM1602.15 430.68L1620.34 441.18L1620.34 462.18L1602.15 472.68L1583.96 462.18L1583.96 441.18zM1620.34 588.18L1638.52 598.68L1638.52 619.68L1620.34 630.18L1602.15 619.68L1602.15 598.68zM1602.15 619.68L1620.34 630.18L1620.34 651.18L1602.15 661.68L1583.96 651.18L1583.96 630.18zM1602.15 682.68L1620.34 693.18L1620.34 714.18L1602.15 724.68L1583.96 714.18L1583.96 693.18zM1602.15 745.68L1620.34 756.18L1620.34 777.18L1602.15 787.68L1583.96 777.18L1583.96 756.18zM1638.52 52.68L1656.71 63.18L1656.71 84.18L1638.52 94.68L1620.34 84.18L1620.34 63.18zM1656.71 147.18L1674.9 157.68L1674.9 178.68L1656.71 189.18L1638.52 178.68L1638.52 157.68zM1638.52 241.68L1656.71 252.18L1656.71 273.18L1638.52 283.68L1620.34 273.18L1620.34 252.18zM1656.71 273.18L1674.9 283.68L1674.9 304.68L1656.71 315.18L1638.52 304.68L1638.52 283.68zM1656.71 336.18L1674.9 346.68L1674.9 367.68L1656.71 378.18L1638.52 367.68L1638.52 346.68zM1656.71 399.18L1674.9 409.68L1674.9 430.68L1656.71 441.18L1638.52 430.68L1638.52 409.68zM1638.52 430.68L1656.71 441.18L1656.71 462.18L1638.52 472.68L1620.34 462.18L1620.34 441.18zM1656.71 462.18L1674.9 472.68L1674.9 493.68L1656.71 504.18L1638.52 493.68L1638.52 472.68zM1656.71 525.18L1674.9 535.68L1674.9 556.68L1656.71 567.18L1638.52 556.68L1638.52 535.68zM1656.71 588.18L1674.9 598.68L1674.9 619.68L1656.71 630.18L1638.52 619.68L1638.52 598.68zM1638.52 619.68L1656.71 630.18L1656.71 651.18L1638.52 661.68L1620.34 651.18L1620.34 630.18zM1656.71 651.18L1674.9 661.68L1674.9 682.68L1656.71 693.18L1638.52 682.68L1638.52 661.68zM1656.71 777.18L1674.9 787.68L1674.9 808.68L1656.71 819.18L1638.52 808.68L1638.52 787.68zM1693.09 21.18L1711.27 31.68L1711.27 52.68L1693.09 63.18L1674.9 52.68L1674.9 31.68zM1674.9 52.68L1693.09 63.18L1693.09 84.18L1674.9 94.68L1656.71 84.18L1656.71 63.18zM1693.09 84.18L1711.27 94.68L1711.27 115.68L1693.09 126.18L1674.9 115.68L1674.9 94.68zM1693.09 210.18L1711.27 220.68L1711.27 241.68L1693.09 252.18L1674.9 241.68L1674.9 220.68zM1674.9 241.68L1693.09 252.18L1693.09 273.18L1674.9 283.68L1656.71 273.18L1656.71 252.18zM1693.09 273.18L1711.27 283.68L1711.27 304.68L1693.09 315.18L1674.9 304.68L1674.9 283.68zM1674.9 304.68L1693.09 315.18L1693.09 336.18L1674.9 346.68L1656.71 336.18L1656.71 315.18zM1693.09 336.18L1711.27 346.68L1711.27 367.68L1693.09 378.18L1674.9 367.68L1674.9 346.68zM1674.9 367.68L1693.09 378.18L1693.09 399.18L1674.9 409.68L1656.71 399.18L1656.71 378.18zM1693.09 399.18L1711.27 409.68L1711.27 430.68L1693.09 441.18L1674.9 430.68L1674.9 409.68zM1693.09 462.18L1711.27 472.68L1711.27 493.68L1693.09 504.18L1674.9 493.68L1674.9 472.68zM1674.9 556.68L1693.09 567.18L1693.09 588.18L1674.9 598.68L1656.71 588.18L1656.71 567.18zM1674.9 619.68L1693.09 630.18L1693.09 651.18L1674.9 661.68L1656.71 651.18L1656.71 630.18zM1674.9 682.68L1693.09 693.18L1693.09 714.18L1674.9 724.68L1656.71 714.18L1656.71 693.18zM1693.09 777.18L1711.27 787.68L1711.27 808.68L1693.09 819.18L1674.9 808.68L1674.9 787.68zM1729.46 147.18L1747.65 157.68L1747.65 178.68L1729.46 189.18L1711.27 178.68L1711.27 157.68zM1729.46 210.18L1747.65 220.68L1747.65 241.68L1729.46 252.18L1711.27 241.68L1711.27 220.68zM1729.46 399.18L1747.65 409.68L1747.65 430.68L1729.46 441.18L1711.27 430.68L1711.27 409.68zM1729.46 462.18L1747.65 472.68L1747.65 493.68L1729.46 504.18L1711.27 493.68L1711.27 472.68zM1711.27 493.68L1729.46 504.18L1729.46 525.18L1711.27 535.68L1693.09 525.18L1693.09 504.18zM1729.46 588.18L1747.65 598.68L1747.65 619.68L1729.46 630.18L1711.27 619.68L1711.27 598.68zM1711.27 619.68L1729.46 630.18L1729.46 651.18L1711.27 661.68L1693.09 651.18L1693.09 630.18zM1729.46 651.18L1747.65 661.68L1747.65 682.68L1729.46 693.18L1711.27 682.68L1711.27 661.68zM1711.27 682.68L1729.46 693.18L1729.46 714.18L1711.27 724.68L1693.09 714.18L1693.09 693.18zM1765.83 84.18L1784.02 94.68L1784.02 115.68L1765.83 126.18L1747.65 115.68L1747.65 94.68zM1765.83 210.18L1784.02 220.68L1784.02 241.68L1765.83 252.18L1747.65 241.68L1747.65 220.68zM1747.65 241.68L1765.83 252.18L1765.83 273.18L1747.65 283.68L1729.46 273.18L1729.46 252.18zM1747.65 304.68L1765.83 315.18L1765.83 336.18L1747.65 346.68L1729.46 336.18L1729.46 315.18zM1765.83 462.18L1784.02 472.68L1784.02 493.68L1765.83 504.18L1747.65 493.68L1747.65 472.68zM1747.65 556.68L1765.83 567.18L1765.83 588.18L1747.65 598.68L1729.46 588.18L1729.46 567.18zM1765.83 588.18L1784.02 598.68L1784.02 619.68L1765.83 630.18L1747.65 619.68L1747.65 598.68zM1747.65 619.68L1765.83 630.18L1765.83 651.18L1747.65 661.68L1729.46 651.18L1729.46 630.18zM1765.83 714.18L1784.02 724.68L1784.02 745.68L1765.83 756.18L1747.65 745.68L1747.65 724.68zM1765.83 777.18L1784.02 787.68L1784.02 808.68L1765.83 819.18L1747.65 808.68L1747.65 787.68zM1784.02 -10.32L1802.21 0.18L1802.21 21.18L1784.02 31.68L1765.83 21.18L1765.83 0.18zM1802.21 21.18L1820.39 31.68L1820.39 52.68L1802.21 63.18L1784.02 52.68L1784.02 31.68zM1784.02 52.68L1802.21 63.18L1802.21 84.18L1784.02 94.68L1765.83 84.18L1765.83 63.18zM1784.02 115.68L1802.21 126.18L1802.21 147.18L1784.02 157.68L1765.83 147.18L1765.83 126.18zM1802.21 147.18L1820.39 157.68L1820.39 178.68L1802.21 189.18L1784.02 178.68L1784.02 157.68zM1784.02 178.68L1802.21 189.18L1802.21 210.18L1784.02 220.68L1765.83 210.18L1765.83 189.18zM1802.21 210.18L1820.39 220.68L1820.39 241.68L1802.21 252.18L1784.02 241.68L1784.02 220.68zM1784.02 241.68L1802.21 252.18L1802.21 273.18L1784.02 283.68L1765.83 273.18L1765.83 252.18zM1784.02 367.68L1802.21 378.18L1802.21 399.18L1784.02 409.68L1765.83 399.18L1765.83 378.18zM1802.21 399.18L1820.39 409.68L1820.39 430.68L1802.21 441.18L1784.02 430.68L1784.02 409.68zM1784.02 493.68L1802.21 504.18L1802.21 525.18L1784.02 535.68L1765.83 525.18L1765.83 504.18zM1784.02 556.68L1802.21 567.18L1802.21 588.18L1784.02 598.68L1765.83 588.18L1765.83 567.18zM1802.21 651.18L1820.39 661.68L1820.39 682.68L1802.21 693.18L1784.02 682.68L1784.02 661.68zM1784.02 682.68L1802.21 693.18L1802.21 714.18L1784.02 724.68L1765.83 714.18L1765.83 693.18zM1802.21 714.18L1820.39 724.68L1820.39 745.68L1802.21 756.18L1784.02 745.68L1784.02 724.68zM1820.39 -10.32L1838.58 0.18L1838.58 21.18L1820.39 31.68L1802.21 21.18L1802.21 0.18zM1838.58 21.18L1856.77 31.68L1856.77 52.68L1838.58 63.18L1820.39 52.68L1820.39 31.68zM1820.39 52.68L1838.58 63.18L1838.58 84.18L1820.39 94.68L1802.21 84.18L1802.21 63.18zM1838.58 84.18L1856.77 94.68L1856.77 115.68L1838.58 126.18L1820.39 115.68L1820.39 94.68zM1820.39 178.68L1838.58 189.18L1838.58 210.18L1820.39 220.68L1802.21 210.18L1802.21 189.18zM1820.39 241.68L1838.58 252.18L1838.58 273.18L1820.39 283.68L1802.21 273.18L1802.21 252.18zM1820.39 304.68L1838.58 315.18L1838.58 336.18L1820.39 346.68L1802.21 336.18L1802.21 315.18zM1820.39 367.68L1838.58 378.18L1838.58 399.18L1820.39 409.68L1802.21 399.18L1802.21 378.18zM1838.58 462.18L1856.77 472.68L1856.77 493.68L1838.58 504.18L1820.39 493.68L1820.39 472.68zM1838.58 651.18L1856.77 661.68L1856.77 682.68L1838.58 693.18L1820.39 682.68L1820.39 661.68zM1820.39 682.68L1838.58 693.18L1838.58 714.18L1820.39 724.68L1802.21 714.18L1802.21 693.18zM1820.39 745.68L1838.58 756.18L1838.58 777.18L1820.39 787.68L1802.21 777.18L1802.21 756.18zM1856.77 -10.32L1874.96 0.18L1874.96 21.18L1856.77 31.68L1838.58 21.18L1838.58 0.18zM1856.77 115.68L1874.96 126.18L1874.96 147.18L1856.77 157.68L1838.58 147.18L1838.58 126.18zM1856.77 178.68L1874.96 189.18L1874.96 210.18L1856.77 220.68L1838.58 210.18L1838.58 189.18zM1874.96 210.18L1893.14 220.68L1893.14 241.68L1874.96 252.18L1856.77 241.68L1856.77 220.68zM1856.77 241.68L1874.96 252.18L1874.96 273.18L1856.77 283.68L1838.58 273.18L1838.58 252.18zM1874.96 336.18L1893.14 346.68L1893.14 367.68L1874.96 378.18L1856.77 367.68L1856.77 346.68zM1856.77 367.68L1874.96 378.18L1874.96 399.18L1856.77 409.68L1838.58 399.18L1838.58 378.18zM1856.77 493.68L1874.96 504.18L1874.96 525.18L1856.77 535.68L1838.58 525.18L1838.58 504.18zM1874.96 525.18L1893.14 535.68L1893.14 556.68L1874.96 567.18L1856.77 556.68L1856.77 535.68zM1856.77 619.68L1874.96 630.18L1874.96 651.18L1856.77 661.68L1838.58 651.18L1838.58 630.18zM1874.96 714.18L1893.14 724.68L1893.14 745.68L1874.96 756.18L1856.77 745.68L1856.77 724.68zM1856.77 745.68L1874.96 756.18L1874.96 777.18L1856.77 787.68L1838.58 777.18L1838.58 756.18zM1911.33 84.18L1929.52 94.68L1929.52 115.68L1911.33 126.18L1893.14 115.68L1893.14 94.68zM1893.14 178.68L1911.33 189.18L1911.33 210.18L1893.14 220.68L1874.96 210.18L1874.96 189.18zM1911.33 210.18L1929.52 220.68L1929.52 241.68L1911.33 252.18L1893.14 241.68L1893.14 220.68zM1893.14 304.68L1911.33 315.18L1911.33 336.18L1893.14 346.68L1874.96 336.18L1874.96 315.18zM1893.14 367.68L1911.33 378.18L1911.33 399.18L1893.14 409.68L1874.96 399.18L1874.96 378.18zM1911.33 588.18L1929.52 598.68L1929.52 619.68L1911.33 630.18L1893.14 619.68L1893.14 598.68zM1911.33 714.18L1929.52 724.68L1929.52 745.68L1911.33 756.18L1893.14 745.68L1893.14 724.68zM1893.14 745.68L1911.33 756.18L1911.33 777.18L1893.14 787.68L1874.96 777.18L1874.96 756.18zM1911.33 777.18L1929.52 787.68L1929.52 808.68L1911.33 819.18L1893.14 808.68L1893.14 787.68z" stroke="url(#SvgjsLinearGradient17052)" stroke-width="2"></path>
</g>
<defs><mask id="SvgjsMask17049"><rect width="1920" height="800" fill="#ffffff"></rect></mask>
<linearGradient x1="0%" y1="50%" x2="100%" y2="50%" gradientUnits="userSpaceOnUse" id="SvgjsLinearGradient17050">
<stop stop-color="#0e2a47" offset="0"></stop>
<stop stop-color="rgba(0, 0, 0, 1)" offset="1"></stop></linearGradient>
<linearGradient x1="1920" y1="400" x2="0" y2="400" gradientUnits="userSpaceOnUse" id="SvgjsLinearGradient17051"><stop stop-color="rgba(252, 163, 0, 1)" offset="0.06"></stop>
<stop stop-color="rgba(1, 126, 255, 1)" offset="0.88"></stop></linearGradient>
<linearGradient x1="0" y1="400" x2="1920" y2="400" gradientUnits="userSpaceOnUse" id="SvgjsLinearGradient17052"><stop stop-color="rgba(14, 42, 71, 1)" offset="0"></stop>
<stop stop-color="rgba(255, 165, 1, 0.2)" offset="0.93"></stop></linearGradient></defs></svg>